<svg width="51" height="50" viewBox="0 0 51 50" fill="none" xmlns="http://www.w3.org/2000/svg">
<circle cx="25.2959" cy="25" r="25" fill="#FFDDAB"/>
<g clip-path="url(#clip0_2927_60229)">
<path d="M16.2959 25C16.2959 26.1819 16.5287 27.3522 16.981 28.4442C17.4333 29.5361 18.0962 30.5282 18.9319 31.364C19.7677 32.1997 20.7598 32.8626 21.8517 33.3149C22.9437 33.7672 24.114 34 25.2959 34C26.4778 34 27.6481 33.7672 28.74 33.3149C29.832 32.8626 30.8241 32.1997 31.6599 31.364C32.4956 30.5282 33.1585 29.5361 33.6108 28.4442C34.0631 27.3522 34.2959 26.1819 34.2959 25C34.2959 23.8181 34.0631 22.6478 33.6108 21.5558C33.1585 20.4639 32.4956 19.4718 31.6599 18.636C30.8241 17.8003 29.832 17.1374 28.74 16.6851C27.6481 16.2328 26.4778 16 25.2959 16C24.114 16 22.9437 16.2328 21.8517 16.6851C20.7598 17.1374 19.7677 17.8003 18.9319 18.636C18.0962 19.4718 17.4333 20.4639 16.981 21.5558C16.5287 22.6478 16.2959 23.8181 16.2959 25Z" stroke="#FF9800" stroke-width="2" stroke-linecap="round" stroke-linejoin="round"/>
<path d="M25.2959 22V26" stroke="#FF9800" stroke-width="2" stroke-linecap="round" stroke-linejoin="round"/>
<path d="M25.2959 29V29.01" stroke="#FF9800" stroke-width="2" stroke-linecap="round" stroke-linejoin="round"/>
</g>
<defs>
<clipPath id="clip0_2927_60229">
<rect width="24" height="24" fill="white" transform="translate(13.2959 13)"/>
</clipPath>
</defs>
</svg>
