<svg width="20" height="21" viewBox="0 0 20 21" fill="none" xmlns="http://www.w3.org/2000/svg">
<g clip-path="url(#clip0_2927_60258)">
<path d="M6.6665 4.66536C6.6665 4.88638 6.7543 5.09834 6.91058 5.25462C7.06686 5.4109 7.27882 5.4987 7.49984 5.4987C7.72085 5.4987 7.93281 5.4109 8.08909 5.25462C8.24537 5.09834 8.33317 4.88638 8.33317 4.66536C8.33317 4.44435 8.24537 4.23239 8.08909 4.07611C7.93281 3.91983 7.72085 3.83203 7.49984 3.83203C7.27882 3.83203 7.06686 3.91983 6.91058 4.07611C6.7543 4.23239 6.6665 4.44435 6.6665 4.66536Z" stroke="#7D7D7D" stroke-width="1.66667" stroke-linecap="round" stroke-linejoin="round"/>
<path d="M6.6665 10.5013C6.6665 10.7223 6.7543 10.9343 6.91058 11.0906C7.06686 11.2468 7.27882 11.3346 7.49984 11.3346C7.72085 11.3346 7.93281 11.2468 8.08909 11.0906C8.24537 10.9343 8.33317 10.7223 8.33317 10.5013C8.33317 10.2803 8.24537 10.0683 8.08909 9.91205C7.93281 9.75577 7.72085 9.66797 7.49984 9.66797C7.27882 9.66797 7.06686 9.75577 6.91058 9.91205C6.7543 10.0683 6.6665 10.2803 6.6665 10.5013Z" stroke="#7D7D7D" stroke-width="1.66667" stroke-linecap="round" stroke-linejoin="round"/>
<path d="M6.66675 16.3333C6.66675 16.5543 6.75455 16.7663 6.91083 16.9226C7.06711 17.0789 7.27907 17.1667 7.50008 17.1667C7.7211 17.1667 7.93306 17.0789 8.08934 16.9226C8.24562 16.7663 8.33341 16.5543 8.33341 16.3333C8.33341 16.1123 8.24562 15.9004 8.08934 15.7441C7.93306 15.5878 7.7211 15.5 7.50008 15.5C7.27907 15.5 7.06711 15.5878 6.91083 15.7441C6.75455 15.9004 6.66675 16.1123 6.66675 16.3333Z" stroke="#7D7D7D" stroke-width="1.66667" stroke-linecap="round" stroke-linejoin="round"/>
<path d="M11.6665 4.66536C11.6665 4.88638 11.7543 5.09834 11.9106 5.25462C12.0669 5.4109 12.2788 5.4987 12.4998 5.4987C12.7209 5.4987 12.9328 5.4109 13.0891 5.25462C13.2454 5.09834 13.3332 4.88638 13.3332 4.66536C13.3332 4.44435 13.2454 4.23239 13.0891 4.07611C12.9328 3.91983 12.7209 3.83203 12.4998 3.83203C12.2788 3.83203 12.0669 3.91983 11.9106 4.07611C11.7543 4.23239 11.6665 4.44435 11.6665 4.66536Z" stroke="#7D7D7D" stroke-width="1.66667" stroke-linecap="round" stroke-linejoin="round"/>
<path d="M11.6665 10.5013C11.6665 10.7223 11.7543 10.9343 11.9106 11.0906C12.0669 11.2468 12.2788 11.3346 12.4998 11.3346C12.7209 11.3346 12.9328 11.2468 13.0891 11.0906C13.2454 10.9343 13.3332 10.7223 13.3332 10.5013C13.3332 10.2803 13.2454 10.0683 13.0891 9.91205C12.9328 9.75577 12.7209 9.66797 12.4998 9.66797C12.2788 9.66797 12.0669 9.75577 11.9106 9.91205C11.7543 10.0683 11.6665 10.2803 11.6665 10.5013Z" stroke="#7D7D7D" stroke-width="1.66667" stroke-linecap="round" stroke-linejoin="round"/>
<path d="M11.6667 16.3333C11.6667 16.5543 11.7545 16.7663 11.9108 16.9226C12.0671 17.0789 12.2791 17.1667 12.5001 17.1667C12.7211 17.1667 12.9331 17.0789 13.0893 16.9226C13.2456 16.7663 13.3334 16.5543 13.3334 16.3333C13.3334 16.1123 13.2456 15.9004 13.0893 15.7441C12.9331 15.5878 12.7211 15.5 12.5001 15.5C12.2791 15.5 12.0671 15.5878 11.9108 15.7441C11.7545 15.9004 11.6667 16.1123 11.6667 16.3333Z" stroke="#7D7D7D" stroke-width="1.66667" stroke-linecap="round" stroke-linejoin="round"/>
</g>
<defs>
<clipPath id="clip0_2927_60258">
<rect width="20" height="20" fill="white" transform="translate(0 0.5)"/>
</clipPath>
</defs>
</svg>
