<svg width="12" height="13" viewBox="0 0 12 13" fill="none" xmlns="http://www.w3.org/2000/svg">
<path d="M6.7922 1.29297C6.7922 1.08577 6.70989 0.887054 6.56337 0.740541C6.41686 0.594029 6.21815 0.511719 6.01095 0.511719C5.80375 0.511719 5.60503 0.594029 5.45852 0.740541C5.31201 0.887054 5.2297 1.08577 5.2297 1.29297V5.72005H0.802612C0.595412 5.72005 0.396698 5.80236 0.250185 5.94887C0.103672 6.09539 0.0213623 6.2941 0.0213623 6.5013C0.0213623 6.7085 0.103672 6.90722 0.250185 7.05373C0.396698 7.20024 0.595412 7.28255 0.802612 7.28255H5.2297V11.7096C5.2297 11.9168 5.31201 12.1156 5.45852 12.2621C5.60503 12.4086 5.80375 12.4909 6.01095 12.4909C6.21815 12.4909 6.41686 12.4086 6.56337 12.2621C6.70989 12.1156 6.7922 11.9168 6.7922 11.7096V7.28255H11.2193C11.4265 7.28255 11.6252 7.20024 11.7717 7.05373C11.9182 6.90722 12.0005 6.7085 12.0005 6.5013C12.0005 6.2941 11.9182 6.09539 11.7717 5.94887C11.6252 5.80236 11.4265 5.72005 11.2193 5.72005H6.7922V1.29297Z" fill="black"/>
</svg>
