<svg width="27" height="27" viewBox="0 0 27 27" fill="none" xmlns="http://www.w3.org/2000/svg">
<g clip-path="url(#clip0_2546_19655)">
<path d="M14.0417 23.25H5.91667C5.34203 23.25 4.79093 23.0217 4.3846 22.6154C3.97827 22.2091 3.75 21.658 3.75 21.0833V5.91667C3.75 5.34203 3.97827 4.79093 4.3846 4.3846C4.79093 3.97827 5.34203 3.75 5.91667 3.75H21.0833C21.658 3.75 22.2091 3.97827 22.6154 4.3846C23.0217 4.79093 23.25 5.34203 23.25 5.91667V14.0417" stroke="#3AB4FD" stroke-width="1.625" stroke-linecap="round" stroke-linejoin="round"/>
<path d="M3.75 11.3331H23.25" stroke="#3AB4FD" stroke-width="1.625" stroke-linecap="round" stroke-linejoin="round"/>
<path d="M11.334 3.75V23.25" stroke="#3AB4FD" stroke-width="1.625" stroke-linecap="round" stroke-linejoin="round"/>
<path d="M17.834 21.0833H24.334" stroke="#3AB4FD" stroke-width="1.625" stroke-linecap="round" stroke-linejoin="round"/>
<path d="M21.084 17.8333L24.334 21.0833L21.084 24.3333" stroke="#3AB4FD" stroke-width="1.625" stroke-linecap="round" stroke-linejoin="round"/>
</g>
<defs>
<clipPath id="clip0_2546_19655">
<rect width="26" height="26" fill="white" transform="translate(0.5 0.5)"/>
</clipPath>
</defs>
</svg>
