<svg width="25" height="23" viewBox="0 0 25 23" fill="none" xmlns="http://www.w3.org/2000/svg">
<path d="M11.3953 1.3442C11.6883 1.05127 12.0856 0.886719 12.4999 0.886719C12.9143 0.886719 13.3116 1.05127 13.6046 1.3442L17.1874 4.92701V2.9067C17.1874 2.6995 17.2698 2.50078 17.4163 2.35427C17.5628 2.20776 17.7615 2.12545 17.9687 2.12545H19.5312C19.7384 2.12545 19.9371 2.20776 20.0836 2.35427C20.2301 2.50078 20.3124 2.6995 20.3124 2.9067V8.05201L23.9906 11.7286C24.1371 11.8753 24.2193 12.0742 24.2191 12.2815C24.219 12.4888 24.1365 12.6876 23.9898 12.834C23.8431 12.9805 23.6442 13.0627 23.4369 13.0626C23.2296 13.0625 23.0308 12.98 22.8843 12.8333L12.4999 2.44889L2.11557 12.8333C1.96908 12.98 1.77031 13.0625 1.563 13.0626C1.35568 13.0627 1.1568 12.9805 1.0101 12.834C0.863405 12.6876 0.780908 12.4888 0.780762 12.2815C0.780615 12.0742 0.862831 11.8753 1.00932 11.7286L11.3953 1.3442Z" fill="#3AB4FD"/>
<path d="M21.875 13.5205L12.5 4.14551L3.125 13.5205V20.0939C3.125 20.7155 3.37193 21.3117 3.81147 21.7512C4.25101 22.1908 4.84715 22.4377 5.46875 22.4377H19.5312C20.1529 22.4377 20.749 22.1908 21.1885 21.7512C21.6281 21.3117 21.875 20.7155 21.875 20.0939V13.5205ZM12.5 12.2533C15.1 9.63926 21.6016 14.2127 12.5 20.0939C3.39844 14.2127 9.9 9.63926 12.5 12.2533Z" fill="#3AB4FD"/>
</svg>
