<svg width="20" height="20" viewBox="0 0 20 20" fill="none" xmlns="http://www.w3.org/2000/svg">
<path d="M5 5C4.00544 5 3.05161 5.39509 2.34835 6.09835C1.64509 6.80161 1.25 7.75544 1.25 8.75V16.25H8.75V8.75C8.75 7.75544 8.35491 6.80161 7.65165 6.09835C6.94839 5.39509 5.99456 5 5 5ZM5 3.75H15C16.3261 3.75 17.5979 4.27678 18.5355 5.21447C19.4732 6.15215 20 7.42392 20 8.75V16.25C20 16.5815 19.8683 16.8995 19.6339 17.1339C19.3995 17.3683 19.0815 17.5 18.75 17.5H1.25C0.918479 17.5 0.600537 17.3683 0.366117 17.1339C0.131696 16.8995 0 16.5815 0 16.25V8.75C0 7.42392 0.526784 6.15215 1.46447 5.21447C2.40215 4.27678 3.67392 3.75 5 3.75ZM8.3075 5C8.83948 5.46924 9.26552 6.0463 9.55733 6.69285C9.84914 7.3394 10 8.04065 10 8.75V16.25H18.75V8.75C18.75 7.75544 18.3549 6.80161 17.6517 6.09835C16.9484 5.39509 15.9946 5 15 5H8.3075Z" fill="#3AB4FD"/>
<path d="M14.7413 10.625H11.25V9.375H17.5C17.6658 9.375 17.8247 9.44085 17.9419 9.55806C18.0592 9.67527 18.125 9.83424 18.125 10V11.25C18.125 11.4158 18.0592 11.5747 17.9419 11.6919C17.8247 11.8092 17.6658 11.875 17.5 11.875H16.25C16.1679 11.8751 16.0865 11.8591 16.0106 11.8278C15.9347 11.7965 15.8656 11.7505 15.8075 11.6925L14.7413 10.625ZM6.25 8.75C6.25 9.44 5.69 8.75 5 8.75C4.31 8.75 3.75 9.44 3.75 8.75C3.75 8.41848 3.8817 8.10054 4.11612 7.86612C4.35054 7.6317 4.66848 7.5 5 7.5C5.33152 7.5 5.64946 7.6317 5.88388 7.86612C6.1183 8.10054 6.25 8.41848 6.25 8.75Z" fill="#3AB4FD"/>
</svg>
