<svg width="40" height="40" viewBox="0 0 40 40" fill="none" xmlns="http://www.w3.org/2000/svg">
<path d="M12.5002 23.3333C14.8013 23.3333 16.6668 21.4679 16.6668 19.1667C16.6668 16.8655 14.8013 15 12.5002 15C10.199 15 8.3335 16.8655 8.3335 19.1667C8.3335 21.4679 10.199 23.3333 12.5002 23.3333Z" fill="#3AB4FD"/>
<path d="M28.6752 11.6667H20.0002C19.0785 11.6667 18.3335 12.4117 18.3335 13.3333V25H6.66683V10H3.3335V33.3333H6.66683V28.3333H20.0002H33.3335V33.3333H36.6668V26.6667V26.6267V25V19.6583C36.6668 15.2517 33.0818 11.6667 28.6752 11.6667ZM21.6668 25V15H28.6752C31.2435 15 33.3335 17.09 33.3335 19.6583V25H21.6668Z" fill="#3AB4FD"/>
</svg>
