<svg width="40" height="40" viewBox="0 0 40 40" fill="none" xmlns="http://www.w3.org/2000/svg">
<path d="M10.8602 23.8723L8.37689 34.6257C8.22355 35.2907 8.49022 35.9823 9.05356 36.3707C9.33855 36.5673 9.66855 36.6673 10.0002 36.6673C10.3219 36.6673 10.6452 36.574 10.9252 36.3873L20.0002 30.3373L29.0752 36.3873C29.6552 36.774 30.4169 36.759 30.9836 36.3473C31.5469 35.9357 31.7952 35.214 31.6036 34.544L28.5552 23.8773L36.1152 17.074C36.6102 16.6273 36.7919 15.9307 36.5786 15.3007C36.3636 14.6707 35.7952 14.2273 35.1319 14.174L25.6302 13.4173L21.5186 4.31565C21.2502 3.71732 20.6552 3.33398 20.0002 3.33398C19.3452 3.33398 18.7502 3.71732 18.4819 4.31565L14.3702 13.4173L4.86855 14.1723C4.21522 14.224 3.65355 14.6523 3.43355 15.2673C3.21022 15.8823 3.37022 16.5707 3.83689 17.0273L10.8602 23.8723ZM15.6152 16.6623C16.2202 16.614 16.7536 16.2407 17.0019 15.6857L20.0002 9.05065L22.9986 15.6857C23.2469 16.2407 23.7802 16.614 24.3852 16.6623L31.0052 17.1873L25.5536 22.094C25.0802 22.5207 24.8919 23.1773 25.0652 23.7907L27.1536 31.099L20.9269 26.9473C20.3669 26.5723 19.6386 26.5723 19.0786 26.9473L12.5719 31.2857L14.3219 23.709C14.4519 23.1423 14.2786 22.5473 13.8619 22.1423L8.79855 17.2057L15.6152 16.6623Z" fill="#3AB4FD"/>
</svg>
