<svg width="36" height="36" viewBox="0 0 36 36" fill="none" xmlns="http://www.w3.org/2000/svg">
<path d="M12 10.5V4.5M24 10.5V4.5M10.5 16.5H25.5M7.5 31.5H28.5C29.2956 31.5 30.0587 31.1839 30.6213 30.6213C31.1839 30.0587 31.5 29.2956 31.5 28.5V10.5C31.5 9.70435 31.1839 8.94129 30.6213 8.37868C30.0587 7.81607 29.2956 7.5 28.5 7.5H7.5C6.70435 7.5 5.94129 7.81607 5.37868 8.37868C4.81607 8.94129 4.5 9.70435 4.5 10.5V28.5C4.5 29.2956 4.81607 30.0587 5.37868 30.6213C5.94129 31.1839 6.70435 31.5 7.5 31.5Z" stroke="#3AB4FD" stroke-width="3" stroke-linecap="round" stroke-linejoin="round"/>
</svg>
