<svg width="21" height="21" viewBox="0 0 21 21" fill="none" xmlns="http://www.w3.org/2000/svg">
<g clip-path="url(#clip0_1478_14814)">
<path d="M16.125 20.5C17.2853 20.5 18.3981 20.0391 19.2186 19.2186C20.0391 18.3981 20.5 17.2853 20.5 16.125C20.5 14.9647 20.0391 13.8519 19.2186 13.0314C18.3981 12.2109 17.2853 11.75 16.125 11.75C14.9647 11.75 13.8519 12.2109 13.0314 13.0314C12.2109 13.8519 11.75 14.9647 11.75 16.125C11.75 17.2853 12.2109 18.3981 13.0314 19.2186C13.8519 20.0391 14.9647 20.5 16.125 20.5ZM18.2238 14.8837L16.555 17.6663C16.4817 17.7885 16.3814 17.8924 16.2619 17.9701C16.1424 18.0478 16.0067 18.0972 15.8652 18.1145C15.7237 18.1319 15.5801 18.1167 15.4454 18.0702C15.3106 18.0238 15.1882 17.9471 15.0875 17.8462L14.12 16.88C14.0026 16.7626 13.9367 16.6035 13.9367 16.4375C13.9367 16.2715 14.0026 16.1124 14.12 15.995C14.2374 15.8776 14.3965 15.8117 14.5625 15.8117C14.7285 15.8117 14.8876 15.8776 15.005 15.995L15.6888 16.68L17.1512 14.2413C17.1934 14.1708 17.2491 14.1094 17.315 14.0605C17.3809 14.0116 17.4558 13.9761 17.5355 13.9562C17.6151 13.9362 17.6979 13.9321 17.7791 13.9441C17.8603 13.9562 17.9383 13.9841 18.0087 14.0262C18.0792 14.0684 18.1406 14.1241 18.1895 14.19C18.2384 14.2559 18.2739 14.3308 18.2938 14.4105C18.3138 14.4901 18.3179 14.5729 18.3059 14.6541C18.2938 14.7353 18.2659 14.8133 18.2238 14.8837ZM14.25 6.75C14.25 7.74456 13.8549 8.69839 13.1517 9.40165C12.4484 10.1049 11.4946 10.5 10.5 10.5C9.50544 10.5 8.55161 10.1049 7.84835 9.40165C7.14509 8.69839 6.75 7.74456 6.75 6.75C6.75 5.75544 7.14509 4.80161 7.84835 4.09835C8.55161 3.39509 9.50544 3 10.5 3C11.4946 3 12.4484 3.39509 13.1517 4.09835C13.8549 4.80161 14.25 5.75544 14.25 6.75ZM10.5 9.25C11.163 9.25 11.7989 8.98661 12.2678 8.51777C12.7366 8.04893 13 7.41304 13 6.75C13 6.08696 12.7366 5.45107 12.2678 4.98223C11.7989 4.51339 11.163 4.25 10.5 4.25C9.83696 4.25 9.20107 4.51339 8.73223 4.98223C8.26339 5.45107 8 6.08696 8 6.75C8 7.41304 8.26339 8.04893 8.73223 8.51777C9.20107 8.98661 9.83696 9.25 10.5 9.25Z" fill="#3AB4FD"/>
<path d="M10.82 18C10.6769 17.594 10.5808 17.1729 10.5338 16.745H4.25C4.25125 16.4375 4.4425 15.5125 5.29 14.665C6.105 13.85 7.63875 13 10.5 13C10.825 13 11.1333 13.0104 11.425 13.0312C11.7075 12.605 12.045 12.2188 12.43 11.8838C11.8467 11.7963 11.2033 11.7517 10.5 11.75C4.25 11.75 3 15.5 3 16.75C3 18 4.25 18 4.25 18H10.82Z" fill="#3AB4FD"/>
</g>
<defs>
<clipPath id="clip0_1478_14814">
<rect width="20" height="20" fill="white" transform="translate(0.5 0.5)"/>
</clipPath>
</defs>
</svg>
