<svg width="20" height="21" viewBox="0 0 20 21" fill="none" xmlns="http://www.w3.org/2000/svg">
<path d="M11.2869 9.53776C10.6043 8.85546 9.67871 8.47217 8.71358 8.47217C7.74846 8.47217 6.82284 8.85546 6.14025 9.53776L3.56608 12.1111C2.88348 12.7937 2.5 13.7195 2.5 14.6848C2.5 15.6502 2.88348 16.576 3.56608 17.2586C4.24868 17.9412 5.17449 18.3247 6.13983 18.3247C7.10518 18.3247 8.03098 17.9412 8.71358 17.2586L10.0002 15.9719" stroke="#051621" stroke-width="1.66667" stroke-linecap="round" stroke-linejoin="round"/>
<path d="M8.71289 12.1106C9.39548 12.793 10.3211 13.1762 11.2862 13.1762C12.2513 13.1762 13.177 12.793 13.8596 12.1106L16.4337 9.53731C17.1163 8.85471 17.4998 7.92891 17.4998 6.96356C17.4998 5.99822 17.1163 5.07241 16.4337 4.38981C15.7511 3.70721 14.8253 3.32373 13.86 3.32373C12.8946 3.32373 11.9688 3.70721 11.2862 4.38981L9.99956 5.67648" stroke="#051621" stroke-width="1.66667" stroke-linecap="round" stroke-linejoin="round"/>
</svg>
