<svg width="15" height="15" viewBox="0 0 15 15" fill="none" xmlns="http://www.w3.org/2000/svg">
<path d="M11.0356 10.4104L8.38375 13.0623C8.26782 13.1785 8.13012 13.2706 7.97853 13.3335C7.82694 13.3964 7.66443 13.4288 7.50031 13.4288C7.3362 13.4288 7.17369 13.3964 7.0221 13.3335C6.87051 13.2706 6.73281 13.1785 6.61688 13.0623L3.96438 10.4104C3.26514 9.71117 2.78896 8.82025 2.59606 7.85036C2.40315 6.88046 2.50218 5.87514 2.88063 4.96152C3.25907 4.04791 3.89994 3.26703 4.72218 2.71763C5.54442 2.16824 6.51111 1.875 7.5 1.875C8.4889 1.875 9.45559 2.16824 10.2778 2.71763C11.1001 3.26703 11.7409 4.04791 12.1194 4.96152C12.4978 5.87514 12.5969 6.88046 12.4039 7.85036C12.211 8.82025 11.7349 9.71117 11.0356 10.4104Z" stroke="#051621" stroke-width="1.25" stroke-linecap="round" stroke-linejoin="round"/>
<path d="M8.8254 8.19812C9.00747 8.0259 9.15317 7.81893 9.25388 7.58944C9.3546 7.35995 9.40829 7.1126 9.41177 6.86201C9.41526 6.61142 9.36847 6.36267 9.27417 6.13047C9.17988 5.89827 9.03999 5.68733 8.86278 5.51011C8.68557 5.3329 8.47462 5.19301 8.24242 5.09872C8.01022 5.00442 7.76147 4.95763 7.51088 4.96112C7.26029 4.9646 7.01294 5.01829 6.78345 5.11901C6.55396 5.21972 6.34699 5.36542 6.17477 5.54749C5.83323 5.90112 5.64424 6.37475 5.64851 6.86637C5.65278 7.35799 5.84997 7.82826 6.19761 8.1759C6.54525 8.52354 7.01553 8.72073 7.50714 8.72501C7.99876 8.72928 8.47239 8.54029 8.82602 8.19874L8.8254 8.19812Z" stroke="#051621" stroke-width="1.25" stroke-linecap="round" stroke-linejoin="round"/>
</svg>
