<svg width="40" height="40" viewBox="0 0 40 40" fill="none" xmlns="http://www.w3.org/2000/svg">
<rect width="40" height="40" rx="5" fill="#FFDAC4"/>
<g clip-path="url(#clip0_774_33519)">
<path d="M23.7857 12.8516H16.2148V26.4387H23.7857V12.8516Z" fill="#FF5F00"/>
<path d="M16.6953 19.644C16.6953 17.0034 17.9211 14.4828 19.988 12.8504C16.2387 9.89775 10.8069 10.5459 7.85069 14.3148C4.89447 18.0596 5.5434 23.4849 9.31679 26.4375C12.4653 28.9101 16.8636 28.9101 20.0121 26.4375C17.9211 24.8052 16.6953 22.2846 16.6953 19.644Z" fill="#EB001B"/>
<path d="M33.9997 19.644C33.9997 24.4211 30.1302 28.2859 25.3473 28.2859C23.4006 28.2859 21.5259 27.6378 20.0117 26.4375C23.7611 23.4849 24.41 18.0596 21.4538 14.2907C21.0212 13.7626 20.5405 13.2585 20.0117 12.8504C23.7611 9.89775 29.2169 10.5459 32.1491 14.3148C33.3508 15.8271 33.9997 17.6995 33.9997 19.644Z" fill="#F79E1B"/>
<path d="M33.1819 25.0001V24.7121H33.3021V24.6641H33.0137V24.7121H33.1338V25.0001H33.1819ZM33.7347 25.0001V24.6641H33.6386L33.5424 24.9041L33.4463 24.6641H33.3502V25.0001H33.4223V24.7361L33.5184 24.9521H33.5905L33.6866 24.7361V25.0001H33.7347Z" fill="#F79E1B"/>
</g>
<defs>
<clipPath id="clip0_774_33519">
<rect width="28" height="17.284" fill="white" transform="translate(6 11)"/>
</clipPath>
</defs>
</svg>
