<svg width="36" height="36" viewBox="0 0 36 36" fill="none" xmlns="http://www.w3.org/2000/svg">
<path d="M22.7922 23.7332C25.3847 24.2627 28.0757 24.0186 30.5307 23.0312C29.5256 25.5322 27.7952 27.6753 25.562 29.1845C23.3288 30.6938 20.6951 31.5003 17.9997 31.5002C14.8653 31.4968 11.8296 30.4032 9.41316 28.4069C6.99671 26.4106 5.34994 23.6358 4.75515 20.5583C4.16037 17.4809 4.65462 14.2923 6.15317 11.5393C7.65173 8.78632 10.0612 6.64034 12.9687 5.46924C12.2305 7.30491 11.9047 9.28042 12.0146 11.2559C12.1245 13.2314 12.6672 15.1586 13.6044 16.9011C14.5417 18.6436 15.8504 20.1588 17.4381 21.3395C19.0258 22.5201 20.8537 23.3373 22.7922 23.7332Z" stroke="#3AB4FD" stroke-width="3" stroke-linecap="round" stroke-linejoin="round"/>
</svg>
