<svg width="16" height="21" viewBox="0 0 16 21" fill="none" xmlns="http://www.w3.org/2000/svg">
<path d="M4.9035 16.3515C5.0785 16.2482 5.26975 16.149 5.47725 16.054C5.30178 16.3153 5.11407 16.568 4.91475 16.8115C4.56475 17.2328 4.29225 17.4565 4.121 17.5265L4.07725 17.5415C4.06487 17.5242 4.054 17.5058 4.04475 17.4865C3.97475 17.349 3.97725 17.2165 4.09475 17.0365C4.22725 16.8303 4.4935 16.594 4.9035 16.3515ZM7.97225 14.2928C7.82392 14.3236 7.67559 14.3561 7.52725 14.3903C7.74766 13.9586 7.95607 13.521 8.15225 13.0778C8.34979 13.444 8.56247 13.8018 8.78975 14.1503C8.51809 14.1903 8.24559 14.2378 7.97225 14.2928ZM11.1285 15.4665C10.9347 15.3095 10.753 15.1382 10.5848 14.954C10.8714 14.9599 11.1264 14.9824 11.3498 15.0215C11.746 15.0928 11.9323 15.2053 11.9973 15.2828C12.0172 15.3048 12.0288 15.3331 12.0298 15.3628C12.0252 15.4509 11.9994 15.5367 11.9548 15.6128C11.9299 15.6739 11.8894 15.7274 11.8373 15.7678C11.8117 15.7843 11.7811 15.791 11.751 15.7865C11.6385 15.7828 11.4285 15.704 11.1285 15.4665ZM8.34725 9.53404C8.29725 9.83904 8.21225 10.189 8.09725 10.5703C8.05503 10.4275 8.01792 10.2832 7.986 10.1378C7.891 9.69654 7.87725 9.35029 7.9285 9.11029C7.976 8.88904 8.066 8.80029 8.1735 8.75654C8.23105 8.73083 8.29216 8.71397 8.35475 8.70654C8.371 8.74404 8.38975 8.82154 8.39475 8.95404C8.40142 9.10654 8.38559 9.30029 8.34725 9.53529V9.53404Z" fill="#051621"/>
<path fill-rule="evenodd" clip-rule="evenodd" d="M3 0.82373H9.61625C9.94774 0.823801 10.2656 0.955544 10.5 1.18998L15.1337 5.82373C15.3682 6.0581 15.4999 6.37599 15.5 6.70748V18.3237C15.5 18.9868 15.2366 19.6227 14.7678 20.0915C14.2989 20.5603 13.663 20.8237 13 20.8237H3C2.33696 20.8237 1.70107 20.5603 1.23223 20.0915C0.763392 19.6227 0.5 18.9868 0.5 18.3237V3.32373C0.5 2.66069 0.763392 2.0248 1.23223 1.55596C1.70107 1.08712 2.33696 0.82373 3 0.82373ZM9.875 2.69873V5.19873C9.875 5.53025 10.0067 5.84819 10.2411 6.08261C10.4755 6.31703 10.7935 6.44873 11.125 6.44873H13.625L9.875 2.69873ZM3.20625 17.9087C3.31875 18.1337 3.49375 18.3375 3.75375 18.4325C4.0125 18.5262 4.26875 18.4825 4.47875 18.395C4.87625 18.2325 5.2725 17.85 5.63625 17.4125C6.0525 16.9112 6.49 16.2537 6.9125 15.525C7.72824 15.2835 8.56349 15.1137 9.40875 15.0175C9.78375 15.4962 10.1712 15.9087 10.5462 16.205C10.8962 16.48 11.3 16.7087 11.7137 16.7262C11.9391 16.737 12.1621 16.6767 12.3512 16.5537C12.545 16.4275 12.6888 16.245 12.7937 16.0337C12.9062 15.8075 12.975 15.5712 12.9662 15.33C12.9587 15.092 12.8706 14.8637 12.7162 14.6825C12.4338 14.345 11.9712 14.1825 11.5162 14.1012C10.9643 14.0162 10.4043 13.9952 9.8475 14.0387C9.37758 13.3739 8.96763 12.6686 8.6225 11.9312C8.935 11.1062 9.16875 10.3262 9.2725 9.68873C9.3175 9.41623 9.34125 9.15623 9.3325 8.92123C9.33086 8.68797 9.2766 8.4581 9.17375 8.24873C9.11445 8.1332 9.03018 8.03232 8.92705 7.95341C8.82392 7.87449 8.70451 7.81952 8.5775 7.79248C8.325 7.73873 8.065 7.79248 7.82625 7.88873C7.355 8.07623 7.10625 8.47623 7.0125 8.91748C6.92125 9.34248 6.9625 9.83748 7.07 10.3375C7.18 10.845 7.3675 11.3975 7.6075 11.9562C7.22271 12.9106 6.77937 13.8403 6.28 14.74C5.63593 14.943 5.01501 15.2132 4.4275 15.5462C3.965 15.8212 3.55375 16.1462 3.30625 16.53C3.04375 16.9375 2.9625 17.4225 3.20625 17.9087Z" fill="#051621"/>
</svg>
