<svg width="21" height="20" viewBox="0 0 21 20" fill="none" xmlns="http://www.w3.org/2000/svg">
<g clip-path="url(#clip0_2273_17307)">
<path d="M16.125 20C17.2853 20 18.3981 19.5391 19.2186 18.7186C20.0391 17.8981 20.5 16.7853 20.5 15.625C20.5 14.4647 20.0391 13.3519 19.2186 12.5314C18.3981 11.7109 17.2853 11.25 16.125 11.25C14.9647 11.25 13.8519 11.7109 13.0314 12.5314C12.2109 13.3519 11.75 14.4647 11.75 15.625C11.75 16.7853 12.2109 17.8981 13.0314 18.7186C13.8519 19.5391 14.9647 20 16.125 20ZM18.2238 14.3837L16.555 17.1663C16.4817 17.2885 16.3814 17.3924 16.2619 17.4701C16.1424 17.5478 16.0067 17.5972 15.8652 17.6145C15.7237 17.6319 15.5801 17.6167 15.4454 17.5702C15.3106 17.5238 15.1882 17.4471 15.0875 17.3462L14.12 16.38C14.0026 16.2626 13.9367 16.1035 13.9367 15.9375C13.9367 15.7715 14.0026 15.6124 14.12 15.495C14.2374 15.3776 14.3965 15.3117 14.5625 15.3117C14.7285 15.3117 14.8876 15.3776 15.005 15.495L15.6888 16.18L17.1512 13.7413C17.1934 13.6708 17.2491 13.6094 17.315 13.5605C17.3809 13.5116 17.4558 13.4761 17.5355 13.4562C17.6151 13.4362 17.6979 13.4321 17.7791 13.4441C17.8603 13.4562 17.9383 13.4841 18.0087 13.5262C18.0792 13.5684 18.1406 13.6241 18.1895 13.69C18.2384 13.7559 18.2739 13.8308 18.2938 13.9105C18.3138 13.9901 18.3179 14.0729 18.3059 14.1541C18.2938 14.2353 18.2659 14.3133 18.2238 14.3837ZM14.25 6.25C14.25 7.24456 13.8549 8.19839 13.1517 8.90165C12.4484 9.60491 11.4946 10 10.5 10C9.50544 10 8.55161 9.60491 7.84835 8.90165C7.14509 8.19839 6.75 7.24456 6.75 6.25C6.75 5.25544 7.14509 4.30161 7.84835 3.59835C8.55161 2.89509 9.50544 2.5 10.5 2.5C11.4946 2.5 12.4484 2.89509 13.1517 3.59835C13.8549 4.30161 14.25 5.25544 14.25 6.25ZM10.5 8.75C11.163 8.75 11.7989 8.48661 12.2678 8.01777C12.7366 7.54893 13 6.91304 13 6.25C13 5.58696 12.7366 4.95107 12.2678 4.48223C11.7989 4.01339 11.163 3.75 10.5 3.75C9.83696 3.75 9.20107 4.01339 8.73223 4.48223C8.26339 4.95107 8 5.58696 8 6.25C8 6.91304 8.26339 7.54893 8.73223 8.01777C9.20107 8.48661 9.83696 8.75 10.5 8.75Z" fill="#3AB4FD"/>
<path d="M10.82 17.5C10.6769 17.094 10.5808 16.6729 10.5338 16.245H4.25C4.25125 15.9375 4.4425 15.0125 5.29 14.165C6.105 13.35 7.63875 12.5 10.5 12.5C10.825 12.5 11.1333 12.5104 11.425 12.5312C11.7075 12.105 12.045 11.7188 12.43 11.3838C11.8467 11.2963 11.2033 11.2517 10.5 11.25C4.25 11.25 3 15 3 16.25C3 17.5 4.25 17.5 4.25 17.5H10.82Z" fill="#3AB4FD"/>
</g>
<defs>
<clipPath id="clip0_2273_17307">
<rect width="20" height="20" fill="white" transform="translate(0.5)"/>
</clipPath>
</defs>
</svg>
