<svg width="36" height="36" viewBox="0 0 36 36" fill="none" xmlns="http://www.w3.org/2000/svg">
<path d="M25.4988 29.9997H32.9988V26.9997C32.9988 26.0645 32.7073 25.1525 32.1651 24.3906C31.6228 23.6287 30.8566 23.0547 29.973 22.7483C29.0894 22.4419 28.1323 22.4185 27.2347 22.6812C26.3372 22.9439 25.5438 23.4797 24.9648 24.2142" stroke="#3AB4FD" stroke-width="3" stroke-linecap="round" stroke-linejoin="round"/>
<path d="M10.5 29.9997H25.5V26.9997C25.5027 25.7736 25.2036 24.5656 24.6291 23.4824C24.0547 22.3991 23.2225 21.4739 22.206 20.7882C21.0779 20.0254 19.7635 19.5839 18.4037 19.5112C17.0438 19.4385 15.6898 19.7372 14.4868 20.3754C13.2838 21.0136 12.2772 21.9672 11.5749 23.1339C10.8725 24.3006 10.501 25.6364 10.5 26.9982V29.9997Z" stroke="#3AB4FD" stroke-width="3" stroke-linecap="round" stroke-linejoin="round"/>
<path d="M11.034 24.2142C10.455 23.4797 9.66165 22.9439 8.76411 22.6812C7.86657 22.4185 6.90947 22.4419 6.02588 22.7483C5.14228 23.0547 4.37608 23.6287 3.83379 24.3906C3.2915 25.1525 3.00007 26.0645 3 26.9997V29.9997H10.5" stroke="#3AB4FD" stroke-width="3" stroke-linecap="round" stroke-linejoin="round"/>
<path d="M30.6212 17.1208C30.9078 16.844 31.1363 16.513 31.2935 16.147C31.4508 15.781 31.5335 15.3873 31.537 14.989C31.5405 14.5906 31.4646 14.1956 31.3137 13.8269C31.1629 13.4582 30.9401 13.1232 30.6584 12.8416C30.3767 12.5599 30.0418 12.3371 29.6731 12.1863C29.3044 12.0354 28.9094 11.9595 28.511 11.963C28.1127 11.9665 27.719 12.0492 27.353 12.2065C26.987 12.3637 26.656 12.5922 26.3792 12.8788C25.8328 13.4446 25.5304 14.2024 25.5372 14.989C25.5441 15.7755 25.8596 16.528 26.4158 17.0842C26.972 17.6404 27.7245 17.9559 28.511 17.9628C29.2976 17.9696 30.0554 17.6672 30.6212 17.1208Z" stroke="#3AB4FD" stroke-width="3" stroke-linecap="round" stroke-linejoin="round"/>
<path d="M22.5 10.4995C22.5 11.693 22.0259 12.8376 21.182 13.6815C20.3381 14.5254 19.1935 14.9995 18 14.9995C16.8065 14.9995 15.6619 14.5254 14.818 13.6815C13.9741 12.8376 13.5 11.693 13.5 10.4995C13.5 9.30604 13.9741 8.16145 14.818 7.31753C15.6619 6.47362 16.8065 5.99951 18 5.99951C19.1935 5.99951 20.3381 6.47362 21.182 7.31753C22.0259 8.16145 22.5 9.30604 22.5 10.4995Z" stroke="#3AB4FD" stroke-width="3" stroke-linecap="round" stroke-linejoin="round"/>
<path d="M9.62124 17.1208C9.90777 16.844 10.1363 16.513 10.2935 16.147C10.4508 15.781 10.5335 15.3873 10.537 14.989C10.5405 14.5906 10.4646 14.1956 10.3137 13.8269C10.1629 13.4582 9.94011 13.1232 9.65843 12.8416C9.37675 12.5599 9.0418 12.3371 8.67311 12.1863C8.30442 12.0354 7.90938 11.9595 7.51104 11.963C7.1127 11.9665 6.71904 12.0492 6.35303 12.2065C5.98702 12.3637 5.65599 12.5922 5.37924 12.8788C4.83277 13.4446 4.53039 14.2024 4.53722 14.989C4.54406 15.7755 4.85956 16.528 5.41579 17.0842C5.97201 17.6404 6.72445 17.9559 7.51104 17.9628C8.29763 17.9696 9.05544 17.6672 9.62124 17.1208Z" stroke="#3AB4FD" stroke-width="3" stroke-linecap="round" stroke-linejoin="round"/>
</svg>
