<svg width="40" height="40" viewBox="0 0 40 40" fill="none" xmlns="http://www.w3.org/2000/svg">
<g filter="url(#filter0_b_774_33453)">
<circle cx="20" cy="20" r="20" fill="black" fill-opacity="0.5"/>
</g>
<path fill-rule="evenodd" clip-rule="evenodd" d="M22.2188 12.4609C22.2188 13.0129 22.6667 13.4609 23.2187 13.4609H26.5427V16.7849C26.5427 17.0502 26.6481 17.3045 26.8356 17.492C27.0232 17.6796 27.2775 17.7849 27.5427 17.7849C27.808 17.7849 28.0623 17.6796 28.2499 17.492C28.4374 17.3045 28.5427 17.0502 28.5427 16.7849V12.4609C28.5427 12.1957 28.4374 11.9414 28.2499 11.7538C28.0623 11.5663 27.808 11.4609 27.5427 11.4609H23.2187C22.9535 11.4609 22.6992 11.5663 22.5116 11.7538C22.3241 11.9414 22.2188 12.1957 22.2188 12.4609Z" fill="white"/>
<path fill-rule="evenodd" clip-rule="evenodd" d="M27.5427 22.2188C27.2775 22.2188 27.0232 22.3241 26.8356 22.5116C26.6481 22.6992 26.5427 22.9535 26.5427 23.2187V26.5427H23.2187C22.9535 26.5427 22.6992 26.6481 22.5116 26.8356C22.3241 27.0232 22.2188 27.2775 22.2188 27.5427C22.2188 27.808 22.3241 28.0623 22.5116 28.2499C22.6992 28.4374 22.9535 28.5427 23.2187 28.5427H27.5427C27.808 28.5427 28.0623 28.4374 28.2499 28.2499C28.4374 28.0623 28.5427 27.808 28.5427 27.5427V23.2187C28.5427 22.9535 28.4374 22.6992 28.2499 22.5116C28.0623 22.3241 27.808 22.2188 27.5427 22.2188Z" fill="white"/>
<path fill-rule="evenodd" clip-rule="evenodd" d="M12.457 22.2188C12.7222 22.2188 12.9766 22.3241 13.1641 22.5116C13.3517 22.6992 13.457 22.9535 13.457 23.2187V26.5427H16.781C17.0462 26.5427 17.3006 26.6481 17.4881 26.8356C17.6757 27.0232 17.781 27.2775 17.781 27.5427C17.781 27.808 17.6757 28.0623 17.4881 28.2499C17.3006 28.4374 17.0462 28.5427 16.781 28.5427H12.457C12.1918 28.5427 11.9375 28.4374 11.7499 28.2499C11.5624 28.0623 11.457 27.808 11.457 27.5427V23.2187C11.457 22.9535 11.5624 22.6992 11.7499 22.5116C11.9375 22.3241 12.1918 22.2188 12.457 22.2188Z" fill="white"/>
<path fill-rule="evenodd" clip-rule="evenodd" d="M17.781 12.4609C17.781 12.7262 17.6757 12.9805 17.4881 13.168C17.3006 13.3556 17.0462 13.4609 16.781 13.4609H13.457V16.7849C13.457 17.0502 13.3517 17.3045 13.1641 17.492C12.9766 17.6796 12.7222 17.7849 12.457 17.7849C12.1918 17.7849 11.9375 17.6796 11.7499 17.492C11.5624 17.3045 11.457 17.0502 11.457 16.7849V12.4609C11.457 12.1957 11.5624 11.9414 11.7499 11.7538C11.9375 11.5663 12.1918 11.4609 12.457 11.4609H16.781C17.0462 11.4609 17.3006 11.5663 17.4881 11.7538C17.6757 11.9414 17.781 12.1957 17.781 12.4609Z" fill="white"/>
<defs>
<filter id="filter0_b_774_33453" x="-20" y="-20" width="80" height="80" filterUnits="userSpaceOnUse" color-interpolation-filters="sRGB">
<feFlood flood-opacity="0" result="BackgroundImageFix"/>
<feGaussianBlur in="BackgroundImageFix" stdDeviation="10"/>
<feComposite in2="SourceAlpha" operator="in" result="effect1_backgroundBlur_774_33453"/>
<feBlend mode="normal" in="SourceGraphic" in2="effect1_backgroundBlur_774_33453" result="shape"/>
</filter>
</defs>
</svg>
