<svg width="18" height="20" viewBox="0 0 18 20" fill="none" xmlns="http://www.w3.org/2000/svg">
<path d="M5.67251 1.9875C4.48193 2.3154 3.2995 2.67217 2.12626 3.0575C2.01904 3.09208 1.92373 3.15614 1.85122 3.24235C1.77871 3.32856 1.73194 3.43345 1.71626 3.545C1.02376 8.74125 2.62376 12.5325 4.53251 15.03C5.3403 16.0983 6.30396 17.0392 7.39126 17.8213C7.82376 18.1262 8.20626 18.3463 8.50751 18.4875C8.65751 18.5583 8.77959 18.6075 8.87376 18.635C8.91527 18.6476 8.95741 18.658 9.00001 18.6663C9.04218 18.658 9.08391 18.6476 9.12501 18.635C9.22001 18.6067 9.34251 18.5575 9.49251 18.4875C9.79251 18.3463 10.1763 18.125 10.6088 17.8213C11.6961 17.0392 12.6597 16.0983 13.4675 15.03C15.3763 12.5338 16.9763 8.74125 16.2838 3.545C16.2681 3.43345 16.2213 3.32856 16.1488 3.24235C16.0763 3.15614 15.981 3.09208 15.8738 3.0575C15.06 2.79125 13.6863 2.3575 12.3275 1.98875C10.94 1.6125 9.66376 1.33375 9.00001 1.33375C8.33751 1.33375 7.06001 1.61125 5.67251 1.9875ZM5.34001 0.7C6.69626 0.33125 8.13751 0 9.00001 0C9.86251 0 11.3038 0.33125 12.66 0.7C14.0475 1.075 15.4463 1.51875 16.2688 1.7875C16.6126 1.90106 16.9175 2.10933 17.1484 2.38838C17.3792 2.66742 17.5266 3.00592 17.5738 3.365C18.3188 8.96125 16.59 13.1088 14.4925 15.8525C13.6027 17.0259 12.5422 18.0595 11.3463 18.9188C10.9332 19.2168 10.4948 19.4782 10.0363 19.7C9.68626 19.865 9.31001 20 9.00001 20C8.69001 20 8.31501 19.865 7.96376 19.7C7.50518 19.4782 7.06685 19.2168 6.65376 18.9188C5.45782 18.0595 4.39731 17.0259 3.50751 15.8525C1.41001 13.1088 -0.318743 8.96125 0.426257 3.365C0.473366 3.00592 0.620811 2.66742 0.851653 2.38838C1.0825 2.10933 1.38737 1.90106 1.73126 1.7875C2.92532 1.39626 4.12859 1.03366 5.34001 0.7Z" fill="#3AB4FD"/>
<path d="M10.875 8.12499C10.8752 8.5129 10.7551 8.89132 10.5312 9.20811C10.3073 9.52489 9.99072 9.76444 9.625 9.89374L10.1063 12.3812C10.1238 12.4717 10.121 12.5649 10.0983 12.6542C10.0756 12.7435 10.0333 12.8267 9.97469 12.8978C9.91604 12.9689 9.8424 13.0261 9.75903 13.0654C9.67567 13.1047 9.58465 13.125 9.4925 13.125H8.5075C8.41545 13.1248 8.32458 13.1043 8.24137 13.065C8.15816 13.0256 8.08467 12.9684 8.02616 12.8973C7.96764 12.8263 7.92555 12.7432 7.90287 12.6539C7.8802 12.5647 7.87751 12.4716 7.895 12.3812L8.375 9.89374C8.05095 9.77918 7.76463 9.57774 7.54732 9.31145C7.33001 9.04516 7.19008 8.72426 7.14281 8.38382C7.09555 8.04338 7.14277 7.69649 7.27932 7.38108C7.41587 7.06566 7.63648 6.79384 7.91707 6.59533C8.19765 6.39682 8.5274 6.27925 8.87028 6.25547C9.21316 6.23169 9.55599 6.30262 9.86129 6.4605C10.1666 6.61838 10.4226 6.85714 10.6014 7.15069C10.7802 7.44424 10.8748 7.78129 10.875 8.12499Z" fill="#3AB4FD"/>
</svg>
