<svg width="26" height="26" viewBox="0 0 26 26" fill="none" xmlns="http://www.w3.org/2000/svg">
<path d="M11.7642 3.80406C12.1542 2.60698 13.8474 2.60698 14.2363 3.80406L15.6273 8.08323C15.7121 8.34407 15.8772 8.5714 16.0991 8.73271C16.3209 8.89402 16.588 8.98104 16.8623 8.98131H21.3636C22.6224 8.98131 23.1456 10.5933 22.1273 11.3343L18.4873 13.9776C18.2649 14.1389 18.0993 14.3664 18.0143 14.6276C17.9292 14.8888 17.9291 15.1702 18.0139 15.4315L19.4049 19.7106C19.7949 20.9088 18.4234 21.9055 17.4029 21.1645L13.7629 18.5211C13.5409 18.36 13.2735 18.2731 12.9992 18.2731C12.7248 18.2731 12.4574 18.36 12.2354 18.5211L8.5954 21.1645C7.57707 21.9055 6.20665 20.9088 6.59557 19.7117L7.98657 15.4326C8.07137 15.1713 8.07124 14.8899 7.98619 14.6287C7.90114 14.3675 7.73554 14.14 7.51315 13.9787L3.87423 11.3354C2.8559 10.5944 3.38023 8.9824 4.63907 8.9824H9.13815C9.41248 8.98242 9.67978 8.89567 9.9018 8.73455C10.1238 8.57343 10.2892 8.34621 10.3742 8.0854L11.7652 3.80623L11.7642 3.80406Z" fill="#EEECB6"/>
</svg>
