<svg width="18" height="17" viewBox="0 0 18 17" fill="none" xmlns="http://www.w3.org/2000/svg">
<path d="M7.95342 1.22063C8.28342 0.207708 9.71617 0.207708 10.0453 1.22063L11.2223 4.84146C11.294 5.06217 11.4337 5.25453 11.6214 5.39102C11.8091 5.52751 12.0352 5.60114 12.2673 5.60138H16.076C17.1412 5.60138 17.5839 6.96538 16.7222 7.59238L13.6423 9.82904C13.4541 9.96547 13.314 10.158 13.242 10.379C13.17 10.6 13.1699 10.8381 13.2417 11.0592L14.4187 14.68C14.7487 15.6939 13.5882 16.5372 12.7247 15.9102L9.64467 13.6735C9.45679 13.5371 9.23058 13.4637 8.99842 13.4637C8.76625 13.4637 8.54004 13.5371 8.35217 13.6735L5.27217 15.9102C4.4105 16.5372 3.25092 15.6939 3.58 14.681L4.757 11.0601C4.82876 10.8391 4.82865 10.6009 4.75668 10.3799C4.68471 10.1589 4.54459 9.96639 4.35642 9.82996L1.27733 7.59329C0.415668 6.96629 0.859334 5.60229 1.9245 5.60229H5.73142C5.96354 5.60231 6.18972 5.52891 6.37758 5.39258C6.56545 5.25624 6.70538 5.06398 6.77733 4.84329L7.95433 1.22246L7.95342 1.22063Z" fill="#EFE60F"/>
</svg>
