<svg width="27" height="26" viewBox="0 0 27 26" fill="none" xmlns="http://www.w3.org/2000/svg">
<g clip-path="url(#clip0_774_34048)">
<path d="M4.90626 14.1254C5.11083 15.6853 5.73618 17.1602 6.71524 18.3917C7.69431 19.6233 8.99015 20.5651 10.4638 21.1161C11.9374 21.6672 13.5333 21.8067 15.0802 21.5197C16.6271 21.2328 18.0667 20.5301 19.2447 19.4871C20.4226 18.4441 21.2944 17.1002 21.7665 15.5994C22.2387 14.0986 22.2934 12.4976 21.9248 10.9681C21.5562 9.43856 20.7782 8.03822 19.6743 6.91725C18.5703 5.79628 17.182 4.99697 15.6583 4.60503C11.4344 3.5217 7.06209 5.69595 5.44792 9.74762" stroke="#051621" stroke-width="2.16667" stroke-linecap="round" stroke-linejoin="round"/>
<path d="M4.83333 4.33594V9.7526H10.25" stroke="#051621" stroke-width="2.16667" stroke-linecap="round" stroke-linejoin="round"/>
</g>
<defs>
<clipPath id="clip0_774_34048">
<rect width="26" height="26" fill="white" transform="matrix(-1 0 0 1 26.5 0)"/>
</clipPath>
</defs>
</svg>
