<svg width="17" height="18" viewBox="0 0 17 18" fill="none" xmlns="http://www.w3.org/2000/svg">
<g clip-path="url(#clip0_1341_6359)">
<path d="M14.1673 12.8654V4.3654C14.1673 3.57136 13.5447 2.94873 12.7507 2.94873C11.9566 2.94873 11.334 3.57136 11.334 4.3654V12.8654L12.7507 14.2821L14.1673 12.8654Z" stroke="white" stroke-width="1.41667" stroke-linecap="round" stroke-linejoin="round"/>
<path d="M11.334 5.78174H14.1673" stroke="white" stroke-width="1.41667" stroke-linecap="round" stroke-linejoin="round"/>
<path d="M12.75 14.2824H3.54167C3.16594 14.2824 2.80561 14.1331 2.53993 13.8675C2.27426 13.6018 2.125 13.2414 2.125 12.8657C2.125 12.49 2.27426 12.1297 2.53993 11.864C2.80561 11.5983 3.16594 11.4491 3.54167 11.4491H6.375C6.75072 11.4491 7.11106 11.2998 7.37673 11.0341C7.64241 10.7684 7.79167 10.4081 7.79167 10.0324C7.79167 9.65667 7.64241 9.29633 7.37673 9.03065C7.11106 8.76498 6.75072 8.61572 6.375 8.61572H4.25" stroke="white" stroke-width="1.41667" stroke-linecap="round" stroke-linejoin="round"/>
</g>
<defs>
<clipPath id="clip0_1341_6359">
<rect width="17" height="17" fill="white" transform="translate(0 0.82373)"/>
</clipPath>
</defs>
</svg>
