<svg width="25" height="26" viewBox="0 0 25 26" fill="none" xmlns="http://www.w3.org/2000/svg">
<path fill-rule="evenodd" clip-rule="evenodd" d="M3.38672 13.3211C3.38672 10.9038 4.347 8.58546 6.05632 6.87614C7.76563 5.16683 10.084 4.20654 12.5013 4.20654C14.9186 4.20654 17.237 5.16683 18.9463 6.87614C20.6556 8.58546 21.6159 10.9038 21.6159 13.3211C21.6159 15.7385 20.6556 18.0568 18.9463 19.7661C17.237 21.4754 14.9186 22.4357 12.5013 22.4357C10.084 22.4357 7.76563 21.4754 6.05632 19.7661C4.347 18.0568 3.38672 15.7385 3.38672 13.3211ZM13.543 9.15446C13.543 9.43073 13.4332 9.69568 13.2379 9.89103C13.0425 10.0864 12.7776 10.1961 12.5013 10.1961C12.225 10.1961 11.9601 10.0864 11.7647 9.89103C11.5694 9.69568 11.4596 9.43073 11.4596 9.15446C11.4596 8.87819 11.5694 8.61324 11.7647 8.41789C11.9601 8.22254 12.225 8.11279 12.5013 8.11279C12.7776 8.11279 13.0425 8.22254 13.2379 8.41789C13.4332 8.61324 13.543 8.87819 13.543 9.15446ZM12.5013 12.019C12.7085 12.019 12.9072 12.1014 13.0537 12.2479C13.2002 12.3944 13.2826 12.5931 13.2826 12.8003V18.0086C13.2826 18.2158 13.2002 18.4145 13.0537 18.5611C12.9072 18.7076 12.7085 18.7899 12.5013 18.7899C12.2941 18.7899 12.0954 18.7076 11.9489 18.5611C11.8024 18.4145 11.7201 18.2158 11.7201 18.0086V12.8003C11.7201 12.5931 11.8024 12.3944 11.9489 12.2479C12.0954 12.1014 12.2941 12.019 12.5013 12.019Z" fill="#3AB4FD"/>
</svg>
