<svg width="14" height="15" viewBox="0 0 14 15" fill="none" xmlns="http://www.w3.org/2000/svg">
<path d="M4.66667 4.58333V2.25M9.33333 4.58333V2.25M4.08333 6.91667H9.91667M2.91667 12.75H11.0833C11.3928 12.75 11.6895 12.6271 11.9083 12.4083C12.1271 12.1895 12.25 11.8928 12.25 11.5833V4.58333C12.25 4.27391 12.1271 3.97717 11.9083 3.75838C11.6895 3.53958 11.3928 3.41667 11.0833 3.41667H2.91667C2.60725 3.41667 2.3105 3.53958 2.09171 3.75838C1.87292 3.97717 1.75 4.27391 1.75 4.58333V11.5833C1.75 11.8928 1.87292 12.1895 2.09171 12.4083C2.3105 12.6271 2.60725 12.75 2.91667 12.75Z" stroke="#969696" stroke-width="1.16667" stroke-linecap="round" stroke-linejoin="round"/>
</svg>
