<svg width="14" height="15" viewBox="0 0 14 15" fill="none" xmlns="http://www.w3.org/2000/svg">
<path d="M9.91616 12.1665H12.8328V10.9999C12.8328 10.6362 12.7195 10.2815 12.5086 9.98524C12.2977 9.68894 11.9997 9.4657 11.6561 9.34656C11.3125 9.22742 10.9403 9.2183 10.5912 9.32047C10.2422 9.42263 9.93365 9.63101 9.7085 9.91662" stroke="#969696" stroke-width="1.16667" stroke-linecap="round" stroke-linejoin="round"/>
<path d="M4.08301 12.169H9.91634V11.0023C9.91737 10.5255 9.80106 10.0557 9.57767 9.63445C9.35427 9.21319 9.03065 8.85337 8.63534 8.58672C8.19665 8.29005 7.68548 8.11838 7.15665 8.0901C6.62782 8.06182 6.10127 8.178 5.63344 8.42618C5.16561 8.67437 4.77414 9.0452 4.50101 9.49891C4.22788 9.95263 4.08338 10.4721 4.08301 11.0017V12.169Z" stroke="#969696" stroke-width="1.16667" stroke-linecap="round" stroke-linejoin="round"/>
<path d="M4.29084 9.91662C4.06569 9.63101 3.75715 9.42263 3.4081 9.32047C3.05906 9.2183 2.68685 9.22742 2.34323 9.34656C1.99961 9.4657 1.70165 9.68894 1.49076 9.98524C1.27987 10.2815 1.16653 10.6362 1.1665 10.9999V12.1665H4.08317" stroke="#969696" stroke-width="1.16667" stroke-linecap="round" stroke-linejoin="round"/>
<path d="M11.9083 7.15427C12.0197 7.04665 12.1086 6.91792 12.1698 6.77558C12.2309 6.63324 12.2631 6.48015 12.2644 6.32524C12.2658 6.17033 12.2363 6.01671 12.1776 5.87333C12.1189 5.72995 12.0323 5.59969 11.9228 5.49015C11.8132 5.3806 11.683 5.29398 11.5396 5.23531C11.3962 5.17665 11.2426 5.14714 11.0877 5.14848C10.9328 5.14983 10.7797 5.18201 10.6373 5.24316C10.495 5.3043 10.3663 5.39318 10.2586 5.50461C10.0461 5.72464 9.92854 6.01935 9.9312 6.32524C9.93385 6.63114 10.0566 6.92375 10.2729 7.14006C10.4892 7.35637 10.7818 7.47907 11.0877 7.48173C11.3936 7.48439 11.6883 7.36679 11.9083 7.15427Z" stroke="#969696" stroke-width="1.16667" stroke-linecap="round" stroke-linejoin="round"/>
<path d="M8.75 4.58594C8.75 5.05007 8.56563 5.49519 8.23744 5.82337C7.90925 6.15156 7.46413 6.33594 7 6.33594C6.53587 6.33594 6.09075 6.15156 5.76256 5.82337C5.43437 5.49519 5.25 5.05007 5.25 4.58594C5.25 4.12181 5.43437 3.67669 5.76256 3.3485C6.09075 3.02031 6.53587 2.83594 7 2.83594C7.46413 2.83594 7.90925 3.02031 8.23744 3.3485C8.56563 3.67669 8.75 4.12181 8.75 4.58594Z" stroke="#969696" stroke-width="1.16667" stroke-linecap="round" stroke-linejoin="round"/>
<path d="M3.74181 7.15427C3.85324 7.04665 3.94212 6.91792 4.00326 6.77558C4.06441 6.63324 4.09659 6.48015 4.09794 6.32524C4.09928 6.17033 4.06977 6.01671 4.0111 5.87333C3.95244 5.72995 3.86581 5.59969 3.75627 5.49015C3.64673 5.3806 3.51647 5.29398 3.37309 5.23531C3.22971 5.17665 3.07609 5.14714 2.92118 5.14848C2.76627 5.14983 2.61318 5.18201 2.47084 5.24316C2.3285 5.3043 2.19977 5.39318 2.09215 5.50461C1.87963 5.72464 1.76203 6.01935 1.76469 6.32524C1.76735 6.63114 1.89005 6.92375 2.10636 7.14006C2.32267 7.35637 2.61528 7.47907 2.92118 7.48173C3.22707 7.48439 3.52178 7.36679 3.74181 7.15427Z" stroke="#969696" stroke-width="1.16667" stroke-linecap="round" stroke-linejoin="round"/>
</svg>
