<svg width="8" height="6" viewBox="0 0 8 6" fill="none" xmlns="http://www.w3.org/2000/svg">
<path fill-rule="evenodd" clip-rule="evenodd" d="M6.99383 0.708715C7.0737 0.788684 7.11856 0.897085 7.11856 1.01011C7.11856 1.12313 7.0737 1.23153 6.99383 1.3115L3.01318 5.29215C2.93322 5.37202 2.82481 5.41688 2.71179 5.41688C2.59877 5.41688 2.49037 5.37202 2.4104 5.29215L0.135745 3.01749C0.0938416 2.97845 0.0602323 2.93136 0.0369216 2.87904C0.013611 2.82673 0.00107677 2.77025 6.63759e-05 2.71298C-0.000944017 2.65572 0.00959014 2.59884 0.0310407 2.54573C0.0524913 2.49262 0.0844187 2.44438 0.124918 2.40388C0.165418 2.36338 0.21366 2.33145 0.266766 2.31C0.319873 2.28855 0.376756 2.27802 0.434022 2.27903C0.491288 2.28004 0.547764 2.29257 0.60008 2.31588C0.652397 2.33919 0.699483 2.3728 0.738529 2.41471L2.71179 4.38797L6.39105 0.708715C6.47102 0.628846 6.57942 0.583984 6.69244 0.583984C6.80546 0.583984 6.91386 0.628846 6.99383 0.708715Z" fill="#55B938"/>
</svg>
