<svg width="14" height="16" viewBox="0 0 14 16" fill="none" xmlns="http://www.w3.org/2000/svg">
<path d="M11.2428 10.9925L8.0605 14.1748C7.92138 14.3142 7.75614 14.4248 7.57423 14.5002C7.39232 14.5757 7.19732 14.6145 7.00038 14.6145C6.80344 14.6145 6.60843 14.5757 6.42652 14.5002C6.24461 14.4248 6.07937 14.3142 5.94025 14.1748L2.75725 10.9925C1.91817 10.1534 1.34675 9.08431 1.11527 7.92043C0.883782 6.75655 1.00262 5.55017 1.45676 4.45383C1.91089 3.35749 2.67993 2.42044 3.66661 1.76116C4.6533 1.10189 5.81333 0.75 7 0.75C8.18668 0.75 9.3467 1.10189 10.3334 1.76116C11.3201 2.42044 12.0891 3.35749 12.5433 4.45383C12.9974 5.55017 13.1162 6.75655 12.8847 7.92043C12.6533 9.08431 12.0818 10.1534 11.2428 10.9925Z" stroke="#051621" stroke-width="1.5" stroke-linecap="round" stroke-linejoin="round"/>
</svg>
