<svg width="12" height="12" viewBox="0 0 12 12" fill="none" xmlns="http://www.w3.org/2000/svg">
<path d="M7.86374 7.72767C8.87195 7.93356 9.91845 7.83863 10.8732 7.45467C10.4823 8.42728 9.80935 9.26067 8.94089 9.84762C8.07242 10.4346 7.04819 10.7482 5.99999 10.7482C4.78104 10.7468 3.60052 10.3216 2.66078 9.5452C1.72105 8.76885 1.08064 7.68978 0.849335 6.49298C0.61803 5.29618 0.810238 4.0562 1.39301 2.98559C1.97578 1.91498 2.91282 1.08043 4.04349 0.625C3.75639 1.33887 3.62973 2.10713 3.67245 2.87538C3.71518 3.64363 3.92625 4.3931 4.29072 5.07074C4.6552 5.74838 5.16417 6.33762 5.78161 6.79675C6.39905 7.25588 7.10986 7.57369 7.86374 7.72767Z" stroke="#969696" stroke-width="1.16667" stroke-linecap="round" stroke-linejoin="round"/>
</svg>
