<svg width="28" height="28" viewBox="0 0 28 28" fill="none" xmlns="http://www.w3.org/2000/svg">
<path d="M8.74992 16.3333C10.3607 16.3333 11.6666 15.0275 11.6666 13.4167C11.6666 11.8058 10.3607 10.5 8.74992 10.5C7.13909 10.5 5.83325 11.8058 5.83325 13.4167C5.83325 15.0275 7.13909 16.3333 8.74992 16.3333Z" fill="#051621"/>
<path d="M20.0724 8.16667H13.9999C13.3548 8.16667 12.8333 8.68817 12.8333 9.33333V17.5H4.66659V7H2.33325V23.3333H4.66659V19.8333H13.9999H23.3333V23.3333H25.6666V18.6667V18.6387V17.5V13.7608C25.6666 10.6762 23.1571 8.16667 20.0724 8.16667ZM15.1666 17.5V10.5H20.0724C21.8703 10.5 23.3333 11.963 23.3333 13.7608V17.5H15.1666Z" fill="#051621"/>
</svg>
