<svg width="14" height="15" viewBox="0 0 14 15" fill="none" xmlns="http://www.w3.org/2000/svg">
<g clip-path="url(#clip0_2773_35053)">
<path d="M4.80816 4.78309L1.08649 5.32267L1.02057 5.33609C0.920789 5.36258 0.829822 5.41507 0.756962 5.48822C0.684102 5.56137 0.63196 5.65254 0.605861 5.75243C0.579762 5.85231 0.580641 5.95734 0.608407 6.05678C0.636174 6.15622 0.689834 6.2465 0.763908 6.31842L3.46007 8.94284L2.82424 12.6499L2.81666 12.7141C2.81055 12.8173 2.83198 12.9203 2.87875 13.0125C2.92553 13.1047 2.99597 13.1828 3.08285 13.2388C3.16974 13.2948 3.26996 13.3268 3.37324 13.3313C3.47653 13.3359 3.57917 13.3129 3.67066 13.2648L6.99916 11.5148L10.3201 13.2648L10.3784 13.2916C10.4747 13.3295 10.5793 13.3411 10.6816 13.3253C10.7839 13.3094 10.8801 13.2666 10.9603 13.2013C11.0406 13.136 11.1021 13.0505 11.1384 12.9536C11.1747 12.8567 11.1846 12.7519 11.1671 12.6499L10.5307 8.94284L13.228 6.31784L13.2735 6.26825C13.3385 6.1882 13.3811 6.09235 13.397 5.99047C13.4129 5.88858 13.4015 5.78431 13.364 5.68826C13.3264 5.59222 13.2641 5.50784 13.1834 5.44372C13.1026 5.3796 13.0063 5.33803 12.9042 5.32325L9.18257 4.78309L7.51891 1.41142C7.47077 1.31373 7.39624 1.23147 7.30377 1.17395C7.21129 1.11642 7.10456 1.08594 6.99566 1.08594C6.88675 1.08594 6.78002 1.11642 6.68755 1.17395C6.59507 1.23147 6.52055 1.31373 6.47241 1.41142L4.80816 4.78309Z" fill="#FFDF00"/>
</g>
<defs>
<clipPath id="clip0_2773_35053">
<rect width="14" height="14" fill="white" transform="translate(0 0.5)"/>
</clipPath>
</defs>
</svg>
