<svg width="5" height="8" viewBox="0 0 5 8" fill="none" xmlns="http://www.w3.org/2000/svg">
<path fill-rule="evenodd" clip-rule="evenodd" d="M0.308299 0.221846C0.425487 0.104804 0.58434 0.0390625 0.749965 0.0390625C0.915591 0.0390625 1.07444 0.104804 1.19163 0.221846L4.52496 3.55518C4.64201 3.67237 4.70775 3.83122 4.70775 3.99685C4.70775 4.16247 4.64201 4.32132 4.52496 4.43851L1.19163 7.77185C1.13441 7.83325 1.06541 7.8825 0.988747 7.91666C0.912081 7.95082 0.82932 7.96919 0.7454 7.97067C0.661481 7.97215 0.578124 7.95672 0.500301 7.92528C0.422477 7.89385 0.351783 7.84706 0.292434 7.78771C0.233085 7.72836 0.186297 7.65767 0.154863 7.57984C0.123429 7.50202 0.107992 7.41866 0.109472 7.33474C0.110953 7.25082 0.129321 7.16806 0.163481 7.0914C0.197641 7.01473 0.246893 6.94573 0.308299 6.88851L3.19997 3.99685L0.308299 1.10518C0.191257 0.987991 0.125515 0.829138 0.125515 0.663513C0.125515 0.497887 0.191257 0.339033 0.308299 0.221846Z" fill="#051621"/>
</svg>
