<svg width="13" height="13" viewBox="0 0 13 13" fill="none" xmlns="http://www.w3.org/2000/svg">
<g clip-path="url(#clip0_1129_3996)">
<path d="M5.69787 1.17185C5.84438 1.02539 6.04306 0.943115 6.25022 0.943115C6.45738 0.943115 6.65605 1.02539 6.80256 1.17185L8.59397 2.96326V1.9531C8.59397 1.8495 8.63512 1.75015 8.70838 1.67689C8.78164 1.60363 8.88099 1.56248 8.98459 1.56248H9.76584C9.86944 1.56248 9.9688 1.60363 10.0421 1.67689C10.1153 1.75015 10.1565 1.8495 10.1565 1.9531V4.52576L11.9955 6.36404C12.0688 6.43739 12.1099 6.53683 12.1098 6.64049C12.1097 6.74415 12.0685 6.84353 11.9951 6.91678C11.9218 6.99002 11.8223 7.03113 11.7187 7.03106C11.615 7.03098 11.5157 6.98974 11.4424 6.91639L6.25022 1.7242L1.05803 6.91639C0.984784 6.98974 0.885401 7.03098 0.781744 7.03106C0.678086 7.03113 0.578644 6.99002 0.505295 6.91678C0.431947 6.84353 0.390698 6.74415 0.390625 6.64049C0.390552 6.53683 0.43166 6.43739 0.504905 6.36404L5.69787 1.17185Z" fill="#D1FFC4"/>
<path d="M10.9375 7.26001L6.25 2.57251L1.5625 7.26001V10.5467C1.5625 10.8575 1.68597 11.1556 1.90573 11.3754C2.1255 11.5951 2.42357 11.7186 2.73438 11.7186H9.76562C10.0764 11.7186 10.3745 11.5951 10.5943 11.3754C10.814 11.1556 10.9375 10.8575 10.9375 10.5467V7.26001ZM6.25 6.62642C7.55 5.31938 10.8008 7.6061 6.25 10.5467C1.69922 7.6061 4.95 5.31938 6.25 6.62642Z" fill="#D1FFC4"/>
</g>
<defs>
<clipPath id="clip0_1129_3996">
<rect width="12.5" height="12.5" fill="white"/>
</clipPath>
</defs>
</svg>
