<svg width="16" height="16" viewBox="0 0 16 16" fill="none" xmlns="http://www.w3.org/2000/svg">
<path d="M4.7156 6.542L3.3436 7.914C2.78094 8.47666 2.46484 9.23978 2.46484 10.0355C2.46484 10.8312 2.78094 11.5943 3.3436 12.157C3.90625 12.7197 4.66938 13.0358 5.4651 13.0358C6.26081 13.0358 7.02394 12.7197 7.5866 12.157L9.4146 10.328C9.75389 9.98866 10.0068 9.57287 10.1522 9.11555C10.2975 8.65822 10.3311 8.1727 10.25 7.69974C10.1688 7.22677 9.97546 6.78016 9.68603 6.3974C9.3966 6.01464 9.01957 5.7069 8.5866 5.5L8.0006 6.086C7.94109 6.14558 7.88935 6.21245 7.8466 6.285C8.18112 6.38117 8.48476 6.56298 8.72749 6.81246C8.97022 7.06194 9.14364 7.37044 9.2306 7.70748C9.31756 8.04452 9.31505 8.39842 9.22333 8.73419C9.1316 9.06996 8.95384 9.37598 8.7076 9.622L6.8806 11.45C6.50532 11.8253 5.99633 12.0361 5.4656 12.0361C4.93487 12.0361 4.42588 11.8253 4.0506 11.45C3.67532 11.0747 3.46449 10.5657 3.46449 10.035C3.46449 9.50427 3.67532 8.99528 4.0506 8.62L4.8436 7.828C4.7314 7.40878 4.68817 6.9751 4.7156 6.542Z" fill="#3AB4FD"/>
<path d="M6.58751 4.67209C6.24822 5.01143 5.99528 5.42721 5.84992 5.88454C5.70457 6.34186 5.67104 6.82739 5.75215 7.30035C5.83327 7.77332 6.02665 8.21992 6.31608 8.60268C6.60551 8.98544 6.98254 9.29319 7.41551 9.50009L8.19051 8.72409C7.85146 8.63314 7.54232 8.45456 7.29415 8.20629C7.04598 7.95802 6.86753 7.6488 6.77672 7.30971C6.68592 6.97062 6.68597 6.6136 6.77686 6.27453C6.86775 5.93547 7.04628 5.62629 7.29451 5.37809L9.12151 3.55009C9.49679 3.1748 10.0058 2.96397 10.5365 2.96397C11.0672 2.96397 11.5762 3.1748 11.9515 3.55009C12.3268 3.92537 12.5376 4.43436 12.5376 4.96509C12.5376 5.49581 12.3268 6.0048 11.9515 6.38009L11.1585 7.17209C11.2705 7.59209 11.3135 8.02709 11.2865 8.45909L12.6585 7.08709C13.2212 6.52443 13.5373 5.7613 13.5373 4.96559C13.5373 4.16987 13.2212 3.40674 12.6585 2.84409C12.0959 2.28143 11.3327 1.96533 10.537 1.96533C9.7413 1.96533 8.97817 2.28143 8.41551 2.84409L6.58751 4.67209Z" fill="#3AB4FD"/>
</svg>
