<svg width="20" height="21" viewBox="0 0 20 21" fill="none" xmlns="http://www.w3.org/2000/svg">
<circle cx="10" cy="10.5" r="9.5" fill="white" stroke="#E4E4E4"/>
<path d="M7 7.5C6.40326 7.5 5.83097 7.73705 5.40901 8.15901C4.98705 8.58097 4.75 9.15326 4.75 9.75V14.25H9.25V9.75C9.25 9.15326 9.01295 8.58097 8.59099 8.15901C8.16903 7.73705 7.59674 7.5 7 7.5ZM7 6.75H13C13.7956 6.75 14.5587 7.06607 15.1213 7.62868C15.6839 8.19129 16 8.95435 16 9.75V14.25C16 14.4489 15.921 14.6397 15.7803 14.7803C15.6397 14.921 15.4489 15 15.25 15H4.75C4.55109 15 4.36032 14.921 4.21967 14.7803C4.07902 14.6397 4 14.4489 4 14.25V9.75C4 8.95435 4.31607 8.19129 4.87868 7.62868C5.44129 7.06607 6.20435 6.75 7 6.75ZM8.9845 7.5C9.30369 7.78154 9.55931 8.12778 9.7344 8.51571C9.90948 8.90364 10 9.32439 10 9.75V14.25H15.25V9.75C15.25 9.15326 15.0129 8.58097 14.591 8.15901C14.169 7.73705 13.5967 7.5 13 7.5H8.9845Z" fill="#3AB4FD"/>
<path d="M12.8448 10.875H10.75V10.125H14.5C14.5995 10.125 14.6948 10.1645 14.7652 10.2348C14.8355 10.3052 14.875 10.4005 14.875 10.5V11.25C14.875 11.3495 14.8355 11.4448 14.7652 11.5152C14.6948 11.5855 14.5995 11.625 14.5 11.625H13.75C13.7007 11.6251 13.6519 11.6155 13.6064 11.5967C13.5608 11.5779 13.5194 11.5503 13.4845 11.5155L12.8448 10.875ZM7.75 9.75C7.75 10.164 7.414 9.75 7 9.75C6.586 9.75 6.25 10.164 6.25 9.75C6.25 9.55109 6.32902 9.36032 6.46967 9.21967C6.61032 9.07902 6.80109 9 7 9C7.19891 9 7.38968 9.07902 7.53033 9.21967C7.67098 9.36032 7.75 9.55109 7.75 9.75Z" fill="#3AB4FD"/>
</svg>
