<svg width="20" height="21" viewBox="0 0 20 21" fill="none" xmlns="http://www.w3.org/2000/svg">
<circle cx="10" cy="10.5" r="9.5" fill="white" stroke="#E4E4E4"/>
<g clip-path="url(#clip0_774_30142)">
<path d="M6.74085 5.49598C6.69658 5.43902 6.64069 5.39214 6.57691 5.35845C6.51312 5.32475 6.44289 5.30501 6.37089 5.30054C6.29889 5.29607 6.22676 5.30698 6.1593 5.33253C6.09184 5.35807 6.03058 5.39769 5.9796 5.44873L5.2041 6.22498C4.84185 6.58798 4.70835 7.10173 4.8666 7.55248C5.52415 9.41781 6.59247 11.1115 7.9926 12.5085C9.38955 13.9086 11.0833 14.9769 12.9486 15.6345C13.3994 15.7927 13.9131 15.6592 14.2761 15.297L15.0516 14.5215C15.1026 14.4705 15.1423 14.4092 15.1678 14.3418C15.1934 14.2743 15.2043 14.2022 15.1998 14.1302C15.1953 14.0582 15.1756 13.988 15.1419 13.9242C15.1082 13.8604 15.0613 13.8045 15.0044 13.7602L13.2741 12.4147C13.2132 12.3676 13.1424 12.3349 13.0671 12.3191C12.9918 12.3032 12.9138 12.3047 12.8391 12.3232L11.1966 12.7335C10.9773 12.7879 10.7477 12.7848 10.53 12.7245C10.3123 12.6642 10.1139 12.5487 9.95385 12.3892L8.11185 10.5465C7.95224 10.3865 7.83662 10.1881 7.77618 9.9704C7.71573 9.75268 7.71252 9.52305 7.76685 9.30373L8.17785 7.66123C8.19642 7.58652 8.19784 7.50857 8.18199 7.43323C8.16614 7.3579 8.13345 7.28713 8.08635 7.22623L6.74085 5.49598ZM5.41335 4.88323C5.5446 4.75194 5.70227 4.65007 5.87591 4.5844C6.04954 4.51872 6.23516 4.49073 6.42044 4.5023C6.60572 4.51386 6.78642 4.56471 6.95054 4.65146C7.11466 4.73821 7.25845 4.85889 7.37235 5.00548L8.71785 6.73498C8.9646 7.05223 9.0516 7.46548 8.9541 7.85548L8.54385 9.49798C8.52279 9.58306 8.52401 9.67213 8.54739 9.7566C8.57078 9.84107 8.61554 9.91809 8.67735 9.98023L10.5201 11.823C10.5823 11.8849 10.6595 11.9298 10.7441 11.9531C10.8287 11.9765 10.9179 11.9777 11.0031 11.9565L12.6449 11.5462C12.8373 11.4984 13.0382 11.4948 13.2322 11.5357C13.4263 11.5766 13.6086 11.661 13.7654 11.7825L15.4949 13.128C16.1166 13.6117 16.1736 14.5305 15.6171 15.0862L14.8416 15.8617C14.2866 16.4167 13.4571 16.6605 12.6839 16.3882C10.7044 15.6927 8.90726 14.5595 7.42635 13.0732C5.94013 11.5925 4.80702 9.7957 4.11135 7.81648C3.83985 7.04398 4.0836 6.21373 4.6386 5.65873L5.41335 4.88323Z" fill="#3AB4FD"/>
</g>
<defs>
<clipPath id="clip0_774_30142">
<rect width="12" height="12" fill="white" transform="translate(4 4.5)"/>
</clipPath>
</defs>
</svg>
