<svg width="250" height="250" viewBox="0 0 250 250" fill="none" xmlns="http://www.w3.org/2000/svg">
<path d="M70.7508 79.0601C32.3008 101.5 30.0008 177.265 84.6908 175.815C109.146 175.165 116.291 149.52 138.361 140.52C159.081 132.065 176.946 149.02 197.861 129.82C222.506 107.22 226.046 51.9451 189.416 48.2501C173.466 46.6401 167.316 62.5651 153.381 66.0901C125.131 73.2401 99.3208 62.3951 70.7508 79.0601Z" fill="#3AB4FD"/>
<path opacity="0.9" d="M70.7508 79.0601C32.3008 101.5 30.0008 177.265 84.6908 175.815C109.146 175.165 116.291 149.52 138.361 140.52C159.081 132.065 176.946 149.02 197.861 129.82C222.506 107.22 226.046 51.9451 189.416 48.2501C173.466 46.6401 167.316 62.5651 153.381 66.0901C125.131 73.2401 99.3208 62.3951 70.7508 79.0601Z" fill="white"/>
<path d="M125 213.78C178.541 213.78 221.945 211.246 221.945 208.12C221.945 204.994 178.541 202.46 125 202.46C71.4584 202.46 28.0547 204.994 28.0547 208.12C28.0547 211.246 71.4584 213.78 125 213.78Z" fill="#F5F5F5"/>
<path d="M24.4297 75.28L138.415 91.69L153.71 107.125L24.4297 75.28Z" fill="#3AB4FD"/>
<path opacity="0.6" d="M24.4297 75.28L138.415 91.69L153.71 107.125L24.4297 75.28Z" fill="white"/>
<path d="M24.4297 75.28L138.415 91.69L133.125 114.01L24.4297 75.28Z" fill="#3AB4FD"/>
<path opacity="0.2" d="M24.4297 75.28L138.415 91.69L133.125 114.01L24.4297 75.28Z" fill="black"/>
<path d="M130.786 49.4401L137.401 80.4401C137.573 81.2496 137.417 82.0942 136.967 82.7888C136.517 83.4834 135.81 83.9712 135.001 84.1451L75.9605 96.7451C75.1512 96.9158 74.3071 96.7592 73.6129 96.3094C72.9186 95.8597 72.4306 95.1535 72.2555 94.3451L65.6355 63.3451C65.465 62.535 65.6223 61.6903 66.073 60.996C66.5237 60.3016 67.2312 59.8141 68.0405 59.6401L127.081 47.0401C127.891 46.8695 128.735 47.0268 129.43 47.4775C130.124 47.9283 130.612 48.6357 130.786 49.4451V49.4401Z" fill="#3AB4FD"/>
<path opacity="0.4" d="M130.786 49.4401L137.401 80.4401C137.573 81.2496 137.417 82.0942 136.967 82.7888C136.517 83.4834 135.81 83.9712 135.001 84.1451L75.9605 96.7451C75.1512 96.9158 74.3071 96.7592 73.6129 96.3094C72.9186 95.8597 72.4306 95.1535 72.2555 94.3451L65.6355 63.3451C65.465 62.535 65.6223 61.6903 66.073 60.996C66.5237 60.3016 67.2312 59.8141 68.0405 59.6401L127.081 47.0401C127.891 46.8695 128.735 47.0268 129.43 47.4775C130.124 47.9283 130.612 48.6357 130.786 49.4451V49.4401Z" fill="black"/>
<path d="M129.33 47.41L109.605 71.625C107.775 73.8701 105.235 75.4234 102.402 76.0281C99.5701 76.6327 96.6164 76.2524 94.0298 74.95L66.1348 60.9001C66.5861 60.2518 67.2672 59.7995 68.0398 59.635L127.08 47.035C127.85 46.8711 128.654 47.0051 129.33 47.41Z" fill="#3AB4FD"/>
<path d="M24.4297 75.28L118.445 97.625L133.125 114.01L24.4297 75.28Z" fill="#3AB4FD"/>
<path opacity="0.6" d="M24.4297 75.28L118.445 97.625L133.125 114.01L24.4297 75.28Z" fill="white"/>
<path d="M58.7234 96.8176L58.4707 97.249L68.933 103.377L69.1857 102.946L58.7234 96.8176Z" fill="#3AB4FD"/>
<path d="M73.8055 105.648L73.5527 106.079L77.3148 108.283L77.5675 107.851L73.8055 105.648Z" fill="#3AB4FD"/>
<path d="M24.4297 75.28L118.445 97.625L100.17 119.65L24.4297 75.28Z" fill="#3AB4FD"/>
<path d="M150.179 127.63C150.053 127.63 149.927 127.607 149.809 127.56L134.499 121.5C134.254 121.401 134.058 121.21 133.954 120.967C133.85 120.725 133.846 120.451 133.943 120.205C134.04 119.959 134.23 119.762 134.472 119.656C134.714 119.551 134.988 119.545 135.234 119.64L150.549 125.7C150.766 125.786 150.946 125.944 151.058 126.148C151.17 126.353 151.208 126.59 151.164 126.818C151.12 127.047 150.998 127.253 150.818 127.402C150.638 127.55 150.412 127.631 150.179 127.63Z" fill="#3AB4FD"/>
<path opacity="0.3" d="M150.179 127.63C150.053 127.63 149.927 127.607 149.809 127.56L134.499 121.5C134.254 121.401 134.058 121.21 133.954 120.967C133.85 120.725 133.846 120.451 133.943 120.205C134.04 119.959 134.23 119.762 134.472 119.656C134.714 119.551 134.988 119.545 135.234 119.64L150.549 125.7C150.766 125.786 150.946 125.944 151.058 126.148C151.17 126.353 151.208 126.59 151.164 126.818C151.12 127.047 150.998 127.253 150.818 127.402C150.638 127.55 150.412 127.631 150.179 127.63Z" fill="black"/>
<path d="M149.276 118.85C149.15 118.849 149.026 118.824 148.911 118.775L140.686 115.5C140.563 115.452 140.45 115.381 140.355 115.29C140.26 115.198 140.184 115.089 140.131 114.968C140.078 114.848 140.049 114.718 140.047 114.586C140.045 114.454 140.068 114.323 140.117 114.2C140.165 114.077 140.238 113.966 140.329 113.871C140.421 113.776 140.531 113.701 140.652 113.649C140.773 113.597 140.904 113.569 141.035 113.568C141.167 113.566 141.298 113.591 141.421 113.64L149.646 116.9C149.892 116.997 150.09 117.188 150.196 117.431C150.302 117.673 150.307 117.948 150.211 118.195C150.14 118.387 150.013 118.552 149.846 118.669C149.679 118.786 149.48 118.849 149.276 118.85Z" fill="#3AB4FD"/>
<path opacity="0.5" d="M149.276 118.85C149.15 118.849 149.026 118.824 148.911 118.775L140.686 115.5C140.563 115.452 140.45 115.381 140.355 115.29C140.26 115.198 140.184 115.089 140.131 114.968C140.078 114.848 140.049 114.718 140.047 114.586C140.045 114.454 140.068 114.323 140.117 114.2C140.165 114.077 140.238 113.966 140.329 113.871C140.421 113.776 140.531 113.701 140.652 113.649C140.773 113.597 140.904 113.569 141.035 113.568C141.167 113.566 141.298 113.591 141.421 113.64L149.646 116.9C149.892 116.997 150.09 117.188 150.196 117.431C150.302 117.673 150.307 117.948 150.211 118.195C150.14 118.387 150.013 118.552 149.846 118.669C149.679 118.786 149.48 118.849 149.276 118.85Z" fill="white"/>
<path d="M132.079 127.5C131.954 127.499 131.831 127.475 131.714 127.43L116.779 121.5C116.656 121.452 116.544 121.381 116.449 121.29C116.354 121.198 116.277 121.089 116.224 120.968C116.172 120.848 116.143 120.718 116.141 120.586C116.138 120.454 116.162 120.323 116.211 120.2C116.259 120.077 116.331 119.966 116.423 119.871C116.515 119.776 116.625 119.701 116.746 119.649C116.867 119.597 116.997 119.569 117.129 119.568C117.261 119.566 117.392 119.591 117.514 119.64L132.449 125.55C132.666 125.636 132.846 125.794 132.958 125.998C133.07 126.203 133.108 126.44 133.064 126.668C133.02 126.897 132.898 127.103 132.718 127.252C132.538 127.4 132.312 127.481 132.079 127.48V127.5Z" fill="#3AB4FD"/>
<path opacity="0.3" d="M132.079 127.5C131.954 127.499 131.831 127.475 131.714 127.43L116.779 121.5C116.656 121.452 116.544 121.381 116.449 121.29C116.354 121.198 116.277 121.089 116.224 120.968C116.172 120.848 116.143 120.718 116.141 120.586C116.138 120.454 116.162 120.323 116.211 120.2C116.259 120.077 116.331 119.966 116.423 119.871C116.515 119.776 116.625 119.701 116.746 119.649C116.867 119.597 116.997 119.569 117.129 119.568C117.261 119.566 117.392 119.591 117.514 119.64L132.449 125.55C132.666 125.636 132.846 125.794 132.958 125.998C133.07 126.203 133.108 126.44 133.064 126.668C133.02 126.897 132.898 127.103 132.718 127.252C132.538 127.4 132.312 127.481 132.079 127.48V127.5Z" fill="black"/>
<path d="M186.152 82.41C187.477 84.995 188.692 87.585 189.847 90.235C191.002 92.885 192.077 95.57 193.017 98.385L193.357 99.45C193.417 99.64 193.502 99.95 193.552 100.17C193.602 100.39 193.647 100.64 193.672 100.85C193.786 101.657 193.845 102.47 193.847 103.285C193.854 104.788 193.784 106.29 193.637 107.785C193.358 110.68 192.903 113.555 192.277 116.395L189.532 116.09C189.497 113.275 189.472 110.43 189.372 107.655C189.327 106.275 189.247 104.89 189.107 103.59C189.043 102.98 188.943 102.373 188.807 101.775C188.782 101.635 188.742 101.53 188.712 101.415C188.682 101.3 188.652 101.26 188.602 101.11L188.222 100.165C187.177 97.635 186.002 95.085 184.802 92.545L181.172 84.925L186.152 82.41Z" fill="#E4897B"/>
<path d="M189.571 115.21L188.291 117.605L192.381 118.745C192.381 118.745 193.161 116.82 192.231 115.3L189.571 115.21Z" fill="#E4897B"/>
<path d="M186.727 121.055L190.487 121.355L192.382 118.745L188.292 117.605L186.727 121.055Z" fill="#E4897B"/>
<path d="M168.936 65.13C168.881 65.425 168.676 65.63 168.486 65.59C168.296 65.55 168.191 65.285 168.251 64.995C168.311 64.705 168.511 64.495 168.701 64.535C168.891 64.575 169.001 64.84 168.936 65.13Z" fill="#263238"/>
<path d="M168.706 65.63C168.177 66.448 167.54 67.1899 166.811 67.835C166.981 68.0161 167.188 68.1582 167.419 68.2514C167.649 68.3447 167.897 68.3868 168.146 68.375L168.706 65.63Z" fill="#DE5753"/>
<path d="M170.326 63.7351C170.279 63.7339 170.234 63.7141 170.201 63.6801C170.057 63.5158 169.877 63.3876 169.675 63.3059C169.472 63.2243 169.254 63.1914 169.036 63.2101C168.995 63.2105 168.954 63.1962 168.923 63.1697C168.891 63.1432 168.869 63.1063 168.862 63.0655C168.855 63.0247 168.862 62.9826 168.883 62.9469C168.904 62.9111 168.937 62.8839 168.976 62.8701C169.254 62.8348 169.537 62.8689 169.798 62.9692C170.06 63.0695 170.293 63.233 170.476 63.4451C170.508 63.4778 170.526 63.5217 170.526 63.5676C170.526 63.6134 170.508 63.6573 170.476 63.6901C170.456 63.7084 170.432 63.7219 170.406 63.7297C170.38 63.7375 170.353 63.7393 170.326 63.7351Z" fill="#263238"/>
<path d="M177.205 69.215C176.68 71.905 176.155 76.825 178.035 78.62C178.035 78.62 177.3 81.345 172.305 81.345C166.805 81.345 169.685 78.62 169.685 78.62C172.685 77.905 172.6 75.68 172.08 73.595L177.205 69.215Z" fill="#E4897B"/>
<path d="M178.791 80.315C179.186 79 179.621 77.495 178.721 77.02C177.721 76.52 172.286 75.97 170.411 76.945C168.536 77.92 169.071 80.595 169.071 80.595L178.791 80.315Z" fill="#263238"/>
<path d="M190.32 205C190.165 205.021 190.007 205.01 189.856 204.969C189.705 204.928 189.563 204.857 189.44 204.76C189.396 204.7 189.373 204.627 189.373 204.552C189.373 204.478 189.396 204.405 189.44 204.345C189.469 204.293 189.508 204.248 189.555 204.213C189.603 204.177 189.657 204.153 189.715 204.14C190.255 204.02 191.265 204.71 191.31 204.74C191.323 204.751 191.333 204.765 191.339 204.78C191.345 204.796 191.347 204.813 191.345 204.83C191.342 204.846 191.334 204.861 191.323 204.873C191.311 204.884 191.296 204.892 191.28 204.895C190.964 204.963 190.643 204.998 190.32 205ZM189.86 204.3H189.755C189.721 204.307 189.689 204.321 189.662 204.342C189.634 204.363 189.611 204.389 189.595 204.42C189.515 204.56 189.565 204.62 189.595 204.64C189.75 204.85 190.5 204.85 191.05 204.76C190.692 204.523 190.285 204.37 189.86 204.31V204.3Z" fill="#3AB4FD"/>
<path d="M191.261 204.91H191.221C190.841 204.7 190.106 203.91 190.181 203.49C190.194 203.425 190.229 203.367 190.28 203.325C190.331 203.283 190.395 203.26 190.461 203.26C190.527 203.253 190.594 203.259 190.657 203.278C190.721 203.297 190.78 203.328 190.831 203.37C191.256 203.72 191.331 204.78 191.331 204.825C191.333 204.841 191.33 204.857 191.323 204.871C191.316 204.885 191.305 204.897 191.291 204.905C191.282 204.909 191.271 204.911 191.261 204.91ZM190.521 203.41H190.501C190.386 203.41 190.376 203.48 190.371 203.5C190.326 203.745 190.796 204.35 191.171 204.635C191.146 204.217 190.996 203.817 190.741 203.485C190.707 203.459 190.669 203.439 190.628 203.428C190.586 203.417 190.543 203.414 190.501 203.42L190.521 203.41Z" fill="#3AB4FD"/>
<path d="M168.265 205C167.795 205 167.34 204.935 167.185 204.725C167.146 204.669 167.125 204.603 167.125 204.535C167.125 204.467 167.146 204.401 167.185 204.345C167.216 204.294 167.256 204.249 167.304 204.214C167.352 204.178 167.407 204.153 167.465 204.14C168.07 203.975 169.36 204.705 169.415 204.735C169.43 204.744 169.441 204.758 169.449 204.774C169.456 204.79 169.458 204.808 169.455 204.825C169.452 204.842 169.444 204.859 169.431 204.871C169.419 204.884 169.403 204.892 169.385 204.895C169.016 204.964 168.641 205 168.265 205ZM167.68 204.29C167.625 204.282 167.57 204.282 167.515 204.29C167.48 204.297 167.447 204.311 167.417 204.332C167.388 204.353 167.363 204.379 167.345 204.41C167.28 204.52 167.305 204.57 167.345 204.6C167.51 204.83 168.44 204.845 169.13 204.75C168.681 204.507 168.188 204.354 167.68 204.3V204.29Z" fill="#3AB4FD"/>
<path d="M169.375 204.91H169.34C168.895 204.715 168.02 203.91 168.085 203.505C168.085 203.405 168.17 203.285 168.41 203.26C168.5 203.246 168.591 203.253 168.677 203.279C168.764 203.305 168.843 203.35 168.91 203.41C169.38 203.79 169.475 204.78 169.48 204.825C169.482 204.84 169.48 204.856 169.474 204.87C169.468 204.884 169.458 204.896 169.445 204.905C169.435 204.911 169.423 204.914 169.411 204.915C169.399 204.916 169.387 204.914 169.375 204.91ZM168.48 203.41H168.425C168.27 203.41 168.26 203.49 168.255 203.51C168.215 203.76 168.815 204.385 169.255 204.655C169.212 204.235 169.037 203.839 168.755 203.525C168.684 203.463 168.595 203.426 168.5 203.42L168.48 203.41Z" fill="#3AB4FD"/>
<path d="M173.415 204.82H169.74L169.375 196.315H173.05L173.415 204.82Z" fill="#E4897B"/>
<path d="M195.471 204.82H191.796L189.951 196.315H193.621L195.471 204.82Z" fill="#E4897B"/>
<path d="M191.537 204.395H195.662C195.735 204.396 195.807 204.421 195.864 204.467C195.921 204.514 195.961 204.578 195.977 204.65L196.702 207.915C196.718 207.995 196.717 208.077 196.697 208.156C196.677 208.234 196.64 208.308 196.588 208.37C196.537 208.433 196.471 208.483 196.397 208.516C196.323 208.55 196.243 208.567 196.162 208.565C194.722 208.54 194.022 208.455 192.207 208.455C191.092 208.455 188.792 208.575 187.247 208.575C185.702 208.575 185.507 207.075 186.137 206.91C188.967 206.29 190.032 205.435 190.937 204.625C191.101 204.476 191.315 204.394 191.537 204.395Z" fill="#263238"/>
<path d="M169.766 204.395H173.766C173.84 204.396 173.911 204.421 173.969 204.467C174.026 204.514 174.066 204.578 174.081 204.65L174.806 207.915C174.824 207.994 174.823 208.075 174.804 208.154C174.786 208.232 174.75 208.306 174.699 208.368C174.648 208.431 174.583 208.481 174.51 208.515C174.437 208.549 174.357 208.566 174.276 208.565C172.831 208.54 170.741 208.455 168.921 208.455C166.796 208.455 164.956 208.575 162.461 208.575C160.961 208.575 160.536 207.075 161.166 206.91C164.041 206.28 166.386 206.215 168.871 204.685C169.136 204.505 169.447 204.404 169.766 204.395Z" fill="#263238"/>
<path d="M168.001 85.07C164.93 84.832 161.873 84.4264 158.846 83.855C157.346 83.565 155.816 83.24 154.296 82.83C152.738 82.4312 151.208 81.9301 149.716 81.33C149.331 81.17 148.941 80.995 148.556 80.83C148.123 80.6165 147.705 80.3725 147.306 80.1C146.586 79.625 145.966 79.13 145.351 78.64C144.126 77.64 142.991 76.64 141.851 75.615C139.616 73.545 137.496 71.405 135.451 69.155L137.291 67.1L144.546 72.315C145.741 73.175 146.951 74.02 148.141 74.815C148.731 75.21 149.336 75.58 149.891 75.895C150.123 76.0273 150.364 76.1443 150.611 76.245C150.906 76.36 151.206 76.475 151.521 76.585C154.223 77.4171 156.987 78.0356 159.786 78.435C162.641 78.885 165.591 79.255 168.441 79.555L168.001 85.07Z" fill="#E4897B"/>
<path d="M184.611 79.45C188.056 80.24 191.536 90.305 191.536 90.305L184.451 95.39C184.451 95.39 182.451 90.7 180.521 86.6C178.501 82.305 181.091 78.645 184.611 79.45Z" fill="#3AB4FD"/>
<path opacity="0.4" d="M184.611 79.45C188.056 80.24 191.536 90.305 191.536 90.305L184.451 95.39C184.451 95.39 182.451 90.7 180.521 86.6C178.501 82.305 181.091 78.645 184.611 79.45Z" fill="black"/>
<path d="M182.626 84.9501L181.221 88.0951C182.676 91.2351 184.006 94.3451 184.361 95.1751C184.311 91.4601 183.606 86.8501 182.626 84.9501Z" fill="#3AB4FD"/>
<path opacity="0.6" d="M182.626 84.9501L181.221 88.0951C182.676 91.2351 184.006 94.3451 184.361 95.1751C184.311 91.4601 183.606 86.8501 182.626 84.9501Z" fill="black"/>
<path d="M164.035 79.64C164.035 79.64 160.125 84.055 163.815 111.39H183.46C183.6 108.39 181.705 93.66 184.61 79.45C182.439 79.0318 180.243 78.7546 178.035 78.62C175.254 78.4598 172.466 78.4598 169.685 78.62C167.778 78.8121 165.889 79.1531 164.035 79.64Z" fill="#3AB4FD"/>
<path opacity="0.4" d="M164.035 79.64C164.035 79.64 160.125 84.055 163.815 111.39H183.46C183.6 108.39 181.705 93.66 184.61 79.45C182.439 79.0318 180.243 78.7546 178.035 78.62C175.254 78.4598 172.466 78.4598 169.685 78.62C167.778 78.8121 165.889 79.1531 164.035 79.64Z" fill="black"/>
<path d="M162.58 84.9501C162.45 85.9851 162.35 87.2101 162.285 88.6551C164.225 88.0728 166.069 87.2068 167.755 86.0851L162.58 84.9501Z" fill="#3AB4FD"/>
<path opacity="0.6" d="M162.58 84.9501C162.45 85.9851 162.35 87.2101 162.285 88.6551C164.225 88.0728 166.069 87.2068 167.755 86.0851L162.58 84.9501Z" fill="black"/>
<path d="M171 85.5C168.37 87.83 158.33 87.595 158.33 87.595L158 77.875C161.39 78.3579 164.81 78.6052 168.235 78.615C173.83 78.5 173.87 82.93 171 85.5Z" fill="#3AB4FD"/>
<path opacity="0.4" d="M171 85.5C168.37 87.83 158.33 87.595 158.33 87.595L158 77.875C161.39 78.3579 164.81 78.6052 168.235 78.615C173.83 78.5 173.87 82.93 171 85.5Z" fill="black"/>
<path d="M137.386 67.12L134.886 64.175L132.191 67.175C132.191 67.175 133.851 69.965 136.486 69.525L137.386 67.12Z" fill="#E4897B"/>
<path d="M131.306 60.74L130.336 64.585L132.171 67.155L134.866 64.175L131.306 60.74Z" fill="#E4897B"/>
<path d="M169.375 196.32L169.565 200.7H173.24L173.05 196.32H169.375Z" fill="#CE6F64"/>
<path d="M193.626 196.32H189.951L190.901 200.7H194.576L193.626 196.32Z" fill="#CE6F64"/>
<path d="M171.587 61.5C168.292 60 167.252 53.335 176.732 55C176.732 55 175.302 56.58 178.202 57.58C181.102 58.58 178.677 64.755 171.587 61.5Z" fill="#263238"/>
<path d="M178.746 66.5C177.801 70 177.431 72.13 175.246 73.595C171.976 75.795 167.911 73.27 167.781 69.535C167.666 66.18 169.231 60.985 173.006 60.275C173.84 60.1116 174.701 60.1644 175.508 60.4284C176.315 60.6924 177.041 61.1588 177.616 61.783C178.192 62.4073 178.598 63.1686 178.796 63.9943C178.994 64.82 178.977 65.6827 178.746 66.5Z" fill="#E4897B"/>
<path d="M176.601 56.7501C178.846 58.0001 181.886 58.7501 181.601 60.5301C181.226 62.7051 183.436 61.3451 182.921 64.5801C182.586 66.6951 178.686 73.1051 175.921 72.7951C171.791 72.2951 172.316 66.0151 172.301 62.7051C172.291 60.7501 172.201 54.2851 176.601 56.7501Z" fill="#263238"/>
<path d="M171.806 59.5551C170.806 59.7901 169.481 65.5551 173.356 66.0851C177.811 66.6901 171.806 59.5551 171.806 59.5551Z" fill="#263238"/>
<path d="M171.905 61.6C170.68 61.71 167.905 60.235 168.245 58.015C168.245 58 170 60.61 171.905 61.6Z" fill="#263238"/>
<path d="M173.725 66.5451C173.349 67.3694 172.711 68.0463 171.91 68.4701C170.855 69.0201 170.26 68.2201 170.5 67.1601C170.715 66.2101 171.525 64.7751 172.61 64.6601C173.695 64.5451 174.16 65.5451 173.725 66.5451Z" fill="#E4897B"/>
<path d="M179.227 62.5C179.974 62.1757 180.629 61.6712 181.133 61.0315C181.638 60.3919 181.975 59.6372 182.117 58.835C182.117 58.835 183.767 63.42 179.227 62.5Z" fill="#263238"/>
<path d="M183.396 62.4251C183.048 62.1914 182.648 62.0476 182.23 62.0066C181.813 61.9656 181.393 62.0286 181.006 62.1901C181.006 62.1901 182.546 60.1951 183.396 62.4251Z" fill="#263238"/>
<path d="M170.785 111.39C170.785 111.39 174.955 139.46 177.24 149.975C179.74 161.475 189.19 199.855 189.19 199.855H195.915C195.915 199.855 189.69 162.42 188.26 151C186.71 138.625 183.46 111.37 183.46 111.37L170.785 111.39Z" fill="#3AB4FD"/>
<path opacity="0.5" d="M170.785 111.39C170.785 111.39 174.955 139.46 177.24 149.975C179.74 161.475 189.19 199.855 189.19 199.855H195.915C195.915 199.855 189.69 162.42 188.26 151C186.71 138.625 183.46 111.37 183.46 111.37L170.785 111.39Z" fill="white"/>
<path d="M188.116 197.375C188.086 197.375 188.811 199.96 188.811 199.96H196.381L196.241 197.655L188.116 197.375Z" fill="#3AB4FD"/>
<path opacity="0.1" d="M188.116 197.375C188.086 197.375 188.811 199.96 188.811 199.96H196.381L196.241 197.655L188.116 197.375Z" fill="black"/>
<path d="M173.421 121.39C178.241 122.335 177.731 140.31 177.151 149.555C175.761 143.02 173.726 130.445 172.336 121.52C172.672 121.354 173.055 121.308 173.421 121.39Z" fill="#3AB4FD"/>
<path opacity="0.4" d="M173.421 121.39C178.241 122.335 177.731 140.31 177.151 149.555C175.761 143.02 173.726 130.445 172.336 121.52C172.672 121.354 173.055 121.308 173.421 121.39Z" fill="white"/>
<path d="M163.816 111.39C163.816 111.39 163.316 138.85 163.711 150.055C164.126 161.705 168.211 199.855 168.211 199.855H174.431C174.431 199.855 174.661 162.385 174.931 150.945C175.236 138.47 176.741 111.39 176.741 111.39H163.816Z" fill="#3AB4FD"/>
<path opacity="0.5" d="M163.816 111.39C163.816 111.39 163.316 138.85 163.711 150.055C164.126 161.705 168.211 199.855 168.211 199.855H174.431C174.431 199.855 174.661 162.385 174.931 150.945C175.236 138.47 176.741 111.39 176.741 111.39H163.816Z" fill="white"/>
<path d="M169.5 195.385C169.485 195.385 169.47 195.379 169.459 195.369C169.448 195.359 169.441 195.345 169.44 195.33C168.34 184.77 165.755 159.22 165.44 150.055C165.105 140.7 165.41 119.71 165.51 113.5C165.51 113.484 165.516 113.469 165.528 113.458C165.539 113.446 165.554 113.44 165.57 113.44C165.586 113.44 165.602 113.446 165.614 113.457C165.626 113.468 165.634 113.484 165.635 113.5C165.535 119.71 165.23 140.7 165.565 150.05C165.89 159.215 168.475 184.755 169.565 195.315C169.565 195.332 169.559 195.348 169.548 195.361C169.537 195.374 169.522 195.383 169.505 195.385H169.5Z" fill="#3AB4FD"/>
<path opacity="0.4" d="M169.5 195.385C169.485 195.385 169.47 195.379 169.459 195.369C169.448 195.359 169.441 195.345 169.44 195.33C168.34 184.77 165.755 159.22 165.44 150.055C165.105 140.7 165.41 119.71 165.51 113.5C165.51 113.484 165.516 113.469 165.528 113.458C165.539 113.446 165.554 113.44 165.57 113.44C165.586 113.44 165.602 113.446 165.614 113.457C165.626 113.468 165.634 113.484 165.635 113.5C165.535 119.71 165.23 140.7 165.565 150.05C165.89 159.215 168.475 184.755 169.565 195.315C169.565 195.332 169.559 195.348 169.548 195.361C169.537 195.374 169.522 195.383 169.505 195.385H169.5Z" fill="white"/>
<path d="M167.001 197.375C166.976 197.375 167.356 199.96 167.356 199.96H174.921L175.126 197.655L167.001 197.375Z" fill="#3AB4FD"/>
<path opacity="0.1" d="M167.001 197.375C166.976 197.375 167.356 199.96 167.356 199.96H174.921L175.126 197.655L167.001 197.375Z" fill="black"/>
</svg>
