<svg width="300" height="300" viewBox="0 0 300 300" fill="none" xmlns="http://www.w3.org/2000/svg">
<path d="M43.7158 64.638C50.3998 25.8 85.3978 34.332 105.342 44.484C130.158 57.084 147.51 69.42 176.916 67.362C200.436 65.712 228.69 57.924 240.594 85.674C250.356 108.42 236.994 134.676 217.608 148.98C200.4 161.7 179.454 161.55 162.264 175.2C151.242 183.93 141.294 194.904 129.126 201.42C115.968 208.464 101.49 205.818 90.6838 197.592C71.9158 183.3 73.2478 156.678 66.3718 134.232C59.7058 112.458 39.3478 90.084 43.7158 64.638Z" fill="#3AB4FD"/>
<path opacity="0.9" d="M43.7158 64.638C50.3998 25.8 85.3978 34.332 105.342 44.484C130.158 57.084 147.51 69.42 176.916 67.362C200.436 65.712 228.69 57.924 240.594 85.674C250.356 108.42 236.994 134.676 217.608 148.98C200.4 161.7 179.454 161.55 162.264 175.2C151.242 183.93 141.294 194.904 129.126 201.42C115.968 208.464 101.49 205.818 90.6838 197.592C71.9158 183.3 73.2478 156.678 66.3718 134.232C59.7058 112.458 39.3478 90.084 43.7158 64.638Z" fill="white"/>
<path d="M150 256.536C214.249 256.536 266.334 253.495 266.334 249.744C266.334 245.993 214.249 242.952 150 242.952C85.7505 242.952 33.666 245.993 33.666 249.744C33.666 253.495 85.7505 256.536 150 256.536Z" fill="#F5F5F5"/>
<path d="M95.3472 83.532C90.4692 82.848 86.2692 96.078 90.4692 99.276C94.6692 102.474 104.053 104.196 112.435 100.476C118.537 97.782 117.427 91.632 113.185 84.78C109.765 79.278 102.259 73.452 95.3472 83.532Z" fill="#263238"/>
<path d="M116.46 112.59C116.736 115.908 116.94 119.238 117.12 122.562C117.3 125.886 117.45 129.222 117.582 132.552L117.486 132.036C117.445 131.89 117.374 131.755 117.276 131.64C117.4 131.763 117.535 131.875 117.678 131.976C118.1 132.273 118.541 132.541 118.998 132.78C119.976 133.296 121.05 133.8 122.142 134.262C123.234 134.724 124.35 135.192 125.472 135.648L128.85 136.998L128.196 139.59C126.936 139.434 125.718 139.206 124.482 138.99C123.246 138.774 122.028 138.456 120.804 138.126C119.549 137.793 118.313 137.393 117.102 136.926C116.437 136.666 115.791 136.36 115.17 136.008C114.784 135.797 114.42 135.547 114.084 135.264C113.865 135.071 113.664 134.858 113.484 134.628C113.187 134.276 112.965 133.868 112.83 133.428L112.77 133.236L112.734 132.912C112.404 129.594 112.074 126.27 111.816 122.946C111.558 119.622 111.276 116.292 111.09 112.962L116.46 112.59Z" fill="#B65B52"/>
<path d="M116.083 108.126C117.247 110.664 117.883 117.45 118.033 127.164C115.886 127.663 113.885 128.656 112.189 130.062L109.561 114.804L111.019 112.266C111.407 111.181 112.083 110.222 112.976 109.493C113.868 108.763 114.942 108.291 116.083 108.126Z" fill="#3AB4FD"/>
<path opacity="0.1" d="M116.083 108.126C117.247 110.664 117.883 117.45 118.033 127.164C115.886 127.663 113.885 128.656 112.189 130.062L109.561 114.804L111.019 112.266C111.407 111.181 112.083 110.222 112.976 109.493C113.868 108.763 114.942 108.291 116.083 108.126Z" fill="white"/>
<path d="M127.861 136.656L132.859 136.392L129.817 140.412C129.817 140.412 126.667 139.956 125.965 138.012L127.861 136.656Z" fill="#B55B52"/>
<path d="M135.156 140.106L134.298 141.12C134.081 141.38 133.785 141.562 133.455 141.64C133.125 141.718 132.779 141.687 132.468 141.552L129.816 140.412L132.858 136.392L134.856 137.796C135.037 137.921 135.189 138.083 135.303 138.27C135.417 138.458 135.49 138.667 135.518 138.885C135.547 139.102 135.529 139.323 135.467 139.534C135.404 139.744 135.299 139.939 135.156 140.106Z" fill="#B55B52"/>
<path d="M115.848 109.728C115.932 113.328 115.428 120.798 112.896 136.338H92.7601C93.0961 128.142 93.4981 123.006 89.5801 106.182C92.2707 105.634 94.9981 105.285 97.7401 105.138C100.784 104.922 103.84 104.922 106.884 105.138C108.858 105.318 110.958 105.636 112.566 105.912C113.471 106.068 114.294 106.534 114.893 107.23C115.492 107.927 115.829 108.81 115.848 109.728Z" fill="#263238"/>
<path d="M100.644 115.404C100.625 115.405 100.606 115.402 100.588 115.395C100.571 115.388 100.555 115.376 100.542 115.362C98.9881 113.604 96.1981 108.996 96.1621 106.056C96.1621 106.019 96.1766 105.984 96.2025 105.959C96.2284 105.933 96.2635 105.918 96.3001 105.918C96.3187 105.917 96.3373 105.92 96.3548 105.927C96.3722 105.933 96.3881 105.943 96.4016 105.956C96.415 105.969 96.4258 105.985 96.4331 106.002C96.4404 106.019 96.4441 106.037 96.4441 106.056C96.4441 108.624 98.8981 113.004 100.644 115.056C101.589 113.749 102.761 112.623 104.106 111.732C104.121 111.722 104.139 111.715 104.157 111.712C104.175 111.709 104.193 111.709 104.211 111.713C104.229 111.717 104.246 111.724 104.261 111.735C104.276 111.745 104.288 111.759 104.298 111.774C104.317 111.805 104.324 111.842 104.318 111.877C104.311 111.913 104.291 111.944 104.262 111.966C102.901 112.872 101.721 114.023 100.782 115.362C100.772 115.382 100.757 115.399 100.738 115.41C100.718 115.422 100.696 115.428 100.674 115.428L100.644 115.404Z" fill="white"/>
<path d="M108.949 115.404C108.926 115.404 108.905 115.397 108.886 115.386C108.867 115.374 108.851 115.358 108.841 115.338C107.905 113.999 106.727 112.847 105.367 111.942C105.336 111.922 105.314 111.891 105.306 111.855C105.298 111.819 105.305 111.781 105.325 111.75C105.345 111.719 105.376 111.697 105.412 111.689C105.448 111.681 105.486 111.688 105.517 111.708C106.861 112.599 108.034 113.725 108.979 115.032C110.533 113.028 110.083 108.432 109.045 105.972C109.037 105.955 109.032 105.937 109.032 105.918C109.031 105.9 109.034 105.881 109.041 105.864C109.048 105.846 109.058 105.83 109.071 105.817C109.084 105.804 109.099 105.793 109.117 105.786C109.152 105.772 109.191 105.772 109.226 105.787C109.26 105.802 109.288 105.829 109.303 105.864C110.395 108.48 110.839 113.358 109.069 115.362C109.053 115.378 109.034 115.39 109.014 115.397C108.993 115.404 108.971 115.407 108.949 115.404Z" fill="white"/>
<path d="M98.6462 94.842C99.2462 97.782 99.7982 103.176 97.7402 105.138C99.4098 107.838 101.893 109.939 104.832 111.138C108.768 108.672 106.884 105.138 106.884 105.138C103.602 104.352 103.692 101.922 104.262 99.636L98.6462 94.842Z" fill="#B55B52"/>
<path opacity="0.2" d="M100.938 96.7981L104.256 99.6301C104.119 100.164 104.024 100.707 103.974 101.256C102.726 101.076 101.004 99.6961 100.866 98.3821C100.792 97.8541 100.817 97.3172 100.938 96.7981Z" fill="black"/>
<path d="M95.5436 89.4419C96.6956 94.2419 97.0856 96.2759 99.9656 98.3279C104.304 101.412 109.926 98.9279 110.226 93.9119C110.496 89.3819 108.564 82.3199 103.488 81.2339C102.37 80.9892 101.208 81.0343 100.112 81.365C99.0163 81.6957 98.0234 82.3009 97.2274 83.1233C96.4315 83.9457 95.859 84.9579 95.5643 86.0638C95.2696 87.1697 95.2625 88.3325 95.5436 89.4419Z" fill="#B55B52"/>
<path d="M95.6758 84.252C98.6758 85.926 108.846 85.326 107.334 82.272C105.822 79.218 99.3718 79.974 95.6758 84.252Z" fill="#263238"/>
<path d="M97.9262 84.1019C100.548 87.8279 99.7982 92.9639 93.9482 92.9819C88.0982 92.9999 92.2022 82.7999 97.9262 84.1019Z" fill="#263238"/>
<path d="M102.258 93L107.658 93.726C107.658 93.726 106.968 95.28 104.442 94.926C102.354 94.572 102.258 93 102.258 93Z" fill="white"/>
<path d="M112.897 136.338C112.897 136.338 111.199 173.676 110.875 188.796C110.533 204.528 110.383 241.26 110.383 241.26H106.417C106.417 241.26 100.081 210.732 101.959 188.796C99.121 171.954 97.207 136.338 97.207 136.338H112.897Z" fill="#B55B52"/>
<path d="M107.634 136.338C107.634 136.338 99.234 175.224 95.214 189.798C92.214 200.736 71.31 231.846 71.16 232.998L67.998 231.258C67.998 231.258 80.214 197.226 85.656 187.56C85.656 170.478 92.76 136.362 92.76 136.362L107.634 136.338Z" fill="#B55B52"/>
<path d="M103.83 89.4C103.902 89.796 104.166 90.078 104.43 90C104.694 89.922 104.838 89.598 104.772 89.208C104.706 88.818 104.436 88.53 104.172 88.578C103.908 88.626 103.764 89.004 103.83 89.4Z" fill="#263238"/>
<path d="M108.284 88.6081C108.356 88.9981 108.62 89.2861 108.884 89.2081C109.148 89.1301 109.291 88.8061 109.225 88.4101C109.159 88.0141 108.889 87.7381 108.625 87.7801C108.361 87.8221 108.218 88.2001 108.284 88.6081Z" fill="#263238"/>
<path d="M108.516 87.8521L109.41 87.4141C109.41 87.4141 109.056 88.2361 108.516 87.8521Z" fill="#263238"/>
<path d="M106.842 89.3159C107.354 90.1505 107.978 90.9115 108.696 91.5779C108.519 91.7565 108.306 91.8946 108.071 91.9826C107.836 92.0707 107.584 92.1066 107.334 92.0879L106.842 89.3159Z" fill="#A02724"/>
<path d="M94.8717 92.1721C95.2397 93.0506 95.9409 93.7475 96.8217 94.1101C97.9917 94.5781 98.7177 93.5641 98.5077 92.3881C98.3157 91.3321 97.4817 89.8081 96.2517 89.8381C95.9829 89.8503 95.7214 89.9292 95.4907 90.0678C95.26 90.2064 95.0675 90.4003 94.9306 90.6319C94.7936 90.8636 94.7165 91.1257 94.7063 91.3946C94.696 91.6634 94.7528 91.9307 94.8717 92.1721Z" fill="#B55B52"/>
<path d="M101.779 87.5101C101.84 87.4928 101.893 87.4546 101.929 87.4021C102.077 87.1459 102.283 86.9286 102.532 86.7679C102.78 86.6073 103.063 86.5079 103.357 86.4781C103.418 86.475 103.476 86.4484 103.519 86.4037C103.561 86.359 103.585 86.2997 103.585 86.2381C103.584 86.2068 103.577 86.176 103.564 86.1475C103.551 86.119 103.533 86.0934 103.51 86.0721C103.487 86.0509 103.46 86.0344 103.431 86.0238C103.401 86.0131 103.37 86.0085 103.339 86.0101C102.969 86.0418 102.612 86.1626 102.298 86.3621C101.985 86.5617 101.724 86.8341 101.539 87.1561C101.522 87.182 101.511 87.2111 101.506 87.2414C101.5 87.2718 101.501 87.3029 101.508 87.3331C101.514 87.3632 101.527 87.3917 101.545 87.4169C101.562 87.4421 101.585 87.4636 101.611 87.4801C101.662 87.5088 101.721 87.5194 101.779 87.5101Z" fill="#263238"/>
<path d="M109.2 86.256C109.23 86.2534 109.258 86.2445 109.284 86.2301C109.31 86.2156 109.332 86.1958 109.35 86.172C109.369 86.148 109.384 86.1204 109.393 86.0908C109.401 86.0612 109.404 86.0302 109.401 85.9995C109.397 85.9688 109.388 85.9391 109.373 85.9121C109.358 85.8851 109.338 85.8613 109.314 85.842C109.027 85.6031 108.688 85.436 108.324 85.3546C107.959 85.2732 107.581 85.2798 107.22 85.374C107.169 85.4002 107.129 85.4438 107.108 85.4969C107.086 85.5499 107.084 85.6089 107.102 85.6633C107.12 85.7176 107.157 85.7637 107.206 85.7932C107.255 85.8227 107.314 85.8336 107.37 85.824C107.656 85.7528 107.954 85.7505 108.241 85.8172C108.528 85.884 108.795 86.0179 109.02 86.208C109.072 86.2464 109.136 86.2636 109.2 86.256Z" fill="#263238"/>
<path d="M104.064 88.644L104.958 88.2C104.958 88.2 104.604 89.028 104.064 88.644Z" fill="#263238"/>
<path d="M113.185 139.02L112.285 188.82C112.285 188.82 106.027 189.942 98.6532 186.132C94.2771 183.855 89.3401 182.881 84.4272 183.324C82.8132 153.156 88.0872 143.67 92.1312 139.044L113.185 139.02Z" fill="#263238"/>
<path opacity="0.2" d="M109.351 170.232L98.185 161.97L94.543 155.244L109.351 170.232Z" fill="black"/>
<path d="M114.043 133.266L113.299 140.25C107.959 140.892 100.195 140.658 91.9453 140.25L92.5993 133.266C100.363 133.53 107.749 133.626 114.043 133.266Z" fill="white"/>
<path d="M97.1996 104.754C97.1996 104.754 97.3556 143.754 95.4956 153.186C92.4236 150.3 88.1816 143.586 88.1816 143.586C88.1816 143.586 90.5816 135.972 91.2476 134.154C90.8756 131.412 87.8036 108.66 88.2476 106.29C91.3376 105.216 97.1996 104.754 97.1996 104.754Z" fill="#3AB4FD"/>
<path opacity="0.2" d="M97.1996 104.754C97.1996 104.754 97.3556 143.754 95.4956 153.186C92.4236 150.3 88.1816 143.586 88.1816 143.586C88.1816 143.586 90.5816 135.972 91.2476 134.154C90.8756 131.412 87.8036 108.66 88.2476 106.29C91.3376 105.216 97.1996 104.754 97.1996 104.754Z" fill="white"/>
<path d="M90.5462 112.236C89.0102 114.318 87.4622 116.502 85.9862 118.668C84.5102 120.834 83.0702 123.036 81.7862 125.268C81.4682 125.826 81.1862 126.384 80.8802 126.942C80.7242 127.218 80.5862 127.5 80.4602 127.776L80.0942 128.538C80.0942 128.448 80.0942 128.334 80.0942 128.334C80.0942 128.334 80.0942 128.424 80.0942 128.562C80.279 128.971 80.5259 129.35 80.8262 129.684C81.6249 130.588 82.5045 131.418 83.4542 132.162C84.4382 132.96 85.5122 133.758 86.5442 134.49L85.3862 136.89C84.0394 136.437 82.7278 135.886 81.4622 135.24C80.127 134.568 78.8762 133.74 77.7362 132.774C77.0483 132.189 76.4606 131.496 75.9962 130.722C75.6882 130.21 75.4729 129.647 75.3602 129.06C75.2229 128.329 75.2746 127.575 75.5102 126.87L75.5582 126.738V126.666L75.6122 126.534L75.7142 126.282L75.9182 125.778C76.0502 125.43 76.1882 125.1 76.3382 124.776C76.6322 124.122 76.9382 123.474 77.2562 122.856C78.5218 120.38 79.9239 117.976 81.4562 115.656C82.2002 114.504 82.9742 113.37 83.7662 112.254C84.5582 111.138 85.3562 110.04 86.2262 108.93L90.5462 112.236Z" fill="#B65B52"/>
<path d="M85.9378 134.238L91.2838 133.836L88.3318 137.922C88.3318 137.922 85.1698 137.532 84.4258 135.612L85.9378 134.238Z" fill="#B55B52"/>
<path d="M93.6003 137.562L92.8203 138.522C92.6039 138.791 92.3084 138.985 91.9757 139.076C91.6429 139.168 91.2898 139.152 90.9663 139.032L88.3203 137.922L91.2723 133.836L93.2343 135.15C93.4246 135.278 93.5863 135.444 93.709 135.638C93.8317 135.832 93.9128 136.049 93.9472 136.276C93.9817 136.502 93.9686 136.734 93.9089 136.955C93.8491 137.177 93.7441 137.383 93.6003 137.562Z" fill="#B55B52"/>
<path d="M108.492 104.754C108.492 104.754 110.748 120.258 111.156 132.666C111.402 140.112 110.046 149.586 110.202 153.186C112.171 151.221 113.693 148.855 114.666 146.25C114.666 146.25 115.578 142.998 114.45 134.154C114.756 131.922 116.106 116.598 116.37 109.704C116.406 108.796 116.127 107.903 115.58 107.177C115.034 106.451 114.253 105.936 113.37 105.72C110.862 105.126 108.492 104.754 108.492 104.754Z" fill="#3AB4FD"/>
<g opacity="0.2">
<path d="M108.492 104.754C108.492 104.754 110.748 120.258 111.156 132.666C111.402 140.112 110.046 149.586 110.202 153.186C112.171 151.221 113.693 148.855 114.666 146.25C114.666 146.25 115.578 142.998 114.45 134.154C114.756 131.922 116.106 116.598 116.37 109.704C116.406 108.796 116.127 107.903 115.58 107.177C115.034 106.451 114.253 105.936 113.37 105.72C110.862 105.126 108.492 104.754 108.492 104.754Z" fill="white"/>
</g>
<path d="M105.145 114.702C104.929 114.702 104.701 114.414 104.611 113.994C104.515 113.55 104.611 113.172 104.851 113.124C105.091 113.076 105.355 113.382 105.451 113.826C105.522 114.074 105.496 114.34 105.379 114.57C105.336 114.636 105.269 114.683 105.193 114.702H105.145ZM104.749 113.964C104.833 114.348 105.043 114.564 105.169 114.564C105.189 114.559 105.208 114.551 105.225 114.538C105.241 114.526 105.255 114.51 105.265 114.492C105.355 114.292 105.372 114.067 105.313 113.856C105.235 113.478 105.019 113.256 104.881 113.256C104.743 113.256 104.665 113.58 104.749 113.958V113.964Z" fill="white"/>
<path d="M105.781 118.914C105.547 118.914 105.343 118.596 105.295 118.164C105.247 117.732 105.385 117.36 105.625 117.33C105.665 117.327 105.705 117.333 105.744 117.346C105.782 117.36 105.817 117.381 105.847 117.408C106.024 117.588 106.131 117.827 106.147 118.08C106.188 118.33 106.135 118.587 105.997 118.8C105.973 118.831 105.943 118.857 105.909 118.877C105.875 118.897 105.838 118.909 105.799 118.914H105.781ZM105.655 117.468C105.517 117.468 105.403 117.756 105.445 118.14C105.487 118.524 105.655 118.74 105.793 118.74C105.813 118.738 105.832 118.731 105.85 118.721C105.868 118.711 105.883 118.697 105.895 118.68C106.005 118.501 106.048 118.288 106.015 118.08C106.009 117.855 105.919 117.641 105.763 117.48C105.729 117.465 105.691 117.46 105.655 117.468Z" fill="white"/>
<path d="M105.973 123.102C105.733 123.102 105.553 122.754 105.547 122.316C105.547 121.872 105.721 121.536 105.961 121.53C106.001 121.53 106.04 121.539 106.076 121.556C106.112 121.572 106.145 121.596 106.171 121.626C106.333 121.819 106.416 122.065 106.405 122.316C106.419 122.561 106.347 122.803 106.201 123C106.172 123.032 106.136 123.057 106.097 123.074C106.058 123.092 106.016 123.101 105.973 123.102ZM105.679 122.316C105.679 122.694 105.835 122.958 105.973 122.964C106.015 122.958 106.054 122.937 106.081 122.904C106.213 122.734 106.276 122.519 106.255 122.304C106.271 122.088 106.204 121.873 106.069 121.704C106.055 121.688 106.039 121.675 106.02 121.666C106.002 121.657 105.982 121.651 105.961 121.65C105.829 121.65 105.685 121.914 105.685 122.292L105.679 122.316Z" fill="white"/>
<path d="M105.744 127.23H105.708C105.474 127.2 105.324 126.852 105.366 126.42C105.408 125.982 105.624 125.664 105.858 125.688C105.938 125.699 106.011 125.74 106.062 125.802C106.196 126.01 106.252 126.259 106.218 126.504C106.207 126.75 106.104 126.983 105.93 127.158C105.878 127.202 105.813 127.227 105.744 127.23ZM105.504 126.432C105.468 126.804 105.594 127.074 105.726 127.092C105.748 127.093 105.77 127.09 105.791 127.083C105.811 127.076 105.83 127.065 105.846 127.05C105.988 126.898 106.071 126.7 106.08 126.492C106.108 126.283 106.063 126.072 105.954 125.892C105.928 125.858 105.889 125.834 105.846 125.826C105.714 125.826 105.552 126.066 105.516 126.426L105.504 126.432Z" fill="white"/>
<path d="M105.379 131.286C105.139 131.256 104.995 130.908 105.037 130.476C105.073 130.056 105.277 129.75 105.505 129.75C105.544 129.754 105.583 129.767 105.618 129.786C105.653 129.806 105.684 129.832 105.709 129.864C105.844 130.069 105.898 130.317 105.859 130.56C105.852 130.804 105.751 131.036 105.577 131.208C105.522 131.257 105.452 131.285 105.379 131.286ZM105.475 129.894C105.343 129.894 105.181 130.128 105.145 130.494C105.109 130.866 105.229 131.136 105.367 131.154C105.411 131.154 105.454 131.137 105.487 131.106C105.627 130.956 105.708 130.76 105.715 130.554C105.75 130.346 105.707 130.132 105.595 129.954C105.582 129.936 105.566 129.921 105.548 129.91C105.529 129.898 105.508 129.891 105.487 129.888L105.475 129.894Z" fill="white"/>
<path opacity="0.2" d="M90.4686 114.894C90.2539 116.334 89.8692 117.744 89.3226 119.094C89.2026 118.068 89.0826 117.042 88.9746 116.058L90.4686 114.894Z" fill="black"/>
<path d="M88.2002 106.29C85.9682 107.964 81.4862 114.864 76.7402 123.336C78.292 124.62 79.7722 125.988 81.1742 127.434L90.7742 115.266L90.7022 112.338C90.8765 111.198 90.7355 110.031 90.2945 108.965C89.8535 107.899 89.1293 106.974 88.2002 106.29Z" fill="#3AB4FD"/>
<path opacity="0.2" d="M88.2002 106.29C85.9682 107.964 81.4862 114.864 76.7402 123.336C78.292 124.62 79.7722 125.988 81.1742 127.434L90.7742 115.266L90.7022 112.338C90.8765 111.198 90.7355 110.031 90.2945 108.965C89.8535 107.899 89.1293 106.974 88.2002 106.29Z" fill="white"/>
<path d="M110.401 237.648C111.103 243.528 114.853 248.076 114.853 248.076L108.751 246.51L105.967 242.136L106.567 240.984L110.401 237.648Z" fill="#B55B52"/>
<path d="M105.721 240.654C105.482 241.162 105.367 241.719 105.385 242.28C105.421 244.314 105.649 249.72 105.649 249.72H106.129C106.123 248.057 106.207 246.394 106.381 244.74C106.615 243.396 107.581 244.986 108.097 246.504C108.613 248.022 110.767 249.648 113.869 249.72C117.505 249.81 118.981 249.648 117.925 248.766C116.869 247.884 114.457 247.32 114.457 247.32C113.47 247.293 112.507 247.008 111.665 246.493C110.823 245.979 110.13 245.252 109.657 244.386C108.577 242.436 107.257 240.498 106.363 240.042C106.216 240.087 106.081 240.166 105.97 240.273C105.858 240.379 105.773 240.509 105.721 240.654Z" fill="#263238"/>
<path d="M71.826 231.726C70.152 235.848 69.96 242.094 69.96 242.094L66 236.268L66.768 231.144L67.968 230.676L71.826 231.726Z" fill="#B55B52"/>
<path d="M67.5605 229.866C67.0485 230.09 66.5977 230.433 66.2466 230.868C64.9326 232.428 61.5605 236.658 61.5605 236.658L61.9205 236.97C63.0098 235.709 64.1655 234.508 65.3825 233.37C66.4385 232.512 66.1145 234.336 65.5145 235.83C64.9145 237.324 65.4665 239.952 67.7585 242.046C70.4405 244.5 71.6585 245.346 71.4425 243.99C71.2265 242.634 69.7806 240.6 69.7806 240.6C69.0594 239.932 68.5251 239.088 68.2305 238.15C67.9358 237.213 67.8911 236.214 68.1005 235.254C68.5625 233.07 68.8505 230.748 68.4665 229.812C68.3218 229.75 68.1645 229.722 68.0071 229.731C67.8498 229.741 67.6968 229.787 67.5605 229.866Z" fill="#263238"/>
<path d="M133.799 140.178H226.913C229.507 140.218 231.993 141.224 233.885 142.999C235.777 144.774 236.939 147.192 237.143 149.778L240.803 206.982C240.895 208.215 240.729 209.454 240.317 210.62C239.905 211.787 239.256 212.855 238.41 213.757C237.564 214.659 236.54 215.376 235.403 215.862C234.266 216.349 233.04 216.594 231.803 216.582H138.659C136.071 216.534 133.593 215.524 131.707 213.75C129.822 211.975 128.664 209.563 128.459 206.982L124.799 149.79C124.705 148.555 124.869 147.315 125.28 146.147C125.691 144.979 126.34 143.909 127.186 143.005C128.032 142.101 129.057 141.383 130.196 140.897C131.334 140.41 132.561 140.165 133.799 140.178Z" fill="#3AB4FD"/>
<path opacity="0.3" d="M133.799 140.178H226.913C229.507 140.218 231.993 141.224 233.885 142.999C235.777 144.774 236.939 147.192 237.143 149.778L240.803 206.982C240.895 208.215 240.729 209.454 240.317 210.62C239.905 211.787 239.256 212.855 238.41 213.757C237.564 214.659 236.54 215.376 235.403 215.862C234.266 216.349 233.04 216.594 231.803 216.582H138.659C136.071 216.534 133.593 215.524 131.707 213.75C129.822 211.975 128.664 209.563 128.459 206.982L124.799 149.79C124.705 148.555 124.869 147.315 125.28 146.147C125.691 144.979 126.34 143.909 127.186 143.005C128.032 142.101 129.057 141.383 130.196 140.897C131.334 140.41 132.561 140.165 133.799 140.178Z" fill="white"/>
<path d="M138.666 216.6H231.798C234.084 216.621 236.29 215.761 237.96 214.2L182.268 170.28L132.18 214.2C133.99 215.741 136.288 216.591 138.666 216.6Z" fill="#3AB4FD"/>
<path opacity="0.5" d="M138.666 216.6H231.798C234.084 216.621 236.29 215.761 237.96 214.2L182.268 170.28L132.18 214.2C133.99 215.741 136.288 216.591 138.666 216.6Z" fill="white"/>
<path d="M183.156 184.2L231.858 141.498C230.354 140.63 228.65 140.171 226.914 140.166H133.8C132.107 140.154 130.445 140.616 129 141.498L183.156 184.2Z" fill="#3AB4FD"/>
<path d="M216.658 140.4L213.412 89.5801C213.31 88.188 212.69 86.8848 211.673 85.9283C210.656 84.9717 209.318 84.4314 207.922 84.4141H135.322C136.718 84.4326 138.057 84.9732 139.074 85.9294C140.091 86.8855 140.713 88.1879 140.818 89.5801L144.04 139.98" fill="white"/>
<path d="M216.659 141.138C216.467 141.139 216.282 141.066 216.141 140.934C216.001 140.802 215.916 140.622 215.903 140.43L212.657 89.6101C212.57 88.4097 212.035 87.2858 211.158 86.4612C210.282 85.6366 209.127 85.1715 207.923 85.1581H139.355C139.997 85.6997 140.523 86.3642 140.903 87.1123C141.283 87.8604 141.51 88.6771 141.569 89.5141L144.791 139.914C144.805 140.017 144.796 140.122 144.767 140.222C144.738 140.322 144.689 140.415 144.623 140.495C144.556 140.575 144.474 140.641 144.382 140.688C144.289 140.736 144.187 140.763 144.084 140.77C143.98 140.777 143.876 140.762 143.778 140.727C143.68 140.691 143.59 140.637 143.514 140.565C143.438 140.494 143.378 140.408 143.336 140.313C143.295 140.217 143.274 140.114 143.273 140.01L140.057 89.6101C139.97 88.4087 139.434 87.2839 138.556 86.4592C137.678 85.6344 136.522 85.17 135.317 85.1581C135.128 85.1413 134.951 85.054 134.823 84.9135C134.694 84.773 134.623 84.5895 134.623 84.3991C134.623 84.2087 134.694 84.0252 134.823 83.8848C134.951 83.7443 135.128 83.657 135.317 83.6401H207.917C209.51 83.6536 211.04 84.2649 212.203 85.3528C213.367 86.4407 214.079 87.9259 214.199 89.5141L217.451 140.334C217.463 140.535 217.394 140.733 217.26 140.884C217.127 141.034 216.939 141.126 216.737 141.138H216.659Z" fill="#3AB4FD"/>
<path d="M135.317 84.396C134.651 84.3891 133.992 84.5206 133.38 84.7821C132.768 85.0437 132.217 85.4296 131.763 85.9154C131.308 86.4012 130.959 86.9762 130.738 87.604C130.518 88.2317 130.43 88.8985 130.481 89.562H140.813C140.708 88.1699 140.086 86.8675 139.068 85.9113C138.051 84.9552 136.713 84.4146 135.317 84.396Z" fill="#3AB4FD"/>
<path d="M140.813 90.324H130.481C130.288 90.3243 130.102 90.2505 129.961 90.1177C129.821 89.9848 129.736 89.8032 129.725 89.61C129.666 88.8429 129.767 88.0719 130.022 87.346C130.277 86.6201 130.681 85.9552 131.207 85.3936C131.733 84.8321 132.37 84.3862 133.078 84.0843C133.785 83.7824 134.548 83.6311 135.317 83.64C136.91 83.6549 138.439 84.2666 139.602 85.3542C140.765 86.4418 141.478 87.9262 141.599 89.514C141.605 89.6179 141.59 89.7219 141.555 89.8198C141.52 89.9177 141.466 90.0076 141.395 90.084C141.32 90.1623 141.23 90.224 141.13 90.2654C141.029 90.3067 140.922 90.3267 140.813 90.324ZM131.249 88.8H139.931C139.676 87.7663 139.084 86.8469 138.249 86.1865C137.413 85.5261 136.382 85.1622 135.317 85.152C134.304 85.1328 133.32 85.4984 132.565 86.1754C131.811 86.8523 131.34 87.7902 131.249 88.8Z" fill="#3AB4FD"/>
<path d="M207.922 84.396H135.322C136.718 84.4145 138.057 84.9551 139.074 85.9113C140.091 86.8675 140.713 88.1699 140.818 89.562L144.94 154.068L183.154 184.2L217.558 154.464L213.412 89.55C213.307 88.16 212.685 86.8598 211.669 85.9058C210.653 84.9517 209.316 84.413 207.922 84.396Z" fill="white"/>
<path opacity="0.3" d="M144.936 154.068L183.15 184.212L217.56 154.476L180.426 178.998L144.936 154.068Z" fill="#3AB4FD"/>
<path opacity="0.3" d="M209.687 125.22H149.093L148.787 120.498H209.387L209.687 125.22Z" fill="#3AB4FD"/>
<path opacity="0.3" d="M197.207 139.854H150.023L149.723 135.132H196.907L197.207 139.854Z" fill="#3AB4FD"/>
<path opacity="0.3" d="M211.559 154.488H175.943L175.643 149.76H211.259L211.559 154.488Z" fill="#3AB4FD"/>
<path opacity="0.3" d="M150.96 154.488H170.028L169.722 149.76H150.66L150.96 154.488Z" fill="#3AB4FD"/>
<path d="M192.966 52.098H192.366L192.096 48.198H192.696L192.966 52.098Z" fill="#3AB4FD"/>
<path d="M192.491 45.198H191.891L191.291 36.93C191.138 34.777 190.348 32.718 189.023 31.014L189.491 30.672C190.891 32.4755 191.727 34.6529 191.891 36.93L192.491 45.198Z" fill="#3AB4FD"/>
<path d="M119.874 28.068H180.336C182.733 28.1086 185.03 29.0374 186.781 30.6747C188.533 32.3119 189.614 34.541 189.816 36.93L191.946 67.692C192.041 68.8284 191.898 69.9722 191.526 71.0501C191.153 72.1279 190.559 73.116 189.783 73.951C189.006 74.7859 188.063 75.4493 187.015 75.8986C185.967 76.3479 184.836 76.5732 183.696 76.56H179.226L180.006 87.774L168 76.56H123.234C120.836 76.518 118.539 75.5878 116.788 73.9496C115.037 72.3114 113.956 70.0816 113.754 67.692L111.6 36.93C111.506 35.7922 111.651 34.6474 112.026 33.569C112.401 32.4907 112.997 31.5025 113.776 30.6681C114.555 29.8336 115.5 29.1712 116.55 28.7235C117.6 28.2757 118.732 28.0525 119.874 28.068Z" fill="#3AB4FD"/>
<path d="M135.804 50.7061H135.918C135.322 50.6976 134.748 50.4859 134.29 50.1061C133.831 49.7263 133.517 49.2013 133.398 48.6181C133.368 48.2723 133.412 47.9243 133.525 47.5963C133.638 47.2683 133.818 46.9675 134.054 46.7133C134.29 46.4591 134.577 46.257 134.896 46.1201C135.215 45.9831 135.559 45.9143 135.906 45.9181H136.8L146.55 45.0001C146.156 43.319 145.864 41.616 145.674 39.9001C145.392 37.0741 147.018 33.5881 149.712 34.8361C150.798 35.3401 150.408 38.8501 151.014 40.2361C151.62 41.6221 156.744 45.7201 158.304 48.6361C158.722 48.8025 159.085 49.0831 159.351 49.446C159.617 49.8088 159.776 50.2392 159.81 50.6881L160.452 59.9461C160.501 60.5991 160.416 61.2554 160.203 61.8745C159.989 62.4936 159.651 63.0625 159.21 63.5461C158.758 64.0218 158.213 64.3998 157.609 64.6567C157.006 64.9137 156.356 65.0442 155.7 65.0401H139.644C139.085 65.0424 138.539 64.8702 138.083 64.5475C137.627 64.2248 137.283 63.7677 137.1 63.2401C136.981 62.9033 136.945 62.5429 136.995 62.1895C137.046 61.836 137.18 61.4998 137.388 61.2095C137.596 60.9192 137.871 60.6833 138.189 60.5219C138.508 60.3604 138.861 60.2782 139.218 60.2821H137.166C136.602 60.2737 136.061 60.0559 135.648 59.6712C135.236 59.2864 134.981 58.7621 134.934 58.2001C134.86 57.8741 134.862 57.5359 134.938 57.2105C135.013 56.8852 135.162 56.5813 135.372 56.3216C135.582 56.0618 135.848 55.853 136.151 55.7107C136.453 55.5685 136.783 55.4964 137.118 55.5001H136.026C135.394 55.4899 134.787 55.2507 134.318 54.827C133.849 54.4033 133.55 53.8238 133.476 53.1961C133.444 52.875 133.481 52.5508 133.584 52.2453C133.688 51.9397 133.856 51.6597 134.076 51.424C134.296 51.1884 134.564 51.0024 134.862 50.8786C135.16 50.7548 135.481 50.696 135.804 50.7061Z" fill="white"/>
<path d="M164.609 65.0581H167.609C167.84 65.0607 168.069 65.0149 168.281 64.9235C168.493 64.8321 168.684 64.6972 168.841 64.5275C168.997 64.3579 169.117 64.1572 169.191 63.9386C169.265 63.7199 169.292 63.4881 169.271 63.2581L168.341 49.8361C168.304 49.3515 168.087 48.8983 167.733 48.5654C167.379 48.2324 166.913 48.0436 166.427 48.0361H163.457C163.226 48.0336 162.997 48.0794 162.785 48.1708C162.573 48.2621 162.382 48.3969 162.225 48.5664C162.067 48.736 161.948 48.9365 161.873 49.1552C161.798 49.3739 161.769 49.6058 161.789 49.8361L162.719 63.2581C162.758 63.7382 162.972 64.1873 163.32 64.5194C163.669 64.8516 164.128 65.0434 164.609 65.0581Z" fill="white"/>
<path d="M171.986 105.54L173 102.546H174.008L172.454 106.8H171.476L169.916 102.546H170.96L171.986 105.54Z" fill="black"/>
<path d="M177.231 106.8H174.531V102.546H177.225V103.44H175.479V104.25H177.063V105.084H175.479V105.9H177.231V106.8Z" fill="black"/>
<path d="M180.075 106.8L179.313 105.216H178.977V106.8H178.029V102.546H179.715C180.555 102.546 181.095 103.122 181.095 103.878C181.095 104.454 180.777 104.892 180.255 105.078L181.119 106.8H180.075ZM178.977 104.4H179.535C179.925 104.4 180.135 104.184 180.135 103.884C180.135 103.566 179.925 103.368 179.535 103.368H178.977V104.4Z" fill="black"/>
<path d="M182.757 106.8H181.797V102.546H182.757V106.8Z" fill="black"/>
<path d="M184.631 106.8H183.677V102.546H186.419V103.446H184.625V104.346H186.203V105.21H184.631V106.8Z" fill="black"/>
<path d="M188.244 105.024L186.768 102.546H187.878L188.748 104.124L189.63 102.546H190.686L189.192 105.024V106.8H188.244V105.024Z" fill="black"/>
</svg>
