<svg width="100" height="100" viewBox="0 0 100 100" fill="none" xmlns="http://www.w3.org/2000/svg">
<circle cx="50" cy="50" r="50" fill="#EBF8FF"/>
<g clip-path="url(#clip0_3397_3428)">
<path d="M66.0937 36.1471C66.439 36.1471 66.7702 36.2843 67.0144 36.5285C67.2586 36.7727 67.3958 37.1039 67.3958 37.4492V60.8867C67.3958 61.2321 67.2586 61.5632 67.0144 61.8074C66.7702 62.0516 66.439 62.1888 66.0937 62.1888H32.2395C31.8942 62.1888 31.563 62.0516 31.3188 61.8074C31.0746 61.5632 30.9374 61.2321 30.9374 60.8867V37.4492C30.9374 37.1039 31.0746 36.7727 31.3188 36.5285C31.563 36.2843 31.8942 36.1471 32.2395 36.1471H66.0937ZM32.2395 33.543C31.2035 33.543 30.2099 33.9545 29.4774 34.6871C28.7448 35.4196 28.3333 36.4132 28.3333 37.4492V60.8867C28.3333 61.9227 28.7448 62.9163 29.4774 63.6489C30.2099 64.3814 31.2035 64.793 32.2395 64.793H66.0937C67.1297 64.793 68.1232 64.3814 68.8558 63.6489C69.5884 62.9163 69.9999 61.9227 69.9999 60.8867V37.4492C69.9999 36.4132 69.5884 35.4196 68.8558 34.6871C68.1232 33.9545 67.1297 33.543 66.0937 33.543H32.2395Z" fill="#3AB4FD"/>
<path d="M46.5641 42.6573C46.5641 42.3119 46.7013 41.9808 46.9455 41.7366C47.1897 41.4924 47.5209 41.3552 47.8662 41.3552H60.8871C61.2324 41.3552 61.5636 41.4924 61.8078 41.7366C62.052 41.9808 62.1891 42.3119 62.1891 42.6573C62.1891 43.0026 62.052 43.3338 61.8078 43.578C61.5636 43.8222 61.2324 43.9594 60.8871 43.9594H47.8662C47.5209 43.9594 47.1897 43.8222 46.9455 43.578C46.7013 43.3338 46.5641 43.0026 46.5641 42.6573ZM42.6683 40.4333C42.7896 40.5543 42.8858 40.698 42.9514 40.8561C43.0171 41.0143 43.0508 41.1839 43.0508 41.3552C43.0508 41.5265 43.0171 41.696 42.9514 41.8542C42.8858 42.0124 42.7896 42.1561 42.6683 42.2771L38.7621 46.1833C38.6411 46.3046 38.4974 46.4008 38.3392 46.4664C38.181 46.5321 38.0115 46.5659 37.8402 46.5659C37.6689 46.5659 37.4993 46.5321 37.3411 46.4664C37.183 46.4008 37.0393 46.3046 36.9183 46.1833L35.6162 44.8812C35.4952 44.7602 35.3991 44.6164 35.3336 44.4583C35.2681 44.3001 35.2344 44.1306 35.2344 43.9594C35.2344 43.6136 35.3717 43.282 35.6162 43.0375C35.8607 42.793 36.1923 42.6556 36.5381 42.6556C36.8839 42.6556 37.2155 42.793 37.46 43.0375L37.8402 43.4203L40.8246 40.4333C40.9455 40.3121 41.0892 40.2159 41.2474 40.1502C41.4056 40.0846 41.5752 40.0508 41.7464 40.0508C41.9177 40.0508 42.0873 40.0846 42.2455 40.1502C42.4037 40.2159 42.5474 40.3121 42.6683 40.4333ZM46.5641 53.0739C46.5641 52.7286 46.7013 52.3974 46.9455 52.1532C47.1897 51.909 47.5209 51.7719 47.8662 51.7719H60.8871C61.2324 51.7719 61.5636 51.909 61.8078 52.1532C62.052 52.3974 62.1891 52.7286 62.1891 53.0739C62.1891 53.4193 62.052 53.7505 61.8078 53.9947C61.5636 54.2388 61.2324 54.376 60.8871 54.376H47.8662C47.5209 54.376 47.1897 54.2388 46.9455 53.9947C46.7013 53.7505 46.5641 53.4193 46.5641 53.0739ZM42.6683 50.85C42.7896 50.9709 42.8858 51.1146 42.9514 51.2728C43.0171 51.431 43.0508 51.6006 43.0508 51.7719C43.0508 51.9431 43.0171 52.1127 42.9514 52.2709C42.8858 52.4291 42.7896 52.5728 42.6683 52.6937L38.7621 56.6C38.6411 56.7212 38.4974 56.8174 38.3392 56.8831C38.181 56.9487 38.0115 56.9825 37.8402 56.9825C37.6689 56.9825 37.4993 56.9487 37.3411 56.8831C37.183 56.8174 37.0393 56.7212 36.9183 56.6L35.6162 55.2979C35.4952 55.1768 35.3991 55.0331 35.3336 54.8749C35.2681 54.7168 35.2344 54.5472 35.2344 54.376C35.2344 54.2048 35.2681 54.0353 35.3336 53.8771C35.3991 53.7189 35.4952 53.5752 35.6162 53.4542C35.7373 53.3331 35.881 53.2371 36.0392 53.1715C36.1974 53.106 36.3669 53.0723 36.5381 53.0723C36.7093 53.0723 36.8788 53.106 37.037 53.1715C37.1952 53.2371 37.3389 53.3331 37.46 53.4542L37.8402 53.837L40.8246 50.85C40.9455 50.7287 41.0892 50.6325 41.2474 50.5669C41.4056 50.5012 41.5752 50.4674 41.7464 50.4674C41.9177 50.4674 42.0873 50.5012 42.2455 50.5669C42.4037 50.6325 42.5474 50.7287 42.6683 50.85Z" fill="#3AB4FD"/>
</g>
<defs>
<clipPath id="clip0_3397_3428">
<rect width="41.6667" height="41.6667" fill="white" transform="translate(28.3333 28.334)"/>
</clipPath>
</defs>
</svg>
