<svg width="390" height="390" viewBox="0 0 390 390" fill="none" xmlns="http://www.w3.org/2000/svg">
<path d="M192.186 67.2979C180.845 79.9027 175.229 97.0549 176.188 113.981C177.147 130.907 183.387 147.107 191.008 162.271C197.661 175.531 205.61 190.6 200.165 204.391C197.123 212.113 190.197 217.83 182.529 221.013C174.862 224.195 166.454 225.115 158.162 225.529C144.029 226.239 129.684 225.591 115.933 228.906C102.182 232.221 88.633 240.411 83.3212 253.523C77.0812 268.967 84.1714 287.461 96.7138 298.435C109.256 309.41 126.104 314.121 142.609 316.453C165.803 319.711 189.387 318.898 212.302 314.051C230.655 310.151 248.72 303.536 263.688 292.211C278.657 280.885 290.341 264.56 293.547 246.074C296.753 227.588 290.528 207.152 275.88 195.428C269.788 190.553 262.448 187.223 257.097 181.537C251.747 175.851 249.04 166.373 253.977 160.36C257.253 156.382 262.768 155.157 267.893 154.549C293.063 151.546 320.933 156.733 341.993 142.607C354.044 134.518 361.844 120.767 363.56 106.321C365.276 91.8757 362.163 76.3069 353.076 64.9813C328.382 34.1869 222.497 33.6331 192.186 67.2979Z" fill="#3AB4FD"/>
<g opacity="0.9">
<path d="M192.187 67.2979C180.845 79.9027 175.229 97.0549 176.189 113.981C177.148 130.907 183.388 147.107 191.009 162.271C197.662 175.531 205.61 190.6 200.166 204.391C197.124 212.113 190.198 217.83 182.53 221.013C174.863 224.195 166.454 225.115 158.163 225.529C144.029 226.239 129.685 225.591 115.934 228.906C102.182 232.221 88.6337 240.411 83.3219 253.523C77.0819 268.967 84.1721 287.461 96.7145 298.435C109.257 309.41 126.105 314.121 142.61 316.453C165.804 319.711 189.388 318.898 212.303 314.051C230.656 310.151 248.721 303.536 263.689 292.211C278.657 280.885 290.342 264.56 293.548 246.074C296.753 227.588 290.529 207.152 275.881 195.428C269.789 190.553 262.449 187.223 257.098 181.537C251.747 175.851 249.041 166.373 253.978 160.36C257.254 156.382 262.769 155.157 267.893 154.549C293.064 151.546 320.933 156.733 341.993 142.607C354.044 134.518 361.844 120.767 363.56 106.321C365.276 91.8757 362.164 76.3069 353.077 64.9813C328.382 34.1869 222.497 33.6331 192.187 67.2979Z" fill="white"/>
</g>
<path d="M194.999 333.069C278.524 333.069 346.233 329.116 346.233 324.24C346.233 319.363 278.524 315.41 194.999 315.41C111.475 315.41 43.765 319.363 43.765 324.24C43.765 329.116 111.475 333.069 194.999 333.069Z" fill="#F5F5F5"/>
<path d="M182.575 200.46L184.525 189.213L188.355 190.32L182.575 200.46Z" fill="#3AB4FD"/>
<path d="M183.861 204.063L194.828 200.889L193.299 197.199L183.861 204.063Z" fill="#3AB4FD"/>
<path d="M185.811 199.829L192.059 188.02L196.271 190.945L185.811 199.829Z" fill="#3AB4FD"/>
<path d="M256.395 90.2303H245.031C244.556 90.1997 244.111 89.9895 243.786 89.6425C243.46 89.2956 243.279 88.8378 243.279 88.3622C243.279 87.8867 243.46 87.4289 243.786 87.0819C244.111 86.735 244.556 86.5248 245.031 86.4941H256.395C256.87 86.5248 257.315 86.735 257.64 87.0819C257.965 87.4289 258.146 87.8867 258.146 88.3622C258.146 88.8378 257.965 89.2956 257.64 89.6425C257.315 89.9895 256.87 90.1997 256.395 90.2303Z" fill="#3AB4FD"/>
<g opacity="0.7">
<path d="M256.396 90.2303H245.031C244.556 90.1997 244.111 89.9895 243.786 89.6425C243.461 89.2956 243.28 88.8378 243.28 88.3622C243.28 87.8867 243.461 87.4289 243.786 87.0819C244.111 86.735 244.556 86.5248 245.031 86.4941H256.396C256.87 86.5248 257.315 86.735 257.641 87.0819C257.966 87.4289 258.147 87.8867 258.147 88.3622C258.147 88.8378 257.966 89.2956 257.641 89.6425C257.315 89.9895 256.87 90.1997 256.396 90.2303Z" fill="white"/>
</g>
<path d="M298.087 128.536L254.516 208.72C254.246 209.215 253.79 209.582 253.249 209.742C252.708 209.901 252.126 209.839 251.63 209.57L177.491 169.259C176.996 168.989 176.628 168.533 176.469 167.992C176.31 167.451 176.371 166.869 176.641 166.373L233.308 62.103C233.578 61.6079 234.034 61.2403 234.575 61.0809C235.116 60.9215 235.698 60.9833 236.194 61.2528L286.114 88.3968L298.087 128.536Z" fill="#3AB4FD"/>
<g opacity="0.2">
<path d="M298.088 128.538L254.518 208.722C254.247 209.217 253.792 209.584 253.251 209.744C252.709 209.903 252.127 209.841 251.632 209.572L177.493 169.261C176.998 168.991 176.63 168.535 176.471 167.994C176.311 167.453 176.373 166.871 176.642 166.375L233.309 62.1049C233.58 61.6099 234.036 61.2423 234.577 61.0829C235.118 60.9235 235.7 60.9853 236.195 61.2547L286.115 88.3987L298.088 128.538Z" fill="white"/>
</g>
<path d="M273.621 146.542L218.252 116.666L216.4 120.098L271.769 149.974L273.621 146.542Z" fill="#3AB4FD"/>
<path d="M266.062 160.565L210.693 130.689L208.841 134.122L264.21 163.997L266.062 160.565Z" fill="#3AB4FD"/>
<path d="M258.491 174.594L203.122 144.719L201.27 148.151L256.639 178.026L258.491 174.594Z" fill="#3AB4FD"/>
<path d="M286.216 88.3594L273.081 112.539C272.811 113.035 272.749 113.617 272.909 114.158C273.068 114.699 273.436 115.155 273.931 115.425L298.041 128.529L286.216 88.3594Z" fill="#3AB4FD"/>
<path opacity="0.7" d="M286.216 88.3594L273.081 112.539C272.811 113.035 272.749 113.617 272.909 114.158C273.068 114.699 273.436 115.155 273.931 115.425L298.041 128.529L286.216 88.3594Z" fill="white"/>
<path d="M309.444 125.838L265.881 206.022C265.61 206.518 265.155 206.885 264.614 207.044C264.073 207.204 263.49 207.142 262.995 206.873L188.856 166.593C188.359 166.324 187.99 165.869 187.829 165.328C187.668 164.787 187.729 164.204 187.998 163.707L244.665 59.4137C244.934 58.9173 245.389 58.548 245.93 58.3871C246.471 58.2262 247.054 58.2869 247.551 58.5557L297.51 85.6997L309.444 125.838Z" fill="#3AB4FD"/>
<g opacity="0.5">
<path d="M309.445 125.838L265.882 206.022C265.611 206.518 265.156 206.885 264.615 207.044C264.074 207.204 263.491 207.142 262.996 206.873L188.857 166.593C188.36 166.324 187.991 165.869 187.83 165.328C187.669 164.787 187.73 164.204 187.999 163.707L244.666 59.4137C244.935 58.9173 245.39 58.548 245.931 58.3871C246.472 58.2262 247.055 58.2869 247.552 58.5557L297.511 85.6997L309.445 125.838Z" fill="white"/>
</g>
<path d="M283.524 143.037L231.108 114.762C230.915 114.656 230.702 114.59 230.483 114.568C230.264 114.545 230.043 114.565 229.832 114.629C229.621 114.692 229.424 114.796 229.254 114.935C229.083 115.074 228.942 115.246 228.838 115.44L228.581 115.916C228.475 116.11 228.409 116.323 228.386 116.543C228.363 116.762 228.384 116.984 228.447 117.196C228.51 117.407 228.614 117.605 228.754 117.776C228.893 117.947 229.065 118.089 229.259 118.194L281.675 146.469C282.066 146.679 282.525 146.726 282.951 146.599C283.376 146.472 283.734 146.181 283.945 145.79L284.203 145.307C284.308 145.113 284.374 144.901 284.397 144.682C284.42 144.463 284.399 144.241 284.336 144.03C284.273 143.819 284.168 143.623 284.029 143.452C283.89 143.282 283.718 143.141 283.524 143.037Z" fill="#3AB4FD"/>
<path d="M275.945 157.071L223.528 128.789C222.713 128.349 221.695 128.653 221.255 129.468L220.996 129.949C220.556 130.764 220.861 131.781 221.676 132.221L274.093 160.504C274.908 160.943 275.925 160.639 276.365 159.824L276.624 159.344C277.064 158.528 276.76 157.511 275.945 157.071Z" fill="#3AB4FD"/>
<path d="M268.38 171.108L215.962 142.826C215.147 142.386 214.13 142.69 213.69 143.505L213.431 143.986C212.991 144.801 213.295 145.818 214.11 146.258L266.528 174.541C267.343 174.98 268.36 174.676 268.8 173.861L269.059 173.381C269.499 172.566 269.195 171.548 268.38 171.108Z" fill="#3AB4FD"/>
<path d="M297.58 85.668L284.437 109.848C284.303 110.093 284.219 110.362 284.189 110.64C284.16 110.918 284.186 111.198 284.266 111.466C284.345 111.734 284.477 111.983 284.654 112.199C284.831 112.415 285.049 112.595 285.295 112.726L309.405 125.83L297.58 85.668Z" fill="#3AB4FD"/>
<path opacity="0.7" d="M297.58 85.668L284.437 109.848C284.303 110.093 284.219 110.362 284.189 110.64C284.16 110.918 284.186 111.198 284.266 111.466C284.345 111.734 284.477 111.983 284.654 112.199C284.831 112.415 285.049 112.595 285.295 112.726L309.405 125.83L297.58 85.668Z" fill="white"/>
<path d="M294.569 48.9062L298.235 65.1848C284.351 68.9912 271.894 82.7348 262.932 95.714C259.264 101.104 256.314 106.948 254.157 113.1C254.157 113.1 282.159 87.7736 297.595 86.2916L296.854 113.194C296.854 113.194 312.867 81.9938 343.95 70.6058C343.982 70.598 317.914 51.8468 294.569 48.9062Z" fill="#3AB4FD"/>
<path d="M197.115 278.405L202.676 273.795L188.652 260.488L182.669 265.597L197.115 278.405Z" fill="#CB7A63"/>
<path d="M207.182 272.015C206.547 271.832 205.869 271.865 205.255 272.109C204.881 272.218 204.475 272.351 204.148 272.476C203.82 272.6 203.625 272.678 203.414 272.764L202.798 273.037C202.762 273.046 202.729 273.067 202.707 273.097C202.684 273.127 202.672 273.164 202.673 273.201C202.668 273.213 202.666 273.227 202.666 273.24C202.666 273.253 202.668 273.267 202.673 273.279C202.699 273.318 202.738 273.345 202.783 273.357C203.572 273.565 204.379 273.703 205.193 273.77C205.593 273.822 205.999 273.79 206.386 273.677H206.441C206.663 273.603 206.878 273.506 207.08 273.388C207.208 273.286 207.309 273.153 207.373 273.002C207.437 272.85 207.462 272.686 207.447 272.522C207.448 272.422 207.425 272.324 207.379 272.235C207.332 272.147 207.265 272.071 207.182 272.015ZM207.104 272.53C207.123 272.641 207.11 272.754 207.067 272.858C207.025 272.961 206.953 273.05 206.862 273.115C206.675 273.249 206.458 273.335 206.23 273.365C205.916 273.421 205.597 273.44 205.279 273.419C204.781 273.392 204.286 273.329 203.797 273.232L203.43 273.162C204.095 272.844 204.794 272.601 205.513 272.437C205.903 272.338 206.299 272.265 206.698 272.218C206.813 272.212 206.926 272.239 207.026 272.296C207.061 272.323 207.087 272.359 207.101 272.401C207.115 272.443 207.116 272.488 207.104 272.53Z" fill="#3AB4FD"/>
<path d="M204.633 269.098C204.455 269.129 204.285 269.197 204.133 269.296C203.982 269.395 203.852 269.524 203.751 269.675C203.688 269.768 203.633 269.868 203.588 269.971C203.291 270.877 203.232 271.844 203.416 272.779C203.419 272.792 203.419 272.805 203.416 272.818C203.422 272.849 203.437 272.877 203.457 272.9C203.478 272.923 203.504 272.941 203.533 272.951C203.55 272.959 203.569 272.963 203.588 272.963C203.607 272.963 203.625 272.959 203.642 272.951C203.656 272.951 203.67 272.947 203.682 272.94C203.694 272.933 203.705 272.924 203.712 272.912C203.867 272.781 204.01 272.637 204.141 272.483C204.388 272.19 204.61 271.877 204.804 271.547C205.288 270.767 205.631 269.87 205.421 269.41C205.343 269.207 205.14 269.004 204.633 269.098ZM205.101 269.566C205.233 269.862 204.968 270.564 204.578 271.251C204.341 271.67 204.058 272.062 203.736 272.421C203.628 271.713 203.666 270.991 203.845 270.299C203.89 270.149 203.959 270.007 204.048 269.878C204.177 269.688 204.367 269.548 204.586 269.48H204.695C205.023 269.386 205.085 269.511 205.14 269.55L205.101 269.566Z" fill="#3AB4FD"/>
<path d="M201.949 273.467L194.929 276.993C194.796 277.055 194.69 277.164 194.63 277.298C194.57 277.433 194.56 277.585 194.602 277.726L196.661 284.262C196.712 284.416 196.793 284.558 196.899 284.68C197.005 284.803 197.134 284.903 197.279 284.976C197.424 285.048 197.582 285.091 197.743 285.103C197.905 285.114 198.067 285.093 198.221 285.042L198.338 284.988C210.311 280.783 213.985 277.804 215.233 277.125C218.797 275.183 216.793 272.656 215.467 272.968C209.492 274.395 207.487 274.029 204.906 273.366C203.926 273.16 202.912 273.195 201.949 273.467Z" fill="#263238"/>
<path opacity="0.2" d="M188.659 260.496L195.757 266.791L189.767 271.892L182.669 265.597L188.659 260.496Z" fill="black"/>
<path d="M186.442 271.845L195.373 263.608L193.407 260.16L183.08 269.029L186.442 271.845Z" fill="#3AB4FD"/>
<path opacity="0.5" d="M186.442 271.845L195.373 263.608L193.407 260.16L183.08 269.029L186.442 271.845Z" fill="white"/>
<path d="M192.006 261.369L190.804 262.399L189.018 263.959L187.981 264.84L184.861 267.539L184.26 268.046C184.26 268.046 171.538 260.878 164.456 254.786C159.612 250.597 159.175 249.03 158.661 249.42C151.82 254.63 131.571 272.617 120.097 281.969C119.723 282.016 119.317 282.047 118.974 282.078C112.843 282.523 108.054 281.852 104.279 280.425C104.279 275.448 108.499 263.826 108.85 262.703C108.85 262.703 125.784 245.878 153.224 231.651C153.493 231.515 153.769 231.392 154.051 231.285C154.402 231.121 154.761 230.975 155.127 230.848C156.47 230.313 157.889 229.992 159.331 229.896C160.545 229.847 161.756 230.038 162.896 230.458C163.551 230.69 164.187 230.972 164.799 231.3C165.336 231.578 165.857 231.885 166.359 232.221C167.209 232.759 168.028 233.359 168.801 233.952C170.556 235.309 183.808 252.384 190.929 260.262C191.311 260.628 191.67 261.018 192.006 261.369Z" fill="#3AB4FD"/>
<g opacity="0.1">
<path d="M192.004 261.369L190.802 262.399L189.016 263.959L187.979 264.84L184.859 267.539L184.258 268.046C184.258 268.046 171.536 260.878 164.454 254.786C159.61 250.597 159.173 249.03 158.659 249.42C151.818 254.63 131.569 272.617 120.095 281.969C119.721 282.016 119.315 282.047 118.972 282.078C112.841 282.523 108.052 281.852 104.277 280.425C104.277 275.448 108.497 263.826 108.848 262.703C108.848 262.703 125.782 245.878 153.222 231.651C153.491 231.515 153.767 231.392 154.049 231.285C154.4 231.121 154.759 230.975 155.125 230.848C156.468 230.313 157.887 229.992 159.329 229.896C160.543 229.847 161.754 230.038 162.894 230.458C163.549 230.69 164.185 230.972 164.797 231.3C165.334 231.578 165.855 231.885 166.357 232.221C167.207 232.759 168.026 233.359 168.799 233.952C170.554 235.309 183.806 252.384 190.927 260.262C191.309 260.628 191.668 261.018 192.004 261.369Z" fill="black"/>
</g>
<path d="M101.64 189.539C102.716 194.391 103.839 201.481 100.501 204.819C104.646 212.102 109.619 218.881 115.321 225.021C122.629 212.315 115.703 204.46 115.703 204.46C110.243 203.29 110.313 201.083 111.171 197.277L101.64 189.539Z" fill="#CB7A63"/>
<path d="M97.1157 205.413C97.5131 204.101 98.3366 202.959 99.4557 202.168C100.556 201.333 111.936 201.208 114.861 202.168C116.586 202.714 118.053 203.87 118.987 205.42L97.1157 205.413Z" fill="#3AB4FD"/>
<path d="M149.51 224.756L152.443 223.414L152.591 228.203C151.745 228.941 150.769 229.515 149.713 229.896C149.383 229.993 149.033 230.002 148.699 229.921C148.364 229.841 148.057 229.673 147.808 229.436C147.559 229.199 147.377 228.9 147.28 228.57C147.183 228.24 147.174 227.89 147.256 227.556C147.4 226.951 147.678 226.386 148.068 225.902C148.458 225.418 148.95 225.026 149.51 224.756Z" fill="#CB7A63"/>
<path d="M156.203 224.763L156.047 226.526C156.025 226.791 155.92 227.042 155.746 227.242C155.572 227.443 155.338 227.583 155.079 227.642L152.568 228.203L152.42 223.414L154.97 223.453C155.131 223.45 155.291 223.479 155.44 223.538C155.589 223.598 155.725 223.686 155.84 223.799C155.955 223.911 156.046 224.046 156.108 224.194C156.171 224.342 156.203 224.501 156.203 224.662V224.763Z" fill="#CB7A63"/>
<path d="M112.218 238.374C116.879 240.77 122.17 241.656 127.358 240.909C133.598 239.856 144.518 233.577 149.252 229.989L147.692 227.649C145.352 228.156 126.016 237.969 113.544 229.092C111.204 227.439 102.086 220.629 98.8644 220.77C93.6306 221.004 94.083 226.487 96.3294 228.773C98.9268 231.386 108.607 236.596 112.218 238.374Z" fill="#CB7A63"/>
<g opacity="0.2">
<path d="M156.046 226.526C156.027 226.789 155.923 227.04 155.75 227.239C155.577 227.439 155.345 227.577 155.087 227.634L152.591 228.203C151.745 228.941 150.769 229.515 149.712 229.896C149.564 229.945 149.409 229.971 149.252 229.974C144.51 233.577 133.652 239.848 127.365 240.894C122.181 241.637 116.893 240.751 112.233 238.359C108.622 236.58 98.9266 231.339 96.298 228.702C94.0516 226.417 93.5992 220.902 98.833 220.699C102.054 220.559 111.18 227.368 113.513 229.022C125.415 237.485 143.527 228.952 147.232 227.704C147.228 227.647 147.228 227.589 147.232 227.532C147.368 226.93 147.634 226.366 148.012 225.879C148.402 225.396 148.895 225.007 149.455 224.74L152.364 223.406L154.899 223.445C155.059 223.443 155.218 223.473 155.367 223.532C155.515 223.592 155.65 223.681 155.764 223.794C155.878 223.906 155.969 224.04 156.03 224.188C156.092 224.335 156.124 224.494 156.124 224.654V224.763L156.046 226.526Z" fill="black"/>
<path d="M152.443 223.414L152.419 223.422V223.414H152.443Z" fill="black"/>
</g>
<path d="M128.574 213.252C135.197 227.845 119.838 232.018 126.874 255.949L93.4901 256.729C93.7085 243.906 98.2715 246.659 92.2577 222.549C91.7507 220.506 90.9083 214.648 93.0845 209.289C93.9165 207.202 95.4464 205.468 97.4135 204.383C99.8783 203.057 110.736 204.094 115.689 204.43C121.055 203.704 127.592 211.426 128.574 213.252Z" fill="#3AB4FD"/>
<path opacity="0.5" d="M128.574 213.252C135.197 227.845 119.838 232.018 126.874 255.949L93.4901 256.729C93.7085 243.906 98.2715 246.659 92.2577 222.549C91.7507 220.506 90.9083 214.648 93.0845 209.289C93.9165 207.202 95.4464 205.468 97.4135 204.383C99.8783 203.057 110.736 204.094 115.689 204.43C121.055 203.704 127.592 211.426 128.574 213.252Z" fill="white"/>
<path d="M122.196 184.297C122.102 184.937 122.359 185.459 122.757 185.514C123.155 185.568 123.537 185.124 123.654 184.508C123.771 183.891 123.483 183.353 123.085 183.291C122.687 183.228 122.281 183.689 122.196 184.297Z" fill="#263238"/>
<path d="M122.904 183.298L124.464 183.088C124.464 183.088 123.513 184.133 122.904 183.298Z" fill="#263238"/>
<path d="M122.294 185.141C122.635 186.616 123.181 188.037 123.917 189.36C123.572 189.539 123.192 189.64 122.804 189.656C122.416 189.672 122.029 189.603 121.67 189.454L122.294 185.141Z" fill="#A02724"/>
<path d="M124.402 180.008C124.461 179.986 124.514 179.948 124.554 179.899C124.593 179.849 124.619 179.79 124.628 179.727C124.641 179.631 124.617 179.534 124.561 179.455C124.504 179.377 124.419 179.323 124.324 179.306C123.754 179.206 123.17 179.245 122.618 179.419C122.067 179.592 121.566 179.896 121.157 180.304C121.115 180.335 121.08 180.374 121.055 180.418C121.029 180.463 121.013 180.513 121.008 180.564C121.003 180.615 121.009 180.667 121.025 180.716C121.041 180.765 121.067 180.81 121.102 180.848C121.137 180.886 121.179 180.916 121.227 180.937C121.274 180.957 121.325 180.968 121.376 180.967C121.428 180.967 121.479 180.955 121.526 180.934C121.572 180.912 121.614 180.881 121.648 180.843L121.695 180.788C122.024 180.469 122.423 180.232 122.861 180.096C123.299 179.961 123.763 179.93 124.214 180.008C124.276 180.024 124.34 180.024 124.402 180.008Z" fill="#263238"/>
<path d="M101.992 179.243C101.36 186.848 100.931 190.054 104.168 194.476C109.051 201.122 118.543 200.248 121.414 192.986C124.027 186.442 124.619 175.109 117.685 171.045C116.508 170.348 115.204 169.89 113.849 169.697C112.495 169.505 111.115 169.581 109.79 169.923C108.465 170.264 107.22 170.863 106.127 171.686C105.033 172.509 104.113 173.54 103.419 174.719C102.597 176.095 102.109 177.644 101.992 179.243Z" fill="#CB7A63"/>
<path d="M121.593 192.527C121.013 192.029 120.577 191.385 120.329 190.662C120.323 190.622 120.33 190.581 120.35 190.546C120.369 190.51 120.401 190.483 120.438 190.467C120.478 190.458 120.519 190.464 120.554 190.484C120.589 190.505 120.615 190.538 120.626 190.577C120.855 191.197 121.226 191.755 121.71 192.207L121.593 192.527Z" fill="#263238"/>
<path d="M96.5723 169.36C93.6785 173.26 92.3603 174.305 95.9483 184.765C97.3913 188.969 101.58 194.539 103.616 195.046C107.266 195.966 110.815 193.408 113.553 190.826C116.045 188.658 118.131 186.065 119.715 183.166C121.181 180.21 121.719 176.661 120.495 173.596C119.184 170.265 114.559 167.293 111.096 166.576C107.04 165.702 98.9825 166.092 96.5723 169.36Z" fill="#263238"/>
<path d="M119.341 183.814C119.341 183.814 120.253 185.374 119.099 186.552V184.47L119.341 183.814Z" fill="#263238"/>
<path d="M119.338 183.814C119.338 183.814 119.673 186.217 117.661 187.114L118.737 184.524L119.338 183.814Z" fill="#263238"/>
<path d="M105.907 194.164C105.907 194.164 103.692 195.17 104.012 197.346L105.627 195.045L105.907 194.164Z" fill="#263238"/>
<path d="M105.995 194.219C105.995 194.219 104.31 195.966 105.418 197.877L106.065 195.139L105.995 194.219Z" fill="#263238"/>
<path d="M122.35 180.67C123.173 179.887 123.901 179.01 124.518 178.057C125.15 177.1 125.426 175.952 125.298 174.812C125.141 174.094 124.828 173.419 124.38 172.835C123.933 172.251 123.362 171.773 122.709 171.435C121.404 170.762 120.005 170.292 118.559 170.039C117.875 169.793 117.122 169.815 116.453 170.101C116.175 170.307 115.956 170.583 115.819 170.901C115.682 171.219 115.632 171.567 115.673 171.911C115.748 172.603 115.937 173.278 116.235 173.908C117.186 176.433 117.886 179.045 118.325 181.708C118.567 183.049 118.388 183.946 119.714 183.424C120.533 183.119 121.679 181.38 122.35 180.67Z" fill="#263238"/>
<path d="M111.851 184.429C111.771 186.188 112.39 187.908 113.575 189.211C115.135 190.927 117.179 189.803 117.756 187.651C118.279 185.732 118.084 182.526 116.001 181.606C113.918 180.685 111.961 182.284 111.851 184.429Z" fill="#CB7A63"/>
<path d="M200.318 281.907L206.339 276.041L194.678 261.385L187.401 265.683L200.318 281.907Z" fill="#CB7A63"/>
<path d="M212.488 274.231C211.825 273.997 210.452 274.746 209.407 275.409C209.142 275.573 208.908 275.737 208.705 275.877L208.603 275.955C208.369 276.119 208.198 276.244 208.135 276.298C208.1 276.315 208.071 276.344 208.054 276.379C208.037 276.415 208.033 276.455 208.042 276.493C208.053 276.533 208.077 276.567 208.109 276.592C208.141 276.618 208.18 276.632 208.221 276.634C208.94 276.665 209.659 276.641 210.374 276.564L210.85 276.509C211.366 276.47 211.863 276.298 212.293 276.01C212.45 275.914 212.596 275.801 212.73 275.674C212.843 275.539 212.92 275.377 212.954 275.204C212.988 275.031 212.978 274.852 212.925 274.684C212.893 274.579 212.837 274.483 212.761 274.405C212.685 274.326 212.591 274.266 212.488 274.231ZM212.535 274.793C212.573 274.907 212.581 275.028 212.558 275.146C212.535 275.264 212.481 275.373 212.402 275.464C212.077 275.778 211.663 275.985 211.216 276.057C210.689 276.177 210.151 276.248 209.61 276.267C209.36 276.267 209.1 276.267 208.83 276.267L209.095 276.072C209.153 276.023 209.216 275.978 209.282 275.939C210.12 275.349 211.043 274.888 212.02 274.574C212.14 274.54 212.267 274.54 212.386 274.574C212.429 274.593 212.466 274.624 212.492 274.663C212.518 274.701 212.533 274.746 212.535 274.793Z" fill="#3AB4FD"/>
<path d="M209.148 271.744C208.97 271.812 208.809 271.917 208.675 272.051C208.541 272.185 208.436 272.346 208.368 272.524C207.869 273.717 208.602 275.574 208.719 275.862C208.732 275.894 208.754 275.921 208.781 275.942C208.809 275.962 208.841 275.975 208.875 275.979C208.913 275.987 208.953 275.987 208.992 275.979C209.019 275.97 209.041 275.95 209.054 275.925C209.177 275.757 209.287 275.579 209.382 275.394C209.959 274.31 210.497 272.5 210.029 271.876C209.912 271.705 209.655 271.533 209.148 271.744ZM208.953 275.425C208.587 274.561 208.5 273.604 208.703 272.688C208.795 272.456 208.967 272.266 209.187 272.149L209.288 272.103C209.624 271.97 209.709 272.103 209.741 272.103C210.084 272.578 209.561 274.427 208.953 275.425Z" fill="#3AB4FD"/>
<path opacity="0.2" d="M194.073 260.488L199.556 267.508L192.138 271.65L186.569 264.809L194.073 260.488Z" fill="black"/>
<path d="M93.1872 254.194L92.4072 257.228C92.2902 257.462 92.5788 257.688 92.961 257.68L127.336 256.9C127.64 256.9 127.882 256.736 127.897 256.541L127.039 253.367C127.039 253.164 126.79 252.992 126.462 253L93.702 253.967C93.6045 253.963 93.5074 253.981 93.418 254.02C93.3287 254.059 93.2497 254.119 93.1872 254.194Z" fill="#263238"/>
<path d="M123.777 257.227L122.873 257.329C122.693 257.329 122.545 257.274 122.545 257.157V253.257C122.545 253.14 122.693 253.031 122.865 253.015L123.77 252.906C123.949 252.906 124.097 252.969 124.097 253.086V256.986C124.097 257.103 123.957 257.212 123.777 257.227Z" fill="#3AB4FD"/>
<path d="M111.469 257.399L110.564 257.493C110.393 257.493 110.245 257.438 110.245 257.321V253.421C110.245 253.312 110.393 253.203 110.572 253.18L111.469 253.078C111.649 253.078 111.797 253.133 111.797 253.25V257.15C111.797 257.275 111.649 257.399 111.469 257.399Z" fill="#3AB4FD"/>
<path d="M111.469 257.399L110.564 257.493C110.393 257.493 110.245 257.438 110.245 257.321V253.421C110.245 253.312 110.393 253.203 110.572 253.18L111.469 253.078C111.649 253.078 111.797 253.133 111.797 253.25V257.15C111.797 257.275 111.649 257.399 111.469 257.399Z" fill="#3AB4FD"/>
<path d="M198.681 263.639L197.16 264.497L194.54 265.979L192.2 267.297L189.789 268.654L188.861 269.177L188.284 268.748C188.144 268.654 187.98 268.537 187.793 268.389C187.215 267.96 186.42 267.367 185.453 266.626C180.609 262.789 171.974 255.254 169.4 248.398C167.739 250.379 165.75 252.867 163.472 255.613C153.66 267.445 138.434 284.145 120.12 286.321L118.997 286.438C112.874 286.961 108.077 286.353 104.294 284.972C94.7854 281.485 92.1334 273.132 92.7808 266.026C92.8432 262.695 93.4906 256.767 93.4906 256.767H128.185C133.068 250.831 142.88 241.534 152.903 235.707C153.137 235.559 153.379 235.419 153.621 235.294C153.863 235.169 154.221 234.951 154.518 234.787C157.543 233.079 160.775 231.768 164.135 230.887C164.822 230.723 165.5 230.583 166.171 230.481C166.858 230.378 167.551 230.313 168.246 230.286C172.996 230.076 177.122 231.846 179.946 236.581L198.159 262.859L198.681 263.639Z" fill="#3AB4FD"/>
<path d="M179.963 227.588L141.633 229.171L142.757 204.781L181.086 203.197L179.963 227.588Z" fill="#3AB4FD"/>
<path d="M179.519 229.507L141.744 231.067C141.496 231.083 141.247 231.046 141.014 230.958C140.781 230.87 140.57 230.733 140.395 230.556C140.22 230.379 140.084 230.167 139.998 229.934C139.912 229.7 139.877 229.451 139.895 229.203L141.003 204.968C141.036 204.44 141.262 203.942 141.637 203.569C142.012 203.195 142.51 202.971 143.039 202.94L180.814 201.38C181.062 201.365 181.31 201.403 181.543 201.492C181.775 201.58 181.985 201.717 182.16 201.894C182.335 202.07 182.471 202.282 182.557 202.515C182.644 202.748 182.68 202.996 182.663 203.244L181.547 227.479C181.517 228.007 181.294 228.506 180.92 228.88C180.546 229.254 180.047 229.477 179.519 229.507Z" fill="#263238"/>
<path d="M179.963 227.588L141.633 229.171L142.757 204.781L181.086 203.197L179.963 227.588Z" fill="#3AB4FD"/>
<path opacity="0.9" d="M179.963 227.588L141.633 229.171L142.757 204.781L181.086 203.197L179.963 227.588Z" fill="white"/>
<path opacity="0.1" d="M156.361 202.402L150.028 230.716L152.547 230.615L158.795 202.301L156.361 202.402Z" fill="white"/>
<path opacity="0.1" d="M160.246 202.238L153.912 230.552L158.912 230.349L165.16 202.035L160.246 202.238Z" fill="white"/>
<path d="M167.521 229.81L180.282 229.451C180.501 230.933 179.869 231.487 179.058 231.51L174.978 231.612L172.248 231.674L168.013 231.791L141.735 232.571L141.524 230.723L167.521 229.81Z" fill="#3AB4FD"/>
<path d="M167.521 229.81L180.282 229.451C180.5 230.933 179.868 231.487 179.057 231.51L174.978 231.612L172.248 231.674L168.012 231.791L135.486 232.79C135.304 232.797 135.123 232.751 134.966 232.656C134.81 232.562 134.684 232.424 134.605 232.259C134.538 232.118 134.506 231.962 134.514 231.806C134.522 231.649 134.569 231.497 134.65 231.363C134.731 231.229 134.845 231.118 134.98 231.039C135.115 230.96 135.267 230.915 135.424 230.91L167.521 229.81Z" fill="#3AB4FD"/>
<path opacity="0.2" d="M167.521 229.81L180.282 229.451C180.5 230.933 179.868 231.487 179.057 231.51L174.978 231.612L172.248 231.674L168.012 231.791L135.486 232.79C135.304 232.797 135.123 232.751 134.966 232.656C134.81 232.562 134.684 232.424 134.605 232.259C134.538 232.118 134.506 231.962 134.514 231.806C134.522 231.649 134.569 231.497 134.65 231.363C134.731 231.229 134.845 231.118 134.98 231.039C135.115 230.96 135.267 230.915 135.424 230.91L167.521 229.81Z" fill="black"/>
<path opacity="0.2" d="M180.281 229.451L180.358 229.966C180.389 230.156 180.378 230.35 180.326 230.536C180.275 230.722 180.185 230.894 180.061 231.042C179.938 231.19 179.785 231.309 179.611 231.393C179.438 231.476 179.248 231.522 179.056 231.526L174.976 231.627L167.395 231.9L167.52 229.826L180.281 229.451Z" fill="black"/>
<path opacity="0.2" d="M114.184 213.969C114.184 213.969 112.383 217.643 117.585 227.346L119.761 231.3C120.479 232.603 125.221 229.943 126.672 227.502C126.672 227.502 117.546 222.026 114.184 213.969Z" fill="black"/>
<path d="M158.338 225.278L161.965 224.209L161.388 229.809C161.388 229.809 156.326 233.195 154.571 229.958L155.28 228.156C155.542 227.478 155.952 226.867 156.482 226.369C157.011 225.871 157.645 225.498 158.338 225.278Z" fill="#CB7A63"/>
<path d="M166.139 226.411L165.686 228.431C165.62 228.735 165.458 229.01 165.223 229.216C164.989 229.421 164.694 229.545 164.384 229.57L161.365 229.811L161.95 224.203L164.914 224.671C165.294 224.722 165.639 224.921 165.873 225.225C166.107 225.529 166.211 225.913 166.162 226.294L166.139 226.411Z" fill="#CB7A63"/>
<path d="M128.108 234.779C130.643 238.211 134.2 241.081 138.38 241.9C143.31 242.86 152.795 235.887 157.241 231.378C157.022 229.475 157.147 228.445 155.252 228.18C155.252 228.18 150.353 231.768 141.126 233.921C138.139 234.615 136.15 231.581 133.552 227.127C132.257 224.92 128.092 215.841 126.478 213.82C123.935 210.576 116.712 212.9 119.582 220.708C120.784 223.968 126.041 231.955 128.108 234.779Z" fill="#CB7A63"/>
<path d="M125.409 208.485C130.533 213.165 133.029 221.527 133.029 221.527L121.056 228.827C121.056 228.827 112.32 216.535 113.88 212.252C115.113 208.93 117.398 206.746 120.401 206.559C121.322 206.528 122.24 206.683 123.101 207.013C123.961 207.344 124.746 207.845 125.409 208.485Z" fill="#3AB4FD"/>
<path d="M97.9375 257.858H97.0327C96.8533 257.858 96.7051 257.773 96.7207 257.656L97.0561 253.756C97.0561 253.639 97.2199 253.545 97.3993 253.537H98.3041C98.4835 253.537 98.6317 253.631 98.6161 253.74L98.2807 257.64C98.2622 257.713 98.2163 257.777 98.1525 257.817C98.0887 257.858 98.0118 257.873 97.9375 257.858Z" fill="#3AB4FD"/>
<path d="M187.377 270.838L199.046 265.003L198.048 260.854L184.741 266.922L187.377 270.838Z" fill="#3AB4FD"/>
<path opacity="0.5" d="M187.377 270.838L199.046 265.003L198.048 260.854L184.741 266.922L187.377 270.838Z" fill="white"/>
<path d="M205.871 275.402L197.822 277.836C197.669 277.878 197.535 277.973 197.447 278.105C197.358 278.236 197.319 278.396 197.338 278.553L198.313 285.854C198.34 286.026 198.402 286.19 198.493 286.338C198.585 286.486 198.705 286.614 198.847 286.715C198.988 286.816 199.148 286.887 199.318 286.926C199.487 286.964 199.663 286.968 199.834 286.938H199.975C213.422 284.7 217.86 282.258 219.303 281.744C223.437 280.347 221.783 277.305 220.317 277.391C213.734 277.797 211.682 277.032 209.069 275.831C208.055 275.425 206.956 275.278 205.871 275.402Z" fill="#263238"/>
<path d="M97.6307 179.158C95.2127 179.54 92.8181 177.683 92.0615 175.359C91.7494 174.176 91.6874 172.94 91.8794 171.731C92.0715 170.523 92.5133 169.367 93.1769 168.339C94.0895 166.779 100.072 163.082 102.287 167.247C106.702 175.499 97.6307 179.158 97.6307 179.158Z" fill="#263238"/>
<path d="M179.615 211.559L156.02 212.557L156.129 210.217L179.724 209.219L179.615 211.559Z" fill="#3AB4FD"/>
<g opacity="0.7">
<path d="M179.617 211.559L156.022 212.557L156.131 210.217L179.726 209.219L179.617 211.559Z" fill="white"/>
</g>
<path d="M179.475 214.803L155.88 215.809L155.981 213.469L179.576 212.463L179.475 214.803Z" fill="#3AB4FD"/>
<g opacity="0.7">
<path d="M179.473 214.803L155.878 215.809L155.979 213.469L179.574 212.463L179.473 214.803Z" fill="white"/>
</g>
<path d="M179.328 218.057L155.733 219.063L155.843 216.715L179.43 215.717L179.328 218.057Z" fill="#3AB4FD"/>
<g opacity="0.7">
<path d="M179.329 218.055L155.734 219.061L155.843 216.713L179.43 215.715L179.329 218.055Z" fill="white"/>
</g>
<path d="M179.179 221.301L155.584 222.307L155.693 219.967L179.288 218.961L179.179 221.301Z" fill="#3AB4FD"/>
<g opacity="0.7">
<path d="M179.179 221.301L155.584 222.307L155.693 219.967L179.288 218.961L179.179 221.301Z" fill="white"/>
</g>
<path d="M179.039 224.553L155.444 225.559L155.545 223.219L179.14 222.213L179.039 224.553Z" fill="#3AB4FD"/>
<g opacity="0.7">
<path d="M179.039 224.553L155.444 225.559L155.545 223.219L179.14 222.213L179.039 224.553Z" fill="white"/>
</g>
<path d="M146.482 213.88L144.588 213.961L144.621 214.74L146.515 214.659L146.482 213.88Z" fill="#3AB4FD"/>
<g opacity="0.5">
<path d="M146.481 213.88L144.588 213.961L144.621 214.74L146.515 214.659L146.481 213.88Z" fill="white"/>
</g>
<path d="M146.39 216.135L144.497 216.217L144.53 216.996L146.424 216.915L146.39 216.135Z" fill="#3AB4FD"/>
<g opacity="0.5">
<path d="M146.388 216.137L144.495 216.219L144.528 216.998L146.422 216.917L146.388 216.137Z" fill="white"/>
</g>
<path d="M145.819 218.996L143.924 219.072L143.955 219.852L145.85 219.776L145.819 218.996Z" fill="#3AB4FD"/>
<g opacity="0.5">
<path d="M145.819 218.998L143.923 219.074L143.954 219.854L145.85 219.778L145.819 218.998Z" fill="white"/>
</g>
<path d="M146.216 220.632L144.323 220.713L144.356 221.492L146.25 221.411L146.216 220.632Z" fill="#3AB4FD"/>
<g opacity="0.5">
<path d="M146.217 220.632L144.323 220.713L144.356 221.492L146.25 221.411L146.217 220.632Z" fill="white"/>
</g>
<path d="M145.624 223.496L143.729 223.572L143.76 224.352L145.655 224.276L145.624 223.496Z" fill="#3AB4FD"/>
<g opacity="0.5">
<path d="M144.272 223.735L144.343 222.955L146.23 222.869L146.16 223.657L144.272 223.735Z" fill="white"/>
</g>
<path d="M146.04 225.131L144.146 225.211L144.179 225.99L146.073 225.911L146.04 225.131Z" fill="#3AB4FD"/>
<g opacity="0.5">
<path d="M146.039 225.131L144.145 225.211L144.178 225.99L146.072 225.911L146.039 225.131Z" fill="white"/>
</g>
<path d="M148.464 211.723L144.548 213.181L144.587 212.152L146.756 211.801L144.611 211.653L144.65 210.623L148.464 211.723Z" fill="#3AB4FD"/>
<path d="M172.369 208.001L156.02 208.696L156.098 207.073L172.447 206.379L172.369 208.001Z" fill="#3AB4FD"/>
<g opacity="0.7">
<path d="M172.37 208.001L156.022 208.696L156.1 207.073L172.448 206.379L172.37 208.001Z" fill="white"/>
</g>
<path d="M150.313 208.837L147.918 208.946L148.885 208.33L149.151 208.572L149.439 208.322L150.313 208.837Z" fill="#3AB4FD"/>
<path d="M148.791 208.253L147.824 208.877L147.894 207.441L148.791 208.253Z" fill="#3AB4FD"/>
<path d="M150.468 207.402L150.39 208.752L149.509 208.237L150.468 207.402Z" fill="#3AB4FD"/>
<path d="M149.175 208L149.122 208.057L149.127 208.062L149.181 208.005L149.175 208Z" fill="white"/>
<path d="M149.136 208.008L149.131 208.014L149.184 208.07L149.19 208.065L149.136 208.008Z" fill="white"/>
<path d="M150.469 207.262L149.439 208.198L149.151 208.455L148.885 208.206L147.988 207.394L147.918 207.332L150.469 207.262Z" fill="#3AB4FD"/>
<path d="M146.485 207.531L144.591 207.611L144.601 207.845L146.495 207.765L146.485 207.531Z" fill="#3AB4FD"/>
<path d="M146.488 208.125L144.594 208.205L144.604 208.439L146.498 208.359L146.488 208.125Z" fill="#3AB4FD"/>
<path d="M146.488 208.732L144.594 208.812L144.604 209.046L146.498 208.966L146.488 208.732Z" fill="#3AB4FD"/>
<path d="M105.695 226.746L112.77 307.616H101.397L93.7843 220.592H99.0103C100.691 220.599 102.309 221.234 103.546 222.373C104.782 223.512 105.549 225.071 105.695 226.746Z" fill="#3AB4FD"/>
<path opacity="0.2" d="M105.765 227.479L112.785 307.616H101.397L93.7843 220.592H98.2771C100.159 220.6 101.97 221.311 103.355 222.585C104.74 223.859 105.6 225.604 105.765 227.479Z" fill="black"/>
<path d="M98.2779 225.865L105.43 307.616H37.5704L30.5504 226.871C30.4801 226.073 30.5765 225.27 30.8334 224.512C31.0904 223.753 31.5022 223.057 32.0429 222.466C32.5835 221.876 33.2411 221.404 33.9738 221.081C34.7066 220.759 35.4984 220.592 36.299 220.592H92.5995C94.0314 220.61 95.4056 221.159 96.455 222.134C97.5044 223.108 98.1541 224.438 98.2779 225.865Z" fill="#3AB4FD"/>
<path opacity="0.2" d="M98.3636 226.754L105.438 307.616H37.5782L30.5816 227.932C30.4994 227 30.612 226.061 30.912 225.175C31.2121 224.289 31.6932 223.474 32.3248 222.784C32.9563 222.094 33.7246 221.543 34.5806 221.165C35.4367 220.788 36.3619 220.593 37.2974 220.592H91.6478C93.335 220.593 94.9604 221.227 96.2035 222.367C97.4467 223.508 98.2174 225.073 98.3636 226.754Z" fill="white"/>
<path d="M217.767 307.616H37.8597L35.8785 285.191H208.57C210.534 285.227 212.417 285.981 213.863 287.31C215.309 288.64 216.217 290.452 216.417 292.406L217.767 307.616Z" fill="#3AB4FD"/>
<path opacity="0.2" d="M217.767 307.616H37.8597L35.8785 285.191H208.57C210.534 285.227 212.417 285.981 213.863 287.31C215.309 288.64 216.217 290.452 216.417 292.406L217.767 307.616Z" fill="white"/>
<path d="M226.017 316.202H35.744C34.5593 316.2 33.4237 315.729 32.5859 314.891C31.7482 314.053 31.2767 312.918 31.2746 311.733C31.2746 310.548 31.7455 309.411 32.5837 308.573C33.4218 307.735 34.5586 307.264 35.744 307.264H226.017C227.203 307.264 228.339 307.735 229.178 308.573C230.016 309.411 230.487 310.548 230.487 311.733C230.485 312.918 230.013 314.053 229.175 314.891C228.338 315.729 227.202 316.2 226.017 316.202Z" fill="#3AB4FD"/>
<path opacity="0.2" d="M226.019 316.202H115.563C114.378 316.202 113.241 315.732 112.403 314.893C111.565 314.055 111.094 312.918 111.094 311.733C111.093 311.146 111.208 310.564 111.432 310.022C111.656 309.479 111.985 308.986 112.4 308.57C112.816 308.155 113.309 307.826 113.851 307.602C114.394 307.378 114.976 307.263 115.563 307.264H226.019C227.204 307.264 228.341 307.735 229.179 308.573C230.017 309.411 230.488 310.548 230.488 311.733C230.486 312.918 230.015 314.053 229.177 314.891C228.339 315.729 227.204 316.2 226.019 316.202Z" fill="black"/>
<path d="M38.2398 316.203L40.494 323.871H45.0024L47.4828 316.203H38.2398Z" fill="#263238"/>
<path opacity="0.5" d="M38.2398 316.203L40.494 323.871H45.0024L47.4828 316.203H38.2398Z" fill="white"/>
<path d="M102.849 316.203L105.103 323.871H109.611L112.1 316.203H102.849Z" fill="#263238"/>
<path opacity="0.5" d="M102.849 316.203L105.103 323.871H109.611L112.1 316.203H102.849Z" fill="white"/>
<path d="M152.3 316.203L154.554 323.871H159.062L161.543 316.203H152.3Z" fill="#263238"/>
<path opacity="0.5" d="M152.3 316.203L154.554 323.871H159.062L161.543 316.203H152.3Z" fill="white"/>
<path d="M216.909 316.203L219.163 323.871H223.671L226.152 316.203H216.909Z" fill="#263238"/>
<path opacity="0.5" d="M216.909 316.203L219.163 323.871H223.671L226.152 316.203H216.909Z" fill="white"/>
<path d="M82.5916 217.55H77.6542C77.5507 217.55 77.4515 217.508 77.3784 217.435C77.3052 217.362 77.2642 217.263 77.2642 217.16C77.2642 217.056 77.3052 216.957 77.3784 216.884C77.4515 216.811 77.5507 216.77 77.6542 216.77H82.5916C82.6944 216.772 82.7924 216.813 82.8651 216.886C82.9378 216.959 82.9796 217.057 82.9816 217.16C82.9816 217.263 82.9405 217.362 82.8673 217.435C82.7942 217.508 82.695 217.55 82.5916 217.55Z" fill="#3AB4FD"/>
<path d="M74.3723 217.55H49.6229C49.5195 217.55 49.4203 217.508 49.3471 217.435C49.274 217.362 49.2329 217.263 49.2329 217.16C49.2349 217.057 49.2766 216.959 49.3493 216.886C49.4221 216.813 49.5201 216.772 49.6229 216.77H74.3723C74.4751 216.772 74.5732 216.813 74.6459 216.886C74.7186 216.959 74.7603 217.057 74.7623 217.16C74.7623 217.263 74.7212 217.362 74.6481 217.435C74.5749 217.508 74.4757 217.55 74.3723 217.55Z" fill="#3AB4FD"/>
<path d="M162.119 262.688C162.022 262.686 161.928 262.65 161.854 262.587C161.818 262.551 161.789 262.508 161.769 262.46C161.749 262.413 161.739 262.362 161.739 262.31C161.739 262.259 161.749 262.208 161.769 262.16C161.789 262.113 161.818 262.069 161.854 262.033L164.194 259.522C164.23 259.485 164.274 259.456 164.321 259.436C164.369 259.416 164.42 259.406 164.471 259.406C164.523 259.406 164.573 259.416 164.621 259.436C164.669 259.456 164.712 259.485 164.748 259.522C164.82 259.596 164.86 259.695 164.86 259.799C164.86 259.902 164.82 260.001 164.748 260.075L162.408 262.587C162.329 262.657 162.225 262.694 162.119 262.688Z" fill="#3AB4FD"/>
<path d="M140.975 282.679C140.903 282.68 140.832 282.659 140.771 282.621C140.71 282.582 140.662 282.526 140.632 282.461C140.608 282.415 140.593 282.366 140.589 282.315C140.584 282.263 140.59 282.212 140.606 282.163C140.622 282.114 140.648 282.069 140.682 282.031C140.716 281.992 140.757 281.961 140.803 281.938C148.026 278.28 159.484 264.599 159.601 264.458C159.634 264.419 159.674 264.386 159.719 264.362C159.764 264.339 159.813 264.324 159.864 264.32C159.915 264.315 159.966 264.321 160.015 264.337C160.064 264.353 160.109 264.378 160.147 264.412C160.226 264.48 160.275 264.576 160.283 264.679C160.292 264.783 160.26 264.885 160.194 264.965C159.726 265.527 148.494 278.904 141.154 282.632C141.1 282.664 141.038 282.68 140.975 282.679Z" fill="#3AB4FD"/>
</svg>
