<svg width="308" height="300" viewBox="0 0 308 300" fill="none" xmlns="http://www.w3.org/2000/svg">
<path d="M238.908 44.4295C243.17 39.369 242.547 31.7681 237.163 27.9235C212.985 10.6598 184.139 0.909931 154.263 0.0605787C120.382 -0.902613 87.1738 9.63726 60.0499 29.9626C32.926 50.2879 13.4854 79.2004 4.89619 111.988C-3.693 144.776 -0.9244 179.507 12.7508 210.52C26.426 241.533 50.2016 267 80.2031 282.772C110.205 298.543 144.663 303.689 177.963 297.37C211.263 291.052 241.442 273.641 263.581 247.976C283.103 225.345 295.359 197.471 298.919 167.976C299.712 161.408 294.52 155.822 287.909 155.556C281.298 155.29 275.782 160.447 274.89 167.003C271.612 191.083 261.424 213.797 245.439 232.327C226.837 253.893 201.478 268.523 173.497 273.832C145.516 279.141 116.561 274.818 91.3512 261.565C66.1417 248.313 46.1636 226.913 34.6726 200.854C23.1817 174.794 20.8553 145.611 28.0726 118.06C35.2899 90.5087 51.6254 66.2142 74.417 49.1353C97.2086 32.0564 125.113 23.2 153.582 24.0093C178.044 24.7048 201.685 32.5016 221.675 46.3219C227.117 50.0842 234.646 49.4899 238.908 44.4295Z" fill="#3AB4FD"/>
<path d="M300 46.8203L153.36 194.219L86.7051 127.22" stroke="#3AB4FD" stroke-width="15.9667" stroke-linecap="round" stroke-linejoin="round"/>
</svg>
